<svg width="391" height="157" viewBox="0 0 391 157" fill="none" xmlns="http://www.w3.org/2000/svg">
<g filter="url(#filter0_d_228_1709)">
<rect x="15" y="15" width="361" height="127" rx="15" fill="#5C7DF2"/>
</g>
<rect x="19" y="15" width="357" height="127" rx="15" fill="white"/>
<path d="M35 50.12H51V34.12H35V50.12ZM68.0781 44.0625V45.6562H62.5469V50.4375H60.5781V45.6562H55.1094V44.0625H68.0781ZM55.75 41.6719C58.625 41.3203 60.2188 39.9297 60.4297 38.5312H56.2812V36.9688H66.9219V38.5312H62.7734C62.9766 39.9297 64.5469 41.3203 67.4688 41.6719L66.75 43.2344C64.25 42.8984 62.4609 41.8359 61.6016 40.375C60.7344 41.8359 58.9609 42.8984 56.4844 43.2344L55.75 41.6719ZM73.5469 37.1719C75.8047 37.1641 77.4766 38.6172 77.4844 40.6562C77.4766 42.7031 75.8047 44.1484 73.5469 44.1562C71.3047 44.1484 69.5859 42.7031 69.5938 40.6562C69.5859 38.6172 71.3047 37.1641 73.5469 37.1719ZM69 45.9375C71.5391 45.9453 75.0547 45.9141 78.0938 45.4844L78.25 46.9219C75.0938 47.5391 71.7188 47.5625 69.2344 47.5625L69 45.9375ZM71.5781 40.6562C71.5703 41.7812 72.4219 42.4297 73.5469 42.4219C74.6797 42.4297 75.5391 41.7812 75.5469 40.6562C75.5391 39.5469 74.6797 38.8906 73.5469 38.8906C72.4219 38.8906 71.5703 39.5469 71.5781 40.6562ZM78.9062 50.4688V36.2188H80.8906V50.4688H78.9062ZM89.625 38.3906V39.9688H82.75V38.3906H85.2188V36.6094H87.1875V38.3906H89.625ZM83.0781 43.9844C83.0781 42.0078 84.4062 40.6172 86.2188 40.6094C88.0391 40.6172 89.3359 42.0078 89.3438 43.9844C89.3359 45.9688 88.0391 47.375 86.2188 47.375C84.4062 47.375 83.0781 45.9688 83.0781 43.9844ZM84.8281 43.9844C84.8281 45.0703 85.3906 45.6875 86.2188 45.6875C87.0156 45.6875 87.5859 45.0703 87.5938 43.9844C87.5859 42.9141 87.0156 42.2656 86.2188 42.2656C85.3906 42.2656 84.8281 42.9141 84.8281 43.9844ZM90.1562 49.8281V36.5H92.0156V42H93.1719V36.2188H95.0625V50.4375H93.1719V43.5938H92.0156V49.8281H90.1562ZM100.422 37.2188C102.594 37.2188 104.164 39.1797 104.172 42.2812C104.164 45.4062 102.594 47.3594 100.422 47.3594C98.2422 47.3594 96.6641 45.4062 96.6719 42.2812C96.6641 39.1797 98.2422 37.2188 100.422 37.2188ZM98.5938 42.2812C98.5938 44.3984 99.3359 45.5547 100.422 45.5469C101.531 45.5547 102.258 44.3984 102.266 42.2812C102.258 40.1719 101.531 39.0156 100.422 39.0156C99.3359 39.0156 98.5938 40.1719 98.5938 42.2812ZM105.812 50.4375V36.2188H107.812V39.5156H109.828V41.1875H107.812V43.7188H109.828V45.3438H107.812V50.4375H105.812ZM125.391 36.1875V39.2812H127.312V40.875H125.391V43.8906H123.391V36.1875H125.391ZM114.109 38.7969V37.2812H117.344V36.125H119.328V37.2812H122.547V38.7969H114.109ZM114.797 41.4688C114.797 40.0469 116.211 39.1484 118.328 39.1406C120.461 39.1484 121.828 40.0469 121.828 41.4688C121.828 42.9219 120.461 43.7891 118.328 43.7969C116.211 43.7891 114.797 42.9219 114.797 41.4688ZM115.953 45.9062V44.4688H125.391V48.0625H117.938V48.875H125.797V50.3438H115.984V46.7031H123.406V45.9062H115.953ZM116.75 41.4688C116.742 42.0781 117.344 42.3672 118.328 42.375C119.32 42.3672 119.938 42.0781 119.938 41.4688C119.938 40.8672 119.32 40.5391 118.328 40.5469C117.344 40.5391 116.742 40.8672 116.75 41.4688ZM143.922 36.2188V50.4375H142.031V36.2188H143.922ZM131.328 46.2812C133.422 44.9922 134.203 42.4453 134.203 40.0312V39.2656H131.875V37.6719H138.281V39.2656H136.125V40.0312C136.117 42.3906 136.859 44.7812 138.938 45.9688L137.766 47.4375C136.492 46.6875 135.664 45.4219 135.18 43.8906C134.695 45.5469 133.836 46.9531 132.531 47.75L131.328 46.2812ZM137.266 42.7031V41.0938H139.141V36.4531H141.016V49.7812H139.141V42.7031H137.266ZM158.422 42.875V44.4531H152.922V45.6719H156.875V50.2812H146.953V45.6719H150.938V44.4531H145.453V42.875H158.422ZM146.594 38.2031V36.6094H157.266V38.2031H155.406V40.375H157.172V41.9688H146.688V40.375H148.438V38.2031H146.594ZM148.922 48.6875H154.922V47.2188H148.922V48.6875ZM150.438 40.375H153.406V38.2031H150.438V40.375ZM170.75 36.875V38.1094C170.758 39.2969 170.758 40.5781 170.453 42.25H172.297V43.8281H166.859V46.8594H164.875V43.8281H159.281V42.25H168.43C168.727 40.7344 168.758 39.5625 168.766 38.4688H160.875V36.875H170.75ZM160.797 50.1875V45.5781H162.781V48.5938H170.969V50.1875H160.797Z" fill="#5C7DF2"/>
<path d="M45.6641 66.9258V75.8945H44.3652V71.2871H42.0273V70.2344H44.3652V66.9258H45.6641ZM35.4648 73.3379C37.3447 72.7021 38.5205 71.0889 38.5137 69.4004V68.9219H35.8613V67.8555H42.4648V68.9219H39.8398V69.4004C39.833 70.9248 40.9404 72.4629 42.793 73.0781L42.123 74.1172C40.749 73.6387 39.7305 72.6543 39.1973 71.4375C38.6641 72.791 37.5908 73.8711 36.1348 74.3906L35.4648 73.3379ZM37.707 78.9023V75.0879H39.0059V77.8496H45.9922V78.9023H37.707ZM51.8164 70.5215C51.8096 72.4561 53.0879 74.6162 54.9473 75.498L54.209 76.5098C52.835 75.8535 51.7412 74.4727 51.1875 72.873C50.627 74.6162 49.4785 76.127 48.084 76.8242L47.3184 75.7988C49.1777 74.9033 50.5244 72.5928 50.5312 70.5215V69.2227H47.7695V68.1426H54.4824V69.2227H51.8164V70.5215ZM55.7949 79.1621V66.9121H57.0938V71.7656H59.0625V72.8594H57.0938V79.1621H55.7949ZM70.1641 66.9121V79.1621H68.9199V66.9121H70.1641ZM59.4727 75.7852C61.209 74.7393 62.0908 72.5107 62.0977 70.3301V69.3457H59.8418V68.293H65.4473V69.3457H63.3418V70.3301C63.3418 72.4219 64.1895 74.5205 65.9121 75.5117L65.1328 76.4688C63.9639 75.7715 63.1641 74.5205 62.7334 73.0439C62.2959 74.6436 61.4619 76.0107 60.2656 76.7559L59.4727 75.7852ZM64.5449 72.3125V71.2461H66.4453V67.1719H67.6758V78.5469H66.4453V72.3125H64.5449ZM82.9199 72.7773V73.8164H77.9707V75.1289H81.5527V79.0117H73.0898V75.1289H76.6855V73.8164H71.75V72.7773H82.9199ZM72.7754 68.3477V67.2949H81.8672V68.3477H80.0898V70.6855H81.8125V71.7383H72.8301V70.6855H74.5664V68.3477H72.7754ZM74.375 77.959H80.2949V76.1543H74.375V77.959ZM75.8516 70.6855H78.791V68.3477H75.8516V70.6855ZM84.5879 74.2266C84.6016 71.6494 85.333 69.5098 86.6113 67.6777H87.9512C87.0078 69.0312 86.1055 71.7861 86.1055 74.2266C86.1055 76.6738 87.0078 79.4287 87.9512 80.7891H86.6113C85.333 78.9502 84.6016 76.8105 84.5879 74.2266ZM100.023 72.9141V73.9395H95.0742V75.0605C97.3438 75.1699 98.6494 75.8809 98.6562 77.0977C98.6494 78.4238 97.0977 79.1416 94.4316 79.1348C91.752 79.1416 90.1797 78.4238 90.1797 77.0977C90.1797 75.8809 91.499 75.1699 93.7891 75.0605V73.9395H88.8535V72.9141H100.023ZM89.4414 71.3418C91.8477 71.1504 93.5156 70.2891 93.7002 69.1133H89.9746V68.0742H93.7891V66.8984H95.0742V68.0742H98.9023V69.1133H95.1562C95.3408 70.2891 97.0156 71.1504 99.4219 71.3418L99.0254 72.3398C96.9062 72.1553 95.1904 71.4443 94.4316 70.2959C93.666 71.4443 91.957 72.1553 89.8516 72.3398L89.4414 71.3418ZM91.4922 77.0977C91.4854 77.7949 92.5381 78.1641 94.4316 78.1504C96.2979 78.1641 97.3574 77.7949 97.3574 77.0977C97.3574 76.4004 96.2979 76.0176 94.4316 76.0176C92.5381 76.0176 91.4854 76.4004 91.4922 77.0977ZM111.166 66.9258V75.8945H109.867V71.2871H107.529V70.2344H109.867V66.9258H111.166ZM100.967 73.3379C102.847 72.7021 104.022 71.0889 104.016 69.4004V68.9219H101.363V67.8555H107.967V68.9219H105.342V69.4004C105.335 70.9248 106.442 72.4629 108.295 73.0781L107.625 74.1172C106.251 73.6387 105.232 72.6543 104.699 71.4375C104.166 72.791 103.093 73.8711 101.637 74.3906L100.967 73.3379ZM103.209 78.9023V75.0879H104.508V77.8496H111.494V78.9023H103.209ZM123.238 66.9121V79.1621H121.926V66.9121H123.238ZM113.176 75.8809C116.43 74.3291 118.022 72.1211 118.275 69.2637H113.764V68.2246H119.588C119.588 71.8135 118.063 74.917 113.859 76.9336L113.176 75.8809ZM127.354 77.0566L126.26 80.8301H125.098L125.822 77.0566H127.354ZM142.297 66.9121V79.1895H140.998V66.9121H142.297ZM132.576 72.1211C132.576 69.5029 133.896 67.835 135.748 67.8281C137.566 67.835 138.906 69.5029 138.906 72.1211C138.906 74.7666 137.566 76.4346 135.748 76.4277C133.896 76.4346 132.576 74.7666 132.576 72.1211ZM133.834 72.1211C133.827 74.0693 134.606 75.2656 135.748 75.2656C136.869 75.2656 137.648 74.0693 137.648 72.1211C137.648 70.2002 136.869 68.9971 135.748 68.9902C134.606 68.9971 133.827 70.2002 133.834 72.1211ZM147.574 67.8281C149.242 67.835 150.452 69.2432 150.65 71.5059H153.18V66.9121H154.465V79.1895H153.18V72.5586H150.664C150.521 74.9512 149.283 76.4346 147.574 76.4277C145.749 76.4346 144.457 74.7666 144.471 72.1211C144.457 69.5029 145.749 67.835 147.574 67.8281ZM145.701 72.1211C145.708 74.0693 146.467 75.2656 147.574 75.2656C148.682 75.2656 149.44 74.0693 149.447 72.1211C149.44 70.2002 148.682 68.9971 147.574 68.9902C146.467 68.9971 145.708 70.2002 145.701 72.1211ZM166.469 67.4316V68.498H164.691V71.0684H166.414V72.0938H162.572V73.4746H167.521V74.5137H156.352V73.4746H161.287V72.0938H157.432V71.0684H159.168V68.498H157.377V67.4316H166.469ZM157.76 78.9023V75.498H159.072V77.8496H166.264V78.9023H157.76ZM160.453 71.0684H163.393V68.498H160.453V71.0684ZM171.814 74.2266C171.801 76.8105 171.069 78.9502 169.791 80.7891H168.451C169.395 79.4287 170.297 76.6738 170.297 74.2266C170.297 71.7861 169.395 69.0312 168.451 67.6777H169.791C171.069 69.5098 171.801 71.6494 171.814 74.2266ZM175.656 77.0566L174.562 80.8301H173.4L174.125 77.0566H175.656ZM183.736 67.8281C185.568 67.835 186.874 69.5029 186.881 72.1211C186.874 74.7666 185.568 76.4346 183.736 76.4277C181.904 76.4346 180.599 74.7666 180.605 72.1211C180.599 69.5029 181.904 67.835 183.736 67.8281ZM181.85 72.1211C181.843 74.0693 182.622 75.2656 183.736 75.2656C184.871 75.2656 185.637 74.0693 185.637 72.1211C185.637 70.2002 184.871 68.9971 183.736 68.9902C182.622 68.9971 181.843 70.2002 181.85 72.1211ZM188.699 79.1621V66.9121H189.998V71.7109H191.967V72.8047H189.998V79.1621H188.699ZM203.738 72.873V73.9121H192.555V72.873H197.518V71.5742H193.949V67.4727H202.357V68.498H195.234V70.5352H202.439V71.5742H198.775V72.873H203.738ZM193.881 76.9336C193.881 75.5117 195.474 74.7119 198.133 74.7051C200.771 74.7119 202.351 75.5117 202.357 76.9336C202.351 78.3555 200.771 79.1553 198.133 79.1621C195.474 79.1553 193.881 78.3555 193.881 76.9336ZM195.193 76.9336C195.187 77.7197 196.26 78.1504 198.133 78.1367C199.979 78.1504 201.059 77.7197 201.059 76.9336C201.059 76.1611 199.979 75.7168 198.133 75.7168C196.26 75.7168 195.187 76.1611 195.193 76.9336ZM215.824 72.8867V73.9395H204.654V72.8867H207.334V71.2393C206.384 70.8564 205.851 70.2412 205.857 69.4277C205.851 67.9717 207.539 67.124 210.232 67.1309C212.919 67.124 214.601 67.9717 214.607 69.4277C214.601 70.2412 214.067 70.8564 213.117 71.2461V72.8867H215.824ZM205.98 76.9473C205.98 75.5459 207.566 74.7734 210.232 74.7734C212.864 74.7734 214.45 75.5459 214.457 76.9473C214.45 78.3623 212.864 79.1348 210.232 79.1348C207.566 79.1348 205.98 78.3623 205.98 76.9473ZM207.197 69.4277C207.19 70.248 208.325 70.7061 210.232 70.7129C212.126 70.7061 213.274 70.248 213.268 69.4277C213.274 68.6074 212.126 68.1357 210.232 68.1289C208.325 68.1357 207.19 68.6074 207.197 69.4277ZM207.293 76.9473C207.286 77.7129 208.359 78.1504 210.232 78.1367C212.078 78.1504 213.158 77.7129 213.158 76.9473C213.158 76.1953 212.078 75.7715 210.232 75.7715C208.359 75.7715 207.286 76.1953 207.293 76.9473ZM208.646 72.8867H211.832V71.5811C211.354 71.6562 210.813 71.6973 210.232 71.6973C209.658 71.6973 209.125 71.6562 208.646 71.5879V72.8867ZM227.924 72.7773V73.8164H222.975V75.1289H226.557V79.0117H218.094V75.1289H221.689V73.8164H216.754V72.7773H227.924ZM217.779 68.3477V67.2949H226.871V68.3477H225.094V70.6855H226.816V71.7383H217.834V70.6855H219.57V68.3477H217.779ZM219.379 77.959H225.299V76.1543H219.379V77.959ZM220.855 70.6855H223.795V68.3477H220.855V70.6855ZM229.592 74.2266C229.605 71.6494 230.337 69.5098 231.615 67.6777H232.955C232.012 69.0312 231.109 71.7861 231.109 74.2266C231.109 76.6738 232.012 79.4287 232.955 80.7891H231.615C230.337 78.9502 229.605 76.8105 229.592 74.2266ZM238.137 69.168C238.13 70.7266 239.217 72.1484 241.076 72.7363L240.461 73.748C239.066 73.3037 238.048 72.3809 237.508 71.2188C236.975 72.5586 235.901 73.6182 234.432 74.1309L233.762 73.0918C235.676 72.4629 236.831 70.8838 236.838 69.1816V68.8398H234.145V67.7871H240.775V68.8398H238.137V69.168ZM235.416 76.8379C235.416 75.4023 236.981 74.5615 239.531 74.5684C242.054 74.5615 243.592 75.4023 243.592 76.8379C243.592 78.2939 242.054 79.1416 239.531 79.1348C236.981 79.1416 235.416 78.2939 235.416 76.8379ZM236.715 76.8379C236.708 77.6582 237.761 78.1162 239.531 78.1094C241.288 78.1162 242.327 77.6582 242.32 76.8379C242.327 76.0381 241.288 75.5869 239.531 75.5938C237.761 75.5869 236.708 76.0381 236.715 76.8379ZM242.184 74.2676V66.9121H243.482V69.9473H245.26V71.0137H243.482V74.2676H242.184ZM247.816 67.7871V72.5039C249.478 72.5039 251.221 72.3945 253.121 71.998L253.271 73.0645C251.221 73.4883 249.341 73.6045 247.516 73.5977H246.518V67.7871H247.816ZM247.844 78.9023V74.8965H249.156V77.8496H256.006V78.9023H247.844ZM254.283 75.7578V66.9258H255.582V70.4941H257.359V71.6016H255.582V75.7578H254.283ZM267.682 66.9121V69.7969H269.459V70.877H267.682V73.8301H266.383V66.9121H267.682ZM258.002 72.9688C260.935 72.1963 262.657 70.6582 262.896 68.7441H258.576V67.6777H264.305C264.298 70.8154 262.172 73.0234 258.521 74.0078L258.002 72.9688ZM259.834 78.998V74.3496H267.682V78.998H259.834ZM261.133 77.959H266.396V75.4297H261.133V77.959ZM272.357 77.0566L271.264 80.8301H270.102L270.826 77.0566H272.357ZM288.354 73.8301V74.8965H285.51V79.1621H284.197V74.8965H281.271V79.1621H279.932V74.8965H277.143V73.8301H288.354ZM278.359 70.084C278.366 68.4297 280.13 67.377 282.721 67.377C285.312 67.377 287.089 68.4297 287.082 70.084C287.089 71.7178 285.312 72.75 282.721 72.7363C280.13 72.75 278.366 71.7178 278.359 70.084ZM279.699 70.084C279.692 71.0889 280.902 71.7109 282.721 71.7109C284.546 71.7109 285.749 71.0889 285.756 70.084C285.749 69.0518 284.546 68.4229 282.721 68.416C280.902 68.4229 279.692 69.0518 279.699 70.084ZM300.467 76.5508V77.6309H289.256V76.5508H294.191V73.7207H290.541V67.8965H299.127V73.7207H295.477V76.5508H300.467ZM291.799 72.6953H297.855V68.9355H291.799V72.6953ZM305.553 70.8496C305.553 72.7363 306.708 74.7324 308.533 75.6074L307.795 76.5918C306.462 75.9629 305.457 74.6846 304.938 73.1875C304.397 74.8076 303.331 76.1611 301.93 76.8105L301.205 75.8125C303.071 74.958 304.274 72.8662 304.281 70.8496V70.043H301.574V69.0039H304.268V67.1582H305.58V69.0039H308.246V70.043H305.553V70.8496ZM309.6 79.1621V66.9121H310.898V71.8477H312.867V72.9414H310.898V79.1621H309.6ZM316.818 74.2266C316.805 76.8105 316.073 78.9502 314.795 80.7891H313.455C314.398 79.4287 315.301 76.6738 315.301 74.2266C315.301 71.7861 314.398 69.0312 313.455 67.6777H314.795C316.073 69.5098 316.805 71.6494 316.818 74.2266ZM320.66 77.0566L319.566 80.8301H318.404L319.129 77.0566H320.66ZM338.475 66.9121V72.0391H340.32V73.1328H338.475V79.1621H337.176V66.9121H338.475ZM328.727 75.8262C329.69 75.8262 330.812 75.8262 331.98 75.792V74.5479C330.6 74.3428 329.697 73.5088 329.711 72.3262C329.697 70.9453 330.894 70.0361 332.637 70.0293C334.373 70.0361 335.583 70.9453 335.59 72.3262C335.583 73.5088 334.667 74.3496 333.279 74.5479V75.7441C334.366 75.6895 335.46 75.6006 336.479 75.457L336.561 76.4141C333.908 76.8857 331.044 76.9131 328.932 76.9062L328.727 75.8262ZM328.959 69.4004V68.3613H331.98V66.9395H333.279V68.3613H336.301V69.4004H328.959ZM330.928 72.3262C330.928 73.1055 331.611 73.5908 332.637 73.584C333.662 73.5908 334.339 73.1055 334.346 72.3262C334.339 71.54 333.662 71.041 332.637 71.041C331.611 71.041 330.928 71.54 330.928 72.3262ZM345.256 69.168C345.249 70.7266 346.336 72.1484 348.195 72.7363L347.58 73.748C346.186 73.3037 345.167 72.3809 344.627 71.2188C344.094 72.5586 343.021 73.6182 341.551 74.1309L340.881 73.0918C342.795 72.4629 343.95 70.8838 343.957 69.1816V68.8398H341.264V67.7871H347.895V68.8398H345.256V69.168ZM342.535 76.8379C342.535 75.4023 344.101 74.5615 346.65 74.5684C349.173 74.5615 350.711 75.4023 350.711 76.8379C350.711 78.2939 349.173 79.1416 346.65 79.1348C344.101 79.1416 342.535 78.2939 342.535 76.8379ZM343.834 76.8379C343.827 77.6582 344.88 78.1162 346.65 78.1094C348.407 78.1162 349.446 77.6582 349.439 76.8379C349.446 76.0381 348.407 75.5869 346.65 75.5938C344.88 75.5869 343.827 76.0381 343.834 76.8379ZM349.303 74.2676V66.9121H350.602V69.9473H352.379V71.0137H350.602V74.2676H349.303ZM46.6211 93.7773V94.8164H41.6719V96.1289H45.2539V100.012H36.791V96.1289H40.3867V94.8164H35.4512V93.7773H46.6211ZM36.4766 89.3477V88.2949H45.5684V89.3477H43.791V91.6855H45.5137V92.7383H36.5312V91.6855H38.2676V89.3477H36.4766ZM38.0762 98.959H43.9961V97.1543H38.0762V98.959ZM39.5527 91.6855H42.4922V89.3477H39.5527V91.6855ZM48.2891 95.2266C48.3027 92.6494 49.0342 90.5098 50.3125 88.6777H51.6523C50.709 90.0312 49.8066 92.7861 49.8066 95.2266C49.8066 97.6738 50.709 100.429 51.6523 101.789H50.3125C49.0342 99.9502 48.3027 97.8105 48.2891 95.2266ZM58.7754 89.6484C58.7754 91.6445 60.9014 93.5312 63.2598 93.9551L62.6582 95.0352C60.6963 94.6113 58.8984 93.3262 58.1055 91.6035C57.2988 93.3193 55.501 94.5977 53.5391 95.0352L52.9648 93.9551C55.2891 93.5176 57.4014 91.6445 57.4082 89.6484V88.7188H58.7754V89.6484ZM52.5547 98.5488V97.4688H63.7656V98.5488H52.5547ZM71.1895 88.8281C71.1758 92.1025 69.542 94.4814 65.4473 95.7871L64.9551 94.7344C66.9648 94.1123 68.2568 93.251 69.0088 92.1777L65.1055 92.4785L64.9004 91.4395L69.5078 91.2412C69.6719 90.8174 69.7744 90.3662 69.8223 89.8945H65.5156V88.8281H71.1895ZM66.8008 99.9707V96.1562H68.1133V98.918H75.1816V99.9707H66.8008ZM73.5137 96.8125V87.9258H74.8125V96.8125H73.5137ZM82.168 89.334C82.168 90.4961 82.0449 91.624 81.7305 92.6836H83.4668V88.2266H84.6973V99.5605H83.4668V93.7363H81.334C80.6504 95.2334 79.4746 96.5664 77.5332 97.6465L76.7949 96.7441C78.5723 95.7529 79.6455 94.5566 80.2539 93.1963L76.9727 93.5312L76.7949 92.4102L80.6162 92.1777C80.7666 91.6104 80.8623 91.0156 80.9033 90.4004H77.3965V89.334H82.168ZM86.0508 100.162V87.9121H87.2812V100.162H86.0508ZM92.1758 88.8281C93.8438 88.835 95.0537 90.2432 95.252 92.5059H97.7812V87.9121H99.0664V100.189H97.7812V93.5586H95.2656C95.1221 95.9512 93.8848 97.4346 92.1758 97.4277C90.3506 97.4346 89.0586 95.7666 89.0723 93.1211C89.0586 90.5029 90.3506 88.835 92.1758 88.8281ZM90.3027 93.1211C90.3096 95.0693 91.0684 96.2656 92.1758 96.2656C93.2832 96.2656 94.042 95.0693 94.0488 93.1211C94.042 91.2002 93.2832 89.9971 92.1758 89.9902C91.0684 89.9971 90.3096 91.2002 90.3027 93.1211ZM103.154 98.0566L102.061 101.83H100.898L101.623 98.0566H103.154ZM113.121 89.293V92.4785H114.762V88.1445H116.006V99.5605H114.762V93.5449H113.121V96.9355H108.363V89.293H113.121ZM109.594 95.8965H111.904V90.3184H109.594V95.8965ZM117.25 100.162V87.9121H118.494V100.162H117.25ZM130.197 87.9121V100.189H128.898V87.9121H130.197ZM120.477 93.1211C120.477 90.5029 121.796 88.835 123.648 88.8281C125.467 88.835 126.807 90.5029 126.807 93.1211C126.807 95.7666 125.467 97.4346 123.648 97.4277C121.796 97.4346 120.477 95.7666 120.477 93.1211ZM121.734 93.1211C121.728 95.0693 122.507 96.2656 123.648 96.2656C124.77 96.2656 125.549 95.0693 125.549 93.1211C125.549 91.2002 124.77 89.9971 123.648 89.9902C122.507 89.9971 121.728 91.2002 121.734 93.1211ZM142.01 89.1016V90.5918C142.01 92.3828 142.01 94.0645 141.477 96.6074L140.191 96.4844C140.451 95.3564 140.588 94.3789 140.656 93.4697L133.301 93.8594L133.137 92.793L140.718 92.5059C140.745 91.8496 140.745 91.2207 140.752 90.5918V90.168H133.479V89.1016H142.01ZM132.152 98.5215V97.4551H143.322V98.5215H132.152ZM147.643 88.4727C149.256 88.459 150.507 89.3955 150.773 90.7695H153.166V87.9121H154.465V94.4883H153.166V91.8359H150.78C150.527 93.2441 149.27 94.1875 147.643 94.1875C145.77 94.1875 144.423 93.0049 144.43 91.3164C144.423 89.6484 145.77 88.459 147.643 88.4727ZM145.674 91.3164C145.667 92.3623 146.487 93.0938 147.643 93.0938C148.777 93.0938 149.584 92.3623 149.584 91.3164C149.584 90.2637 148.777 89.5459 147.643 89.5527C146.487 89.5459 145.667 90.2637 145.674 91.3164ZM146.48 100.012V95.0762H147.766V96.498H153.166V95.0762H154.465V100.012H146.48ZM147.766 98.9453H153.166V97.5234H147.766V98.9453ZM159.715 95.2266C159.701 97.8105 158.97 99.9502 157.691 101.789H156.352C157.295 100.429 158.197 97.6738 158.197 95.2266C158.197 92.7861 157.295 90.0312 156.352 88.6777H157.691C158.97 90.5098 159.701 92.6494 159.715 95.2266ZM163.557 98.0566L162.463 101.83H161.301L162.025 98.0566H163.557ZM179.525 94.8164V95.8691H174.549V100.148H173.277V95.8691H168.355V94.8164H179.525ZM168.984 92.8613C171.268 92.5469 173.168 91.1865 173.209 89.6758H169.395V88.6367H178.473V89.6758H174.686C174.706 91.1865 176.593 92.5469 178.91 92.8613L178.432 93.8867C176.422 93.5723 174.686 92.5811 173.94 91.1865C173.188 92.5811 171.459 93.5723 169.477 93.8867L168.984 92.8613ZM186.129 95.541C188.651 95.541 190.189 96.3887 190.189 97.8379C190.189 99.3076 188.651 100.155 186.129 100.162C183.579 100.155 182.014 99.3076 182.014 97.8379C182.014 96.3887 183.579 95.541 186.129 95.541ZM180.934 94.3652V88.6777H182.205V90.4414H185.418V88.6777H186.703V94.3652H180.934ZM182.205 93.3262H185.418V91.4668H182.205V93.3262ZM183.312 97.8379C183.306 98.6582 184.358 99.123 186.129 99.123C187.886 99.123 188.925 98.6582 188.918 97.8379C188.925 97.0244 187.886 96.5664 186.129 96.5664C184.358 96.5664 183.306 97.0244 183.312 97.8379ZM188.781 95.2266V87.9121H190.08V90.9062H191.857V92.0137H190.08V95.2266H188.781ZM203.725 93.8867V94.9395H192.555V93.8867H195.234V92.2393C194.284 91.8564 193.751 91.2412 193.758 90.4277C193.751 88.9717 195.439 88.124 198.133 88.1309C200.819 88.124 202.501 88.9717 202.508 90.4277C202.501 91.2412 201.968 91.8564 201.018 92.2461V93.8867H203.725ZM193.881 97.9473C193.881 96.5459 195.467 95.7734 198.133 95.7734C200.765 95.7734 202.351 96.5459 202.357 97.9473C202.351 99.3623 200.765 100.135 198.133 100.135C195.467 100.135 193.881 99.3623 193.881 97.9473ZM195.098 90.4277C195.091 91.248 196.226 91.7061 198.133 91.7129C200.026 91.7061 201.175 91.248 201.168 90.4277C201.175 89.6074 200.026 89.1357 198.133 89.1289C196.226 89.1357 195.091 89.6074 195.098 90.4277ZM195.193 97.9473C195.187 98.7129 196.26 99.1504 198.133 99.1367C199.979 99.1504 201.059 98.7129 201.059 97.9473C201.059 97.1953 199.979 96.7715 198.133 96.7715C196.26 96.7715 195.187 97.1953 195.193 97.9473ZM196.547 93.8867H199.732V92.5811C199.254 92.6562 198.714 92.6973 198.133 92.6973C197.559 92.6973 197.025 92.6562 196.547 92.5879V93.8867ZM215.824 93.7773V94.8164H210.875V96.1289H214.457V100.012H205.994V96.1289H209.59V94.8164H204.654V93.7773H215.824ZM205.68 89.3477V88.2949H214.771V89.3477H212.994V91.6855H214.717V92.7383H205.734V91.6855H207.471V89.3477H205.68ZM207.279 98.959H213.199V97.1543H207.279V98.959ZM208.756 91.6855H211.695V89.3477H208.756V91.6855ZM217.492 95.2266C217.506 92.6494 218.237 90.5098 219.516 88.6777H220.855C219.912 90.0312 219.01 92.7861 219.01 95.2266C219.01 97.6738 219.912 100.429 220.855 101.789H219.516C218.237 99.9502 217.506 97.8105 217.492 95.2266ZM231.971 87.9258V96.8945H230.672V92.2871H228.334V91.2344H230.672V87.9258H231.971ZM221.771 94.3379C223.651 93.7021 224.827 92.0889 224.82 90.4004V89.9219H222.168V88.8555H228.771V89.9219H226.146V90.4004C226.14 91.9248 227.247 93.4629 229.1 94.0781L228.43 95.1172C227.056 94.6387 226.037 93.6543 225.504 92.4375C224.971 93.791 223.897 94.8711 222.441 95.3906L221.771 94.3379ZM224.014 99.9023V96.0879H225.312V98.8496H232.299V99.9023H224.014ZM244.043 87.9121V100.162H242.73V87.9121H244.043ZM233.98 96.8809C237.234 95.3291 238.827 93.1211 239.08 90.2637H234.568V89.2246H240.393C240.393 92.8135 238.868 95.917 234.664 97.9336L233.98 96.8809ZM255.582 87.9121V90.6465H257.359V91.7402H255.582V94.625H254.283V87.9121H255.582ZM246.436 94.1191V88.5273H247.707V90.2363H250.92V88.5273H252.205V94.1191H246.436ZM247.707 93.0801H250.92V91.248H247.707V93.0801ZM247.734 100.012V95.1855H249.02V96.5391H254.283V95.1855H255.582V100.012H247.734ZM249.02 98.959H254.283V97.5645H249.02V98.959ZM267.914 95.2812V96.2246H260.723V97.168H267.641V98.084H260.723V99.0684H268.078V100.039H259.438V95.2812H267.914ZM258.057 94.3516V93.2988H262.992V91.7812H264.277V93.2988H269.227V94.3516H258.057ZM258.672 91.4258C261.078 91.1592 262.972 89.9561 262.979 88.4453V88.0625H264.291V88.4453C264.284 89.9561 266.157 91.1592 268.584 91.4258L268.119 92.4238C266.13 92.1504 264.407 91.3232 263.628 90.0381C262.842 91.3232 261.112 92.1504 259.137 92.4238L258.672 91.4258ZM272.357 98.0566L271.264 101.83H270.102L270.826 98.0566H272.357ZM288.367 97.5371V98.6309H277.156V97.5371H288.367ZM278.113 90.1543V89.0879H287.342V90.1543H285.469V94.2422H287.301V95.2812H278.141V94.2422H279.973V90.1543H278.113ZM281.258 94.2422H284.197V90.1543H281.258V94.2422ZM298.799 87.9121V92.6973H300.768V93.791H298.799V100.189H297.514V87.9121H298.799ZM289.734 90.0723V89.0195H295.34V93.5176H291.047V96.1699C293.146 96.1631 294.711 96.0879 296.502 95.7598L296.625 96.8125C294.711 97.168 293.057 97.25 290.76 97.2637H289.762V92.4648H294.055V90.0723H289.734ZM311.5 87.9121V100.189H310.201V87.9121H311.5ZM301.779 93.1211C301.779 90.5029 303.099 88.835 304.951 88.8281C306.77 88.835 308.109 90.5029 308.109 93.1211C308.109 95.7666 306.77 97.4346 304.951 97.4277C303.099 97.4346 301.779 95.7666 301.779 93.1211ZM303.037 93.1211C303.03 95.0693 303.81 96.2656 304.951 96.2656C306.072 96.2656 306.852 95.0693 306.852 93.1211C306.852 91.2002 306.072 89.9971 304.951 89.9902C303.81 89.9971 303.03 91.2002 303.037 93.1211ZM319.334 89.1016V90.168H318.363V93.8936C318.78 93.8594 319.184 93.8115 319.553 93.7637L319.607 94.7344C317.666 95.083 315.116 95.1309 313.523 95.1309L313.387 94.0371H314.562V90.168H313.605V89.1016H319.334ZM315.738 99.9023V96.0469H317.037V98.8496H324.256V99.9023H315.738ZM315.766 94.0166C316.23 94.0098 316.702 93.9893 317.174 93.9688V90.168H315.766V94.0166ZM320.1 96.7715V88.1445H321.316V91.5762H322.67V87.9258H323.9V97.1953H322.67V92.6562H321.316V96.7715H320.1ZM328.918 95.2266C328.904 97.8105 328.173 99.9502 326.895 101.789H325.555C326.498 100.429 327.4 97.6738 327.4 95.2266C327.4 92.7861 326.498 90.0312 325.555 88.6777H326.895C328.173 90.5098 328.904 92.6494 328.918 95.2266ZM345.16 93.668V94.7344H333.977V93.668H345.16ZM335.303 97.9199C335.303 96.498 336.896 95.6914 339.555 95.6914C342.193 95.6914 343.772 96.498 343.779 97.9199C343.772 99.3418 342.193 100.142 339.555 100.135C336.896 100.142 335.303 99.3418 335.303 97.9199ZM335.371 92.6016V88.3496H343.779V89.416H336.656V91.5488H343.861V92.6016H335.371ZM336.615 97.9199C336.608 98.7061 337.682 99.1299 339.555 99.1367C341.4 99.1299 342.48 98.7061 342.48 97.9199C342.48 97.1406 341.4 96.7031 339.555 96.6895C337.682 96.7031 336.608 97.1406 336.615 97.9199ZM357.246 94.3105V95.3496H346.076V94.3105H357.246ZM347.279 90.7695C347.272 89.2314 348.988 88.3154 351.654 88.3223C354.307 88.3154 356.022 89.2314 356.029 90.7695C356.022 92.3145 354.307 93.251 351.654 93.2578C348.988 93.251 347.272 92.3145 347.279 90.7695ZM347.484 99.9023V96.3477H348.797V98.8496H355.988V99.9023H347.484ZM348.619 90.7695C348.612 91.6787 349.774 92.1914 351.654 92.1914C353.527 92.1914 354.696 91.6787 354.689 90.7695C354.696 89.8945 353.527 89.3613 351.654 89.3613C349.774 89.3613 348.612 89.8945 348.619 90.7695ZM45.623 108.912V121.189H44.3242V108.912H45.623ZM36.1348 111.072V110.02H41.877V114.49H37.4746V117.17C39.4639 117.163 41.1934 117.067 43.2441 116.732L43.3672 117.799C41.2002 118.161 39.3545 118.243 37.1875 118.25H36.1484V113.451H40.5508V111.072H36.1348ZM57.3672 109.24V110.02C57.3672 110.888 57.3672 112.022 57.0938 113.506L55.8086 113.424C55.9043 112.911 55.9658 112.453 56.0068 112.036L48.7129 112.385L48.5488 111.346L56.0684 111.141C56.0752 110.819 56.082 110.532 56.082 110.266H48.8633V109.24H57.3672ZM47.5645 115.174V114.148H51.9805V112.768H53.293V114.148H58.707V115.174H47.5645ZM48.8906 117.074V116.076H57.3125V118.988H50.1758V119.973H57.6543V120.971H48.9043V118.045H56.0273V117.074H48.8906ZM64.9824 109.787V111.742H68.25V109.787H69.5352V115.885H63.7109V109.787H64.9824ZM64.9824 114.846H68.25V112.754H64.9824V114.846ZM65.1465 120.902V117.033H66.459V119.85H73.5273V120.902H65.1465ZM71.9277 117.949V108.926H73.2266V117.949H71.9277ZM85.0938 114.559V115.598H81.3887V118.592H86.3789V119.658H75.168V118.592H80.1035V115.598H76.5625V109.855H84.9844V110.908H77.8613V114.559H85.0938ZM96.8105 108.912V113.793H98.7109V114.873H96.8105V121.148H95.5117V108.912H96.8105ZM87.2812 117.881C90.3506 116.35 92.0186 114.135 92.2852 111.277H87.8965V110.197H93.6113C93.5977 113.738 92.0391 116.903 88.0059 118.893L87.2812 117.881ZM112.725 111.947V112.986H109.02V114.381H113.955V115.434H102.785V114.381H107.721V112.986H104.275V109.172H105.561V111.947H112.725ZM103.906 121.012V119.959H105.834V117.553H104.016V116.541H112.738V117.553H110.92V119.959H112.848V121.012H103.906ZM107.119 119.959H109.635V117.553H107.119V119.959ZM120.463 109.65C123.033 109.65 124.988 111.011 124.988 113.068C124.988 115.14 123.033 116.493 120.463 116.486C117.899 116.493 115.944 115.14 115.951 113.068C115.944 111.011 117.899 109.65 120.463 109.65ZM114.885 119.576V118.496H126.096V119.576H114.885ZM117.195 113.068C117.188 114.497 118.583 115.42 120.463 115.42C122.336 115.42 123.724 114.497 123.73 113.068C123.724 111.646 122.336 110.696 120.463 110.703C118.583 110.696 117.188 111.646 117.195 113.068ZM137.156 108.912V121.162H135.857V108.912H137.156ZM127.736 118.045V110.102H129.021V116.924C130.812 116.917 132.692 116.76 134.654 116.363L134.832 117.457C132.665 117.901 130.696 118.052 128.762 118.045H127.736ZM153.672 115.352V116.377H142.475V115.352H153.672ZM143.746 118.482V117.443H152.25V121.162H150.924V118.482H143.746ZM143.938 114.312V109.227H152.305V110.252H145.25V111.25H151.99V112.234H145.25V113.314H152.387V114.312H143.938ZM164.801 108.912V115.283H163.516V113.82H160.836V114.832H155.189V109.473H156.488V111.127H159.551V109.473H160.836V110.594H163.516V108.912H164.801ZM156.488 113.793H159.551V112.125H156.488V113.793ZM156.789 116.842V115.83H164.801V118.838H158.115V119.973H165.238V121.012H156.816V117.867H163.516V116.842H156.789ZM160.836 112.822H163.516V111.592H160.836V112.822ZM176.846 108.912V121.162H175.547V108.912H176.846ZM166.975 111.906V110.854H169.996V109.035H171.309V110.854H174.357V111.906H166.975ZM167.604 115.639C167.597 113.971 168.896 112.795 170.68 112.795C172.464 112.795 173.763 113.971 173.77 115.639C173.763 117.32 172.464 118.489 170.68 118.496C168.896 118.489 167.597 117.32 167.604 115.639ZM168.834 115.639C168.834 116.705 169.606 117.416 170.68 117.402C171.753 117.416 172.525 116.705 172.525 115.639C172.525 114.593 171.753 113.868 170.68 113.861C169.606 113.868 168.834 114.593 168.834 115.639ZM193.389 115.816V116.869H188.412V121.148H187.141V116.869H182.219V115.816H193.389ZM182.848 113.861C185.131 113.547 187.031 112.187 187.072 110.676H183.258V109.637H192.336V110.676H188.549C188.569 112.187 190.456 113.547 192.773 113.861L192.295 114.887C190.285 114.572 188.549 113.581 187.804 112.187C187.052 113.581 185.322 114.572 183.34 114.887L182.848 113.861ZM198.311 109.787C200.245 109.78 201.64 110.977 201.646 112.699C201.64 114.422 200.245 115.618 198.311 115.625C196.383 115.618 194.968 114.422 194.975 112.699C194.968 110.977 196.383 109.78 198.311 109.787ZM194.387 117.471C196.615 117.471 199.705 117.45 202.385 117.061L202.48 118.004C199.712 118.537 196.738 118.551 194.551 118.551L194.387 117.471ZM196.26 112.699C196.246 113.786 197.121 114.49 198.311 114.49C199.5 114.49 200.375 113.786 200.375 112.699C200.375 111.626 199.5 110.908 198.311 110.908C197.121 110.908 196.246 111.626 196.26 112.699ZM203.15 121.189V108.912H204.449V121.189H203.15ZM215.961 108.912V113.875H217.93V114.955H215.961V121.162H214.676V108.912H215.961ZM206.35 111.893V110.826H209.371V109.076H210.67V110.826H213.609V111.893H206.35ZM206.979 115.639C206.979 113.971 208.264 112.795 210.027 112.795C211.784 112.795 213.069 113.971 213.076 115.639C213.069 117.32 211.784 118.489 210.027 118.496C208.264 118.489 206.979 117.32 206.979 115.639ZM208.223 115.639C208.216 116.705 208.981 117.416 210.027 117.402C211.066 117.416 211.825 116.705 211.832 115.639C211.825 114.593 211.066 113.868 210.027 113.861C208.981 113.868 208.216 114.593 208.223 115.639ZM222.25 112.262C222.25 114.217 223.07 116.302 224.711 117.307L223.986 118.305C222.838 117.614 222.065 116.391 221.642 114.976C221.197 116.527 220.35 117.854 219.16 118.578L218.354 117.607C220.083 116.568 220.999 114.401 220.992 112.316V110.033H222.25V112.262ZM223.385 114.299V113.219H225.285V109.145H226.516V120.561H225.285V114.299H223.385ZM227.814 121.162V108.912H229.059V121.162H227.814ZM241.828 118.551V119.631H230.617V118.551H233.297V115.352C232.292 114.798 231.677 113.923 231.684 112.822C231.677 110.895 233.57 109.63 236.195 109.623C238.827 109.63 240.721 110.895 240.721 112.822C240.721 113.902 240.133 114.771 239.148 115.324V118.551H241.828ZM232.941 112.822C232.941 114.135 234.274 114.989 236.195 114.996C238.103 114.989 239.456 114.135 239.463 112.822C239.456 111.503 238.103 110.662 236.195 110.662C234.274 110.662 232.941 111.503 232.941 112.822ZM234.582 118.551H237.836V115.83C237.337 115.946 236.783 116.008 236.195 116.008C235.621 116.008 235.074 115.946 234.582 115.83V118.551ZM244.111 120.096C243.578 120.089 243.134 119.658 243.141 119.125C243.134 118.592 243.578 118.154 244.111 118.154C244.638 118.154 245.075 118.592 245.082 119.125C245.075 119.658 244.638 120.089 244.111 120.096Z" fill="#555555"/>
<defs>
<filter id="filter0_d_228_1709" x="0" y="0" width="391" height="157" filterUnits="userSpaceOnUse" color-interpolation-filters="sRGB">
<feFlood flood-opacity="0" result="BackgroundImageFix"/>
<feColorMatrix in="SourceAlpha" type="matrix" values="0 0 0 0 0 0 0 0 0 0 0 0 0 0 0 0 0 0 127 0" result="hardAlpha"/>
<feOffset/>
<feGaussianBlur stdDeviation="7.5"/>
<feComposite in2="hardAlpha" operator="out"/>
<feColorMatrix type="matrix" values="0 0 0 0 0 0 0 0 0 0 0 0 0 0 0 0 0 0 0.1 0"/>
<feBlend mode="normal" in2="BackgroundImageFix" result="effect1_dropShadow_228_1709"/>
<feBlend mode="normal" in="SourceGraphic" in2="effect1_dropShadow_228_1709" result="shape"/>
</filter>
</defs>
</svg>
