<svg width="391" height="157" viewBox="0 0 391 157" fill="none" xmlns="http://www.w3.org/2000/svg">
<g filter="url(#filter0_d_228_1697)">
<rect x="15" y="15" width="361" height="127" rx="15" fill="#5C7DF2"/>
</g>
<rect x="19" y="15" width="357" height="127" rx="15" fill="white"/>
<path d="M35.2969 49L42.7969 36.2656L50.2812 49H35.2969ZM41.7188 46.4531C41.7188 47.0391 42.2031 47.5156 42.7969 47.5156C43.3828 47.5156 43.8672 47.0391 43.8594 46.4531C43.8672 45.8516 43.3828 45.3672 42.7969 45.375C42.2031 45.3672 41.7188 45.8516 41.7188 46.4531ZM41.8906 40.5156L41.9688 44.2188H43.6094L43.7031 40.5156H41.8906ZM66.6094 36.2188V50.4688H64.625V36.2188H66.6094ZM55.4375 39.0156V37.4062H62.2031V42.8906H57.5156V45.5C59.6875 45.4844 61.5234 45.375 63.6094 45.0312L63.7812 46.6406C61.4453 47.0547 59.3281 47.1406 56.7344 47.1406H55.4531V41.3125H60.1719V39.0156H55.4375ZM80 36.5V37.4219C80 38.4219 80 39.7578 79.7031 41.5L77.7031 41.375C77.7891 40.9062 77.8516 40.4766 77.8906 40.0781L69.8281 40.4219L69.6094 38.8906L78 38.7188L78.0234 38.0312H70V36.5H80ZM68.5469 43.625V42.0781H73.375V40.7344H75.375V42.0781H81.4531V43.625H68.5469ZM70.0156 45.8438V44.3594H79.9062V48H71.9844V48.7188H80.2812V50.2188H70.0312V46.6094H77.9375V45.8438H70.0156ZM98.3281 36.2188V50.4375H96.4375V36.2188H98.3281ZM85.7344 46.2812C87.8281 44.9922 88.6094 42.4453 88.6094 40.0312V39.2656H86.2812V37.6719H92.6875V39.2656H90.5312V40.0312C90.5234 42.3906 91.2656 44.7812 93.3438 45.9688L92.1719 47.4375C90.8984 46.6875 90.0703 45.4219 89.5859 43.8906C89.1016 45.5469 88.2422 46.9531 86.9375 47.75L85.7344 46.2812ZM91.6719 42.7031V41.0938H93.5469V36.4531H95.4219V49.7812H93.5469V42.7031H91.6719ZM112.828 42.875V44.4531H107.328V45.6719H111.281V50.2812H101.359V45.6719H105.344V44.4531H99.8594V42.875H112.828ZM101 38.2031V36.6094H111.672V38.2031H109.812V40.375H111.578V41.9688H101.094V40.375H102.844V38.2031H101ZM103.328 48.6875H109.328V47.2188H103.328V48.6875ZM104.844 40.375H107.812V38.2031H104.844V40.375ZM125.594 36.2188V50.4688H123.578V36.2188H125.594ZM114.109 42.2812C114.102 39.1797 115.688 37.2188 117.875 37.2188C120.016 37.2188 121.609 39.1797 121.609 42.2812C121.609 45.4062 120.016 47.3594 117.875 47.3594C115.688 47.3594 114.102 45.4062 114.109 42.2812ZM116.031 42.2812C116.023 44.3984 116.766 45.5547 117.875 45.5469C118.953 45.5547 119.68 44.3984 119.688 42.2812C119.68 40.1719 118.953 39.0156 117.875 39.0156C116.766 39.0156 116.023 40.1719 116.031 42.2812ZM138.797 36.2344V40.3125H140.719V41.9844H138.797V46.7031H136.797V36.2344H138.797ZM128.016 38.6875V37.0938H134.547V41.5469H130.016V43.0469C132.359 43.0391 133.953 42.9375 135.766 42.6094L135.984 44.2188C133.945 44.6016 132.117 44.6562 129.234 44.6562H128.031V40.0469H132.609V38.6875H128.016ZM129.625 50.1875V45.8594H131.641V48.5938H139.344V50.1875H129.625ZM143.828 45.4375C143.836 43.4922 144.359 42.8984 145.297 42.3125C145.969 41.875 146.492 41.3906 146.484 40.6719C146.492 39.8906 145.883 39.3828 145.125 39.375C144.398 39.3828 143.719 39.8672 143.688 40.7812H141.469C141.508 38.5859 143.141 37.5312 145.141 37.5312C147.32 37.5312 148.859 38.6641 148.859 40.5938C148.859 41.8828 148.195 42.6953 147.172 43.3125C146.289 43.8359 145.898 44.3438 145.891 45.4375V45.6094H143.828V45.4375ZM143.594 47.8281C143.578 47.1094 144.172 46.5234 144.906 46.5312C145.602 46.5234 146.203 47.1094 146.203 47.8281C146.203 48.5547 145.602 49.1406 144.906 49.1406C144.172 49.1406 143.578 48.5547 143.594 47.8281Z" fill="#5C7DF2"/>
<path d="M45.623 66.9121V79.1895H44.3242V66.9121H45.623ZM36.1348 69.0723V68.0195H41.877V72.4902H37.4746V75.1699C39.4639 75.1631 41.1934 75.0674 43.2441 74.7324L43.3672 75.7988C41.2002 76.1611 39.3545 76.2432 37.1875 76.25H36.1484V71.4512H40.5508V69.0723H36.1348ZM57.3672 67.2402V68.0195C57.3672 68.8877 57.3672 70.0225 57.0938 71.5059L55.8086 71.4238C55.9043 70.9111 55.9658 70.4531 56.0068 70.0361L48.7129 70.3848L48.5488 69.3457L56.0684 69.1406C56.0752 68.8193 56.082 68.5322 56.082 68.2656H48.8633V67.2402H57.3672ZM47.5645 73.1738V72.1484H51.9805V70.7676H53.293V72.1484H58.707V73.1738H47.5645ZM48.8906 75.0742V74.0762H57.3125V76.9883H50.1758V77.9727H57.6543V78.9707H48.9043V76.0449H56.0273V75.0742H48.8906ZM73.582 66.9121V79.1621H72.3379V66.9121H73.582ZM62.8906 75.7852C64.627 74.7393 65.5088 72.5107 65.5156 70.3301V69.3457H63.2598V68.293H68.8652V69.3457H66.7598V70.3301C66.7598 72.4219 67.6074 74.5205 69.3301 75.5117L68.5508 76.4688C67.3818 75.7715 66.582 74.5205 66.1514 73.0439C65.7139 74.6436 64.8799 76.0107 63.6836 76.7559L62.8906 75.7852ZM67.9629 72.3125V71.2461H69.8633V67.1719H71.0938V78.5469H69.8633V72.3125H67.9629ZM86.3379 72.7773V73.8164H81.3887V75.1289H84.9707V79.0117H76.5078V75.1289H80.1035V73.8164H75.168V72.7773H86.3379ZM76.1934 68.3477V67.2949H85.2852V68.3477H83.5078V70.6855H85.2305V71.7383H76.248V70.6855H77.9844V68.3477H76.1934ZM77.793 77.959H83.7129V76.1543H77.793V77.959ZM79.2695 70.6855H82.209V68.3477H79.2695V70.6855ZM98.4375 73.3105V74.3496H87.2676V73.3105H98.4375ZM88.4707 69.7695C88.4639 68.2314 90.1797 67.3154 92.8457 67.3223C95.498 67.3154 97.2139 68.2314 97.2207 69.7695C97.2139 71.3145 95.498 72.251 92.8457 72.2578C90.1797 72.251 88.4639 71.3145 88.4707 69.7695ZM88.6758 78.9023V75.3477H89.9883V77.8496H97.1797V78.9023H88.6758ZM89.8105 69.7695C89.8037 70.6787 90.9658 71.1914 92.8457 71.1914C94.7188 71.1914 95.8877 70.6787 95.8809 69.7695C95.8877 68.8945 94.7188 68.3613 92.8457 68.3613C90.9658 68.3613 89.8037 68.8945 89.8105 69.7695ZM112.41 66.8984V70.5625H114.188V71.6562H112.41V75.9082H111.111V66.8984H112.41ZM102.977 70.7949C102.963 69.0107 104.385 67.7529 106.23 67.7461C108.083 67.7529 109.484 69.0107 109.498 70.7949C109.484 72.5791 108.083 73.8506 106.23 73.8438C104.385 73.8506 102.963 72.5791 102.977 70.7949ZM104.248 70.7949C104.234 71.9365 105.109 72.709 106.23 72.709C107.365 72.709 108.22 71.9365 108.227 70.7949C108.22 69.6533 107.365 68.8809 106.23 68.8809C105.109 68.8809 104.234 69.6533 104.248 70.7949ZM104.645 78.9023V74.9648H105.943V77.8496H112.93V78.9023H104.645ZM125.098 66.9258V75.8945H123.799V71.2871H121.461V70.2344H123.799V66.9258H125.098ZM114.898 73.3379C116.778 72.7021 117.954 71.0889 117.947 69.4004V68.9219H115.295V67.8555H121.898V68.9219H119.273V69.4004C119.267 70.9248 120.374 72.4629 122.227 73.0781L121.557 74.1172C120.183 73.6387 119.164 72.6543 118.631 71.4375C118.098 72.791 117.024 73.8711 115.568 74.3906L114.898 73.3379ZM117.141 78.9023V75.0879H118.439V77.8496H125.426V78.9023H117.141ZM131.332 68.7441C131.325 70.46 132.439 71.9912 134.299 72.5996L133.588 73.6113C132.241 73.1191 131.25 72.1758 130.717 70.9453C130.19 72.3467 129.124 73.4473 127.641 73.9805L126.943 72.9414C128.898 72.2715 130.033 70.6377 130.047 68.7988V67.5957H131.332V68.7441ZM128.953 76.8242C128.946 75.3408 130.519 74.4795 133.096 74.4863C135.659 74.4795 137.231 75.3408 137.238 76.8242C137.231 78.3008 135.659 79.1416 133.096 79.1348C130.519 79.1416 128.946 78.3008 128.953 76.8242ZM130.238 76.8242C130.231 77.6377 131.298 78.1162 133.096 78.1094C134.88 78.1162 135.946 77.6377 135.953 76.8242C135.946 75.9834 134.88 75.498 133.096 75.498C131.298 75.498 130.231 75.9834 130.238 76.8242ZM133.314 70.4668V69.4004H135.898V66.9121H137.197V74.1445H135.898V70.4668H133.314ZM149.625 66.9121V79.1621H148.381V66.9121H149.625ZM139.221 72.2031C139.221 69.5508 140.26 67.8896 141.859 67.8965C143.35 67.8896 144.354 69.3047 144.505 71.6016H145.893V67.1445H147.137V78.5605H145.893V72.6543H144.512C144.396 75.0469 143.377 76.5303 141.859 76.5234C140.26 76.5303 139.221 74.8623 139.221 72.2031ZM140.424 72.2031C140.424 74.1514 140.978 75.2998 141.859 75.293C142.762 75.2998 143.322 74.1514 143.322 72.2031C143.322 70.248 142.762 69.1064 141.859 69.1133C140.978 69.1064 140.424 70.248 140.424 72.2031ZM165.799 73.1055V74.1582H160.932V76.5371H159.646V74.1582H154.588V73.1055H165.799ZM155.982 78.9023V75.375H157.281V77.8496H164.555V78.9023H155.982ZM156.023 71.834V67.4863H164.35V71.834H156.023ZM157.295 70.8086H163.064V68.5117H157.295V70.8086ZM177.215 66.9121V79.1621H175.971V66.9121H177.215ZM166.523 75.7852C168.26 74.7393 169.142 72.5107 169.148 70.3301V69.3457H166.893V68.293H172.498V69.3457H170.393V70.3301C170.393 72.4219 171.24 74.5205 172.963 75.5117L172.184 76.4688C171.015 75.7715 170.215 74.5205 169.784 73.0439C169.347 74.6436 168.513 76.0107 167.316 76.7559L166.523 75.7852ZM171.596 72.3125V71.2461H173.496V67.1719H174.727V78.5469H173.496V72.3125H171.596ZM188.344 66.9121V71.793H190.244V72.873H188.344V79.1484H187.045V66.9121H188.344ZM178.814 75.8809C181.884 74.3496 183.552 72.1348 183.818 69.2773H179.43V68.1973H185.145C185.131 71.7383 183.572 74.9033 179.539 76.8926L178.814 75.8809ZM198.57 75.0059C198.57 76.0586 199.09 77.1729 200.204 77.8359C201.325 77.1182 201.879 75.9492 201.879 75.0059V74.418H203.15V75.0059C203.144 76.2773 203.984 77.5078 205.584 78.0273L204.941 78.9844C203.731 78.5674 202.904 77.7471 202.48 76.749C202.091 77.7334 201.359 78.6289 200.238 79.0938C199.062 78.6494 198.317 77.7812 197.941 76.7832C197.497 77.7471 196.69 78.5605 195.535 78.9844L194.879 78.0273C196.451 77.4668 197.306 76.1885 197.312 75.0059V74.418H198.57V75.0059ZM194.564 70.4941C194.571 68.7783 195.952 67.6025 197.832 67.5957C199.705 67.6025 201.086 68.7783 201.086 70.4941C201.086 72.1895 199.705 73.3652 197.832 73.3652C195.952 73.3652 194.571 72.1895 194.564 70.4941ZM195.836 70.4941C195.829 71.5605 196.67 72.2852 197.832 72.2852C198.98 72.2852 199.814 71.5605 199.814 70.4941C199.814 69.4209 198.98 68.6963 197.832 68.7031C196.67 68.6963 195.829 69.4209 195.836 70.4941ZM203.178 73.8984V66.9258H204.477V73.8984H203.178ZM209.74 67.8281C211.408 67.835 212.618 69.2432 212.816 71.5059H215.346V66.9121H216.631V79.1895H215.346V72.5586H212.83C212.687 74.9512 211.449 76.4346 209.74 76.4277C207.915 76.4346 206.623 74.7666 206.637 72.1211C206.623 69.5029 207.915 67.835 209.74 67.8281ZM207.867 72.1211C207.874 74.0693 208.633 75.2656 209.74 75.2656C210.848 75.2656 211.606 74.0693 211.613 72.1211C211.606 70.2002 210.848 68.9971 209.74 68.9902C208.633 68.9971 207.874 70.2002 207.867 72.1211ZM232.148 66.9121V74.1992H230.85V71.0957H228.566V70.0293H230.85V66.9121H232.148ZM221.936 73.0918C223.836 72.4287 225.005 70.7744 224.998 69.0859V68.8125H222.346V67.7598H228.949V68.8125H226.324V69.0723C226.317 70.624 227.425 72.1348 229.277 72.7637L228.607 73.7891C227.233 73.3174 226.222 72.333 225.688 71.123C225.155 72.4902 224.082 73.5908 222.619 74.1309L221.936 73.0918ZM223.904 76.8516C223.897 75.3955 225.47 74.5479 228.047 74.541C230.61 74.5479 232.183 75.3955 232.189 76.8516C232.183 78.3076 230.61 79.1553 228.047 79.1621C225.47 79.1553 223.897 78.3076 223.904 76.8516ZM225.189 76.8516C225.183 77.6787 226.249 78.1504 228.047 78.1367C229.831 78.1504 230.897 77.6787 230.904 76.8516C230.897 76.0176 229.831 75.5459 228.047 75.5527C226.249 75.5459 225.183 76.0176 225.189 76.8516ZM245.232 74.1172V75.1426H240.229V79.1621H238.957V75.1426H234.021V74.1172H245.232ZM235.416 72.7227V67.4043H236.701V69.0039H242.525V67.4043H243.824V72.7227H235.416ZM236.701 71.6836H242.525V70.043H236.701V71.6836ZM257.578 71.7246V72.791H255.678V79.1484H254.379V66.9121H255.678V71.7246H257.578ZM246.6 76.0723V68.1016H247.885V74.9922C249.594 74.9854 251.378 74.8418 253.326 74.4453L253.477 75.5391C251.378 75.9561 249.45 76.0791 247.611 76.0723H246.6ZM272.166 66.9121V79.1621H270.922V66.9121H272.166ZM261.475 75.7852C263.211 74.7393 264.093 72.5107 264.1 70.3301V69.3457H261.844V68.293H267.449V69.3457H265.344V70.3301C265.344 72.4219 266.191 74.5205 267.914 75.5117L267.135 76.4688C265.966 75.7715 265.166 74.5205 264.735 73.0439C264.298 74.6436 263.464 76.0107 262.268 76.7559L261.475 75.7852ZM266.547 72.3125V71.2461H268.447V67.1719H269.678V78.5469H268.447V72.3125H266.547ZM284.963 76.5645V77.6309H273.752V76.5645H278.701V73.666H280V76.5645H284.963ZM274.271 73.1055C276.548 72.7227 278.66 71.0205 278.66 69.1406V69.0312H274.682V67.9648H283.992V69.0312H280.014V69.1406C280.014 71.0205 282.14 72.6885 284.471 73.0508L283.951 74.0762C281.969 73.707 280.144 72.5586 279.344 70.9453C278.558 72.5791 276.746 73.748 274.805 74.1309L274.271 73.1055ZM290.104 70.0293C290.09 72.1963 291.354 74.418 293.18 75.3066L292.373 76.3457C291.04 75.6484 290.008 74.2812 289.468 72.6475C288.921 74.3838 287.848 75.8535 286.453 76.5781L285.646 75.5254C287.526 74.623 288.798 72.2715 288.805 70.0293V67.9375H290.104V70.0293ZM294.096 79.1621V66.9121H295.395V71.793H297.363V72.9004H295.395V79.1621H294.096ZM308.492 66.9121V79.1621H307.248V66.9121H308.492ZM298.088 72.2031C298.088 69.5508 299.127 67.8896 300.727 67.8965C302.217 67.8896 303.222 69.3047 303.372 71.6016H304.76V67.1445H306.004V78.5605H304.76V72.6543H303.379C303.263 75.0469 302.244 76.5303 300.727 76.5234C299.127 76.5303 298.088 74.8623 298.088 72.2031ZM299.291 72.2031C299.291 74.1514 299.845 75.2998 300.727 75.293C301.629 75.2998 302.189 74.1514 302.189 72.2031C302.189 70.248 301.629 69.1064 300.727 69.1133C299.845 69.1064 299.291 70.248 299.291 72.2031ZM314.467 70.0293C314.467 72.2715 315.725 74.5068 317.598 75.3477L316.805 76.3867C315.417 75.6895 314.364 74.3086 313.824 72.6338C313.284 74.3975 312.218 75.8877 310.803 76.6191L309.982 75.5664C311.883 74.6572 313.147 72.2988 313.154 70.0293V67.9375H314.467V70.0293ZM316.244 72.0391V70.9863H318.979V66.9121H320.264V79.1895H318.979V72.0391H316.244ZM335.699 66.9121V79.1621H334.4V66.9121H335.699ZM325.637 75.8262C326.648 75.8193 327.797 75.8125 329 75.7852V74.5547C327.571 74.3633 326.642 73.5225 326.648 72.3262C326.642 70.9453 327.845 70.0361 329.615 70.0293C331.406 70.0361 332.63 70.9453 332.637 72.3262C332.63 73.5088 331.707 74.3428 330.285 74.5479V75.7373C331.42 75.6826 332.568 75.6006 333.648 75.457L333.744 76.4277C331.023 76.8789 328.057 76.9131 325.814 76.9062L325.637 75.8262ZM325.896 69.4141V68.375H329V66.9395H330.299V68.375H333.375V69.4141H325.896ZM327.879 72.3262C327.865 73.1055 328.59 73.5908 329.615 73.584C330.675 73.5908 331.393 73.1055 331.393 72.3262C331.393 71.54 330.675 71.041 329.615 71.041C328.59 71.041 327.865 71.54 327.879 72.3262ZM343.943 67.9922C343.937 69.6191 345.926 71.1436 348.332 71.4648L347.826 72.5312C345.823 72.21 344.066 71.1709 343.267 69.7285C342.467 71.1709 340.71 72.21 338.721 72.5312L338.201 71.4648C340.601 71.1436 342.583 69.6396 342.59 67.9922V67.3223H343.943V67.9922ZM337.668 74.8008V73.7344H348.838V74.8008H343.861V79.1621H342.59V74.8008H337.668ZM46.6621 97.5645V98.6309H35.4512V97.5645H40.4004V94.666H41.6992V97.5645H46.6621ZM35.9707 94.1055C38.2471 93.7227 40.3594 92.0205 40.3594 90.1406V90.0312H36.3809V88.9648H45.6914V90.0312H41.7129V90.1406C41.7129 92.0205 43.8389 93.6885 46.1699 94.0508L45.6504 95.0762C43.668 94.707 41.8428 93.5586 41.043 91.9453C40.2568 93.5791 38.4453 94.748 36.5039 95.1309L35.9707 94.1055ZM57.6953 87.9121V100.162H56.3965V87.9121H57.6953ZM47.7285 96.8125C49.6221 95.9648 50.8799 93.9004 50.8867 91.8496V91.043H48.0977V90.0039H50.873V88.1582H52.1582V90.0039H54.9062V91.043H52.1582V91.8496C52.165 93.8047 53.4502 95.8008 55.3574 96.6074L54.6465 97.6055C53.2314 96.9902 52.1104 95.7119 51.543 94.167C50.9893 95.8076 49.875 97.168 48.4531 97.8105L47.7285 96.8125ZM70.8477 93.5312V94.5293H59.6367V93.5312H70.8477ZM60.9629 96.3203V95.3906H69.4668V98.084H62.2754V99.0957H69.8496V100.012H60.9766V97.2227H68.1816V96.3203H60.9629ZM61.0449 89.1426V88.2266H69.4395V90.8789H62.3574V91.8086H69.6445V92.7246H61.0723V90.0176H68.1406V89.1426H61.0449ZM85.6543 87.9121V100.162H84.4102V93.8867H82.8379V99.5332H81.6211V88.1582H82.8379V92.8203H84.4102V87.9121H85.6543ZM75.7422 97.0449V89.3613H77.041V95.9033C78.1689 95.8896 79.4062 95.8008 80.8008 95.5273L80.9375 96.6621C79.2559 96.9629 77.8545 97.0518 76.5352 97.0449H75.7422ZM97.4121 87.9258V96.9355H96.127V87.9258H97.4121ZM87.8828 89.8125V88.7734H93.5156V92.4238H89.1816V94.1875C91.4307 94.1738 92.9688 94.1055 94.7871 93.7773L94.9238 94.8438C92.9961 95.1787 91.3691 95.2471 88.9355 95.2539H87.9102V91.4395H92.2305V89.8125H87.8828ZM89.3184 99.9023V96.2246H90.6172V98.8496H97.7539V99.9023H89.3184ZM113.299 87.9121V100.162H112.055V87.9121H113.299ZM102.607 96.7852C104.344 95.7393 105.226 93.5107 105.232 91.3301V90.3457H102.977V89.293H108.582V90.3457H106.477V91.3301C106.477 93.4219 107.324 95.5205 109.047 96.5117L108.268 97.4688C107.099 96.7715 106.299 95.5205 105.868 94.0439C105.431 95.6436 104.597 97.0107 103.4 97.7559L102.607 96.7852ZM107.68 93.3125V92.2461H109.58V88.1719H110.811V99.5469H109.58V93.3125H107.68ZM126.055 93.7773V94.8164H121.105V96.1289H124.688V100.012H116.225V96.1289H119.82V94.8164H114.885V93.7773H126.055ZM115.91 89.3477V88.2949H125.002V89.3477H123.225V91.6855H124.947V92.7383H115.965V91.6855H117.701V89.3477H115.91ZM117.51 98.959H123.43V97.1543H117.51V98.959ZM118.986 91.6855H121.926V89.3477H118.986V91.6855ZM137.143 87.9121V94.4883H135.844V87.9121H137.143ZM127.23 91.3164C127.237 89.6348 128.618 88.4658 130.498 88.4727C132.371 88.4658 133.752 89.6348 133.752 91.3164C133.752 92.9912 132.371 94.1602 130.498 94.1465C128.618 94.1602 127.237 92.9912 127.23 91.3164ZM128.502 91.3164C128.495 92.376 129.336 93.0801 130.498 93.0801C131.646 93.0801 132.48 92.376 132.48 91.3164C132.48 90.2705 131.646 89.5596 130.498 89.5664C129.336 89.5596 128.495 90.2705 128.502 91.3164ZM129.131 100.012V95.0762H130.402V96.457H135.857V95.0762H137.143V100.012H129.131ZM130.402 98.9453H135.857V97.4824H130.402V98.9453ZM149.256 87.9121V100.162H147.957V87.9121H149.256ZM139.836 97.0449V89.1016H141.121V95.9238C142.912 95.917 144.792 95.7598 146.754 95.3633L146.932 96.457C144.765 96.9014 142.796 97.0518 140.861 97.0449H139.836ZM160.727 87.9121V92.6562H162.695V93.7227H160.727V100.189H159.428V87.9121H160.727ZM151.703 97.1406V89.0879H157.432V90.1406H153.002V96.0605C155.06 96.0537 156.598 95.9648 158.348 95.6504L158.512 96.7441C156.591 97.0859 154.964 97.1475 152.688 97.1406H151.703ZM164.678 99.0957C164.145 99.0889 163.7 98.6582 163.707 98.125C163.7 97.5918 164.145 97.1543 164.678 97.1543C165.204 97.1543 165.642 97.5918 165.648 98.125C165.642 98.6582 165.204 99.0889 164.678 99.0957ZM174.48 91.0293C174.467 93.1963 175.731 95.418 177.557 96.3066L176.75 97.3457C175.417 96.6484 174.385 95.2812 173.845 93.6475C173.298 95.3838 172.225 96.8535 170.83 97.5781L170.023 96.5254C171.903 95.623 173.175 93.2715 173.182 91.0293V88.9375H174.48V91.0293ZM178.473 100.162V87.9121H179.771V92.793H181.74V93.9004H179.771V100.162H178.473ZM193.498 93.8867V94.9395H182.328V93.8867H185.008V92.2393C184.058 91.8564 183.524 91.2412 183.531 90.4277C183.524 88.9717 185.213 88.124 187.906 88.1309C190.593 88.124 192.274 88.9717 192.281 90.4277C192.274 91.2412 191.741 91.8564 190.791 92.2461V93.8867H193.498ZM183.654 97.9473C183.654 96.5459 185.24 95.7734 187.906 95.7734C190.538 95.7734 192.124 96.5459 192.131 97.9473C192.124 99.3623 190.538 100.135 187.906 100.135C185.24 100.135 183.654 99.3623 183.654 97.9473ZM184.871 90.4277C184.864 91.248 185.999 91.7061 187.906 91.7129C189.8 91.7061 190.948 91.248 190.941 90.4277C190.948 89.6074 189.8 89.1357 187.906 89.1289C185.999 89.1357 184.864 89.6074 184.871 90.4277ZM184.967 97.9473C184.96 98.7129 186.033 99.1504 187.906 99.1367C189.752 99.1504 190.832 98.7129 190.832 97.9473C190.832 97.1953 189.752 96.7715 187.906 96.7715C186.033 96.7715 184.96 97.1953 184.967 97.9473ZM186.32 93.8867H189.506V92.5811C189.027 92.6562 188.487 92.6973 187.906 92.6973C187.332 92.6973 186.799 92.6562 186.32 92.5879V93.8867ZM202.344 91.0293C202.33 93.2646 203.684 95.5205 205.584 96.3613L204.805 97.3867C203.396 96.7168 202.282 95.3428 201.708 93.668C201.141 95.4658 200.013 96.9424 198.543 97.6602L197.75 96.5664C199.678 95.7119 201.031 93.3672 201.031 91.0293V88.9375H202.344V91.0293ZM206.691 100.189V87.9121H207.99V100.189H206.691ZM222.961 87.9121V93.0391H224.807V94.1328H222.961V100.162H221.662V87.9121H222.961ZM213.213 96.8262C214.177 96.8262 215.298 96.8262 216.467 96.792V95.5479C215.086 95.3428 214.184 94.5088 214.197 93.3262C214.184 91.9453 215.38 91.0361 217.123 91.0293C218.859 91.0361 220.069 91.9453 220.076 93.3262C220.069 94.5088 219.153 95.3496 217.766 95.5479V96.7441C218.853 96.6895 219.946 96.6006 220.965 96.457L221.047 97.4141C218.395 97.8857 215.53 97.9131 213.418 97.9062L213.213 96.8262ZM213.445 90.4004V89.3613H216.467V87.9395H217.766V89.3613H220.787V90.4004H213.445ZM215.414 93.3262C215.414 94.1055 216.098 94.5908 217.123 94.584C218.148 94.5908 218.825 94.1055 218.832 93.3262C218.825 92.54 218.148 92.041 217.123 92.041C216.098 92.041 215.414 92.54 215.414 93.3262ZM236.045 87.9121V100.162H234.801V93.873H233.338V99.5605H232.107V88.1445H233.338V92.7793H234.801V87.9121H236.045ZM225.299 96.7031C227.09 95.6982 227.924 93.5859 227.924 91.1523V90.3594H225.627V89.3066H231.314V90.3594H229.182V91.1523C229.182 93.3535 230.009 95.3496 231.793 96.2656L231.027 97.2637C229.824 96.6074 229.018 95.4658 228.58 94.0576C228.163 95.6641 227.356 96.9492 226.105 97.6875L225.299 96.7031ZM239.764 98.0566L238.67 101.83H237.508L238.232 98.0566H239.764ZM255.76 95.1172V96.1426H250.756V100.162H249.484V96.1426H244.549V95.1172H255.76ZM245.943 93.7227V88.4043H247.229V90.0039H253.053V88.4043H254.352V93.7227H245.943ZM247.229 92.6836H253.053V91.043H247.229V92.6836ZM260.887 89.8672C260.88 91.4736 262.015 92.9707 263.84 93.5723L263.143 94.5977C261.803 94.126 260.798 93.1689 260.265 91.959C259.731 93.333 258.692 94.4131 257.264 94.9395L256.566 93.9004C258.48 93.2236 259.588 91.5898 259.602 89.7578V88.5547H260.887V89.8672ZM258.221 97.8652C258.221 96.4297 259.786 95.5889 262.336 95.5957C264.852 95.5889 266.396 96.4297 266.396 97.8652C266.396 99.3145 264.852 100.142 262.336 100.135C259.786 100.142 258.221 99.3145 258.221 97.8652ZM259.52 97.8652C259.513 98.6719 260.565 99.1094 262.336 99.123C264.093 99.1094 265.132 98.6719 265.125 97.8652C265.132 97.0859 264.093 96.6211 262.336 96.6211C260.565 96.6211 259.513 97.0859 259.52 97.8652ZM264.988 95.3086V87.9121H266.287V90.9883H268.064V92.082H266.287V95.3086H264.988ZM283.363 93.668V94.7344H272.18V93.668H283.363ZM273.506 97.9199C273.506 96.498 275.099 95.6914 277.758 95.6914C280.396 95.6914 281.976 96.498 281.982 97.9199C281.976 99.3418 280.396 100.142 277.758 100.135C275.099 100.142 273.506 99.3418 273.506 97.9199ZM273.574 92.6016V88.3496H281.982V89.416H274.859V91.5488H282.064V92.6016H273.574ZM274.818 97.9199C274.812 98.7061 275.885 99.1299 277.758 99.1367C279.604 99.1299 280.684 98.7061 280.684 97.9199C280.684 97.1406 279.604 96.7031 277.758 96.6895C275.885 96.7031 274.812 97.1406 274.818 97.9199ZM288.271 88.7871C290.206 88.7803 291.601 89.9766 291.607 91.6992C291.601 93.4219 290.206 94.6182 288.271 94.625C286.344 94.6182 284.929 93.4219 284.936 91.6992C284.929 89.9766 286.344 88.7803 288.271 88.7871ZM284.348 96.4707C286.576 96.4707 289.666 96.4502 292.346 96.0605L292.441 97.0039C289.673 97.5371 286.699 97.5508 284.512 97.5508L284.348 96.4707ZM286.221 91.6992C286.207 92.7861 287.082 93.4902 288.271 93.4902C289.461 93.4902 290.336 92.7861 290.336 91.6992C290.336 90.626 289.461 89.9082 288.271 89.9082C287.082 89.9082 286.207 90.626 286.221 91.6992ZM293.111 100.189V87.9121H294.41V100.189H293.111ZM303.816 88.4727C305.662 88.4658 306.995 89.498 307.002 91.0156C306.995 92.5195 305.662 93.5586 303.816 93.5449C301.978 93.5586 300.651 92.5195 300.658 91.0156C300.651 89.498 301.978 88.4658 303.816 88.4727ZM299.783 94.502C302.046 94.502 305.17 94.4541 307.85 94.0508L307.945 95.0215C306.824 95.2334 305.669 95.3633 304.541 95.4385V99.7793H303.242V95.5137C302.053 95.5684 300.932 95.5752 299.961 95.582L299.783 94.502ZM301.916 91.0156C301.902 91.9043 302.702 92.4922 303.816 92.4785C304.958 92.4922 305.758 91.9043 305.758 91.0156C305.758 90.1201 304.958 89.5186 303.816 89.5254C302.702 89.5186 301.902 90.1201 301.916 91.0156ZM308.697 100.162V87.9258H309.982V100.162H308.697ZM322.109 87.9121V95.3359H320.811V92.6699H318.896V91.5898H320.811V87.9121H322.109ZM311.91 90.168V89.1289H314.863V87.8027H316.148V89.1289H319.088V90.168H311.91ZM312.621 92.916C312.621 91.6309 313.824 90.7285 315.506 90.7285C317.188 90.7285 318.377 91.6309 318.377 92.916C318.377 94.2354 317.188 95.1104 315.506 95.1172C313.824 95.1104 312.621 94.2354 312.621 92.916ZM313.865 92.916C313.865 93.6611 314.528 94.126 315.506 94.1328C316.47 94.126 317.133 93.6611 317.133 92.916C317.133 92.1982 316.47 91.7197 315.506 91.7266C314.528 91.7197 313.865 92.1982 313.865 92.916ZM314.029 100.012V95.9375H322.109V100.012H314.029ZM315.314 98.959H320.838V96.9629H315.314V98.959ZM334.141 87.9121V100.189H332.842V87.9121H334.141ZM324.42 93.1211C324.42 90.5029 325.739 88.835 327.592 88.8281C329.41 88.835 330.75 90.5029 330.75 93.1211C330.75 95.7666 329.41 97.4346 327.592 97.4277C325.739 97.4346 324.42 95.7666 324.42 93.1211ZM325.678 93.1211C325.671 95.0693 326.45 96.2656 327.592 96.2656C328.713 96.2656 329.492 95.0693 329.492 93.1211C329.492 91.2002 328.713 89.9971 327.592 89.9902C326.45 89.9971 325.671 91.2002 325.678 93.1211ZM343.766 96.0059C343.766 97.0586 344.285 98.1729 345.399 98.8359C346.521 98.1182 347.074 96.9492 347.074 96.0059V95.418H348.346V96.0059C348.339 97.2773 349.18 98.5078 350.779 99.0273L350.137 99.9844C348.927 99.5674 348.1 98.7471 347.676 97.749C347.286 98.7334 346.555 99.6289 345.434 100.094C344.258 99.6494 343.513 98.7812 343.137 97.7832C342.692 98.7471 341.886 99.5605 340.73 99.9844L340.074 99.0273C341.646 98.4668 342.501 97.1885 342.508 96.0059V95.418H343.766V96.0059ZM339.76 91.4941C339.767 89.7783 341.147 88.6025 343.027 88.5957C344.9 88.6025 346.281 89.7783 346.281 91.4941C346.281 93.1895 344.9 94.3652 343.027 94.3652C341.147 94.3652 339.767 93.1895 339.76 91.4941ZM341.031 91.4941C341.024 92.5605 341.865 93.2852 343.027 93.2852C344.176 93.2852 345.01 92.5605 345.01 91.4941C345.01 90.4209 344.176 89.6963 343.027 89.7031C341.865 89.6963 341.024 90.4209 341.031 91.4941ZM348.373 94.8984V87.9258H349.672V94.8984H348.373ZM41.0293 109.117C43.791 109.11 45.3975 109.855 45.4043 111.223C45.3975 112.597 43.791 113.342 41.0293 113.342C38.2676 113.342 36.6475 112.597 36.6543 111.223C36.6475 109.855 38.2676 109.11 41.0293 109.117ZM35.4512 115.133V114.094H46.6211V115.133H35.4512ZM36.791 117.047V116.076H45.2129V118.947H38.0762V120.041H45.5547V121.039H36.8047V118.004H43.9277V117.047H36.791ZM38.0078 111.223C38.001 111.981 39.0811 112.371 41.0293 112.371C42.9912 112.371 44.0713 111.981 44.0645 111.223C44.0713 110.498 42.9912 110.074 41.0293 110.074C39.0811 110.074 38.001 110.498 38.0078 111.223ZM57.2441 109.992C57.2373 111.619 59.2266 113.144 61.6328 113.465L61.127 114.531C59.124 114.21 57.3672 113.171 56.5674 111.729C55.7676 113.171 54.0107 114.21 52.0215 114.531L51.502 113.465C53.9014 113.144 55.8838 111.64 55.8906 109.992V109.322H57.2441V109.992ZM50.9688 116.801V115.734H62.1387V116.801H57.1621V121.162H55.8906V116.801H50.9688ZM70.7383 117.006C70.7383 118.059 71.2578 119.173 72.3721 119.836C73.4932 119.118 74.0469 117.949 74.0469 117.006V116.418H75.3184V117.006C75.3115 118.277 76.1523 119.508 77.752 120.027L77.1094 120.984C75.8994 120.567 75.0723 119.747 74.6484 118.749C74.2588 119.733 73.5273 120.629 72.4062 121.094C71.2305 120.649 70.4854 119.781 70.1094 118.783C69.665 119.747 68.8584 120.561 67.7031 120.984L67.0469 120.027C68.6191 119.467 69.4736 118.188 69.4805 117.006V116.418H70.7383V117.006ZM66.7324 112.494C66.7393 110.778 68.1201 109.603 70 109.596C71.873 109.603 73.2539 110.778 73.2539 112.494C73.2539 114.189 71.873 115.365 70 115.365C68.1201 115.365 66.7393 114.189 66.7324 112.494ZM68.0039 112.494C67.9971 113.561 68.8379 114.285 70 114.285C71.1484 114.285 71.9824 113.561 71.9824 112.494C71.9824 111.421 71.1484 110.696 70 110.703C68.8379 110.696 67.9971 111.421 68.0039 112.494ZM75.3457 115.898V108.926H76.6445V115.898H75.3457ZM81.9082 109.828C83.5762 109.835 84.7861 111.243 84.9844 113.506H87.5137V108.912H88.7988V121.189H87.5137V114.559H84.998C84.8545 116.951 83.6172 118.435 81.9082 118.428C80.083 118.435 78.791 116.767 78.8047 114.121C78.791 111.503 80.083 109.835 81.9082 109.828ZM80.0352 114.121C80.042 116.069 80.8008 117.266 81.9082 117.266C83.0156 117.266 83.7744 116.069 83.7812 114.121C83.7744 112.2 83.0156 110.997 81.9082 110.99C80.8008 110.997 80.042 112.2 80.0352 114.121ZM105.273 115.816V116.869H100.297V121.148H99.0254V116.869H94.1035V115.816H105.273ZM94.7324 113.861C97.0156 113.547 98.916 112.187 98.957 110.676H95.1426V109.637H104.221V110.676H100.434C100.454 112.187 102.341 113.547 104.658 113.861L104.18 114.887C102.17 114.572 100.434 113.581 99.6885 112.187C98.9365 113.581 97.207 114.572 95.2246 114.887L94.7324 113.861ZM110.195 109.787C112.13 109.78 113.524 110.977 113.531 112.699C113.524 114.422 112.13 115.618 110.195 115.625C108.268 115.618 106.853 114.422 106.859 112.699C106.853 110.977 108.268 109.78 110.195 109.787ZM106.271 117.471C108.5 117.471 111.59 117.45 114.27 117.061L114.365 118.004C111.597 118.537 108.623 118.551 106.436 118.551L106.271 117.471ZM108.145 112.699C108.131 113.786 109.006 114.49 110.195 114.49C111.385 114.49 112.26 113.786 112.26 112.699C112.26 111.626 111.385 110.908 110.195 110.908C109.006 110.908 108.131 111.626 108.145 112.699ZM115.035 121.189V108.912H116.334V121.189H115.035ZM127.846 108.912V113.793H129.746V114.873H127.846V121.148H126.547V108.912H127.846ZM118.316 117.881C121.386 116.35 123.054 114.135 123.32 111.277H118.932V110.197H124.646C124.633 113.738 123.074 116.903 119.041 118.893L118.316 117.881ZM144.006 108.912V115.242H142.693V108.912H144.006ZM134.025 113.834C134.49 113.834 134.996 113.827 135.516 113.82V110.744H134.354V109.719H141.012V110.744H139.836V113.643C140.431 113.602 141.019 113.547 141.572 113.479L141.627 114.422C139.18 114.791 136.329 114.88 134.176 114.873L134.025 113.834ZM135.871 116.828V115.803H144.006V118.838H137.184V120H144.43V121.039H135.912V117.895H142.721V116.828H135.871ZM136.76 113.793C137.361 113.772 137.977 113.752 138.592 113.718V110.744H136.76V113.793ZM157.131 118.551V119.631H145.92V118.551H148.6V115.352C147.595 114.798 146.979 113.923 146.986 112.822C146.979 110.895 148.873 109.63 151.498 109.623C154.13 109.63 156.023 110.895 156.023 112.822C156.023 113.902 155.436 114.771 154.451 115.324V118.551H157.131ZM148.244 112.822C148.244 114.135 149.577 114.989 151.498 114.996C153.405 114.989 154.759 114.135 154.766 112.822C154.759 111.503 153.405 110.662 151.498 110.662C149.577 110.662 148.244 111.503 148.244 112.822ZM149.885 118.551H153.139V115.83C152.64 115.946 152.086 116.008 151.498 116.008C150.924 116.008 150.377 115.946 149.885 115.83V118.551ZM167.645 108.912V111.988H169.422V113.082H167.645V116.049H166.346V108.912H167.645ZM158.033 111.154V110.115H161.041V108.803H162.34V110.115H165.334V111.154H158.033ZM158.703 113.807C158.696 112.501 159.899 111.653 161.684 111.66C163.447 111.653 164.65 112.501 164.65 113.807C164.65 115.112 163.447 115.967 161.684 115.953C159.899 115.967 158.696 115.112 158.703 113.807ZM159.811 121.012V116.555H161.096V117.744H166.346V116.555H167.645V121.012H159.811ZM159.961 113.807C159.947 114.538 160.645 114.989 161.684 114.996C162.723 114.989 163.42 114.538 163.434 113.807C163.42 113.089 162.723 112.624 161.684 112.631C160.645 112.624 159.947 113.089 159.961 113.807ZM161.096 119.973H166.346V118.756H161.096V119.973ZM180.291 108.912V121.162H178.992V108.912H180.291ZM170.871 118.045V110.102H172.156V116.924C173.947 116.917 175.827 116.76 177.789 116.363L177.967 117.457C175.8 117.901 173.831 118.052 171.896 118.045H170.871ZM191.762 108.912V113.656H193.73V114.723H191.762V121.189H190.463V108.912H191.762ZM182.738 118.141V110.088H188.467V111.141H184.037V117.061C186.095 117.054 187.633 116.965 189.383 116.65L189.547 117.744C187.626 118.086 185.999 118.147 183.723 118.141H182.738ZM195.713 120.096C195.18 120.089 194.735 119.658 194.742 119.125C194.735 118.592 195.18 118.154 195.713 118.154C196.239 118.154 196.677 118.592 196.684 119.125C196.677 119.658 196.239 120.089 195.713 120.096Z" fill="#555555"/>
<defs>
<filter id="filter0_d_228_1697" x="0" y="0" width="391" height="157" filterUnits="userSpaceOnUse" color-interpolation-filters="sRGB">
<feFlood flood-opacity="0" result="BackgroundImageFix"/>
<feColorMatrix in="SourceAlpha" type="matrix" values="0 0 0 0 0 0 0 0 0 0 0 0 0 0 0 0 0 0 127 0" result="hardAlpha"/>
<feOffset/>
<feGaussianBlur stdDeviation="7.5"/>
<feComposite in2="hardAlpha" operator="out"/>
<feColorMatrix type="matrix" values="0 0 0 0 0 0 0 0 0 0 0 0 0 0 0 0 0 0 0.1 0"/>
<feBlend mode="normal" in2="BackgroundImageFix" result="effect1_dropShadow_228_1697"/>
<feBlend mode="normal" in="SourceGraphic" in2="effect1_dropShadow_228_1697" result="shape"/>
</filter>
</defs>
</svg>
