<svg width="391" height="157" viewBox="0 0 391 157" fill="none" xmlns="http://www.w3.org/2000/svg">
<g filter="url(#filter0_d_228_1715)">
<rect x="15" y="15" width="361" height="127" rx="15" fill="#5C7DF2"/>
</g>
<rect x="19" y="15" width="357" height="127" rx="15" fill="white"/>
<path d="M35 50.12H51V34.12H35V50.12ZM68.125 47.1406V48.7812H55.1094V47.1406H60.5938V44.2344H56.4844V37.2656H66.6719V44.2344H62.5781V47.1406H68.125ZM58.4531 42.6719H64.7031V38.8594H58.4531V42.6719ZM81.9531 47.1719V48.7812H68.9375V47.1719H74.4375V44H76.4375V47.1719H81.9531ZM69.4688 43.0469C72.4219 42.5703 74.1875 40.7891 74.3594 38.9062H70.0156V37.2969H80.8125V38.9062H76.4844C76.6406 40.7812 78.4219 42.5234 81.4688 42.9688L80.6875 44.5469C78.1953 44.1094 76.3516 42.8984 75.4297 41.2109C74.5312 42.9219 72.7031 44.1797 70.25 44.625L69.4688 43.0469ZM95.7344 42.875V44.4531H90.2344V45.6719H94.1875V50.2812H84.2656V45.6719H88.25V44.4531H82.7656V42.875H95.7344ZM83.9062 38.2031V36.6094H94.5781V38.2031H92.7188V40.375H94.4844V41.9688H84V40.375H85.75V38.2031H83.9062ZM86.2344 48.6875H92.2344V47.2188H86.2344V48.6875ZM87.75 40.375H90.7188V38.2031H87.75V40.375ZM111.734 37.0469V38.3281C111.727 39.6562 111.727 41.1016 111.367 43.0938H113.25V44.7031H107.703V50.4531H105.703V44.7031H100.281V43.0938H109.344C109.711 41.2656 109.742 39.8672 109.75 38.6406H101.766V37.0469H111.734ZM126.094 36.2188V43.5312H124.109V42.1094H121.484V43.125H114.719V36.8281H116.719V38.4844H119.516V36.8281H121.484V38.0312H124.109V36.2188H126.094ZM116.625 45.5938V44.0625H126.094V47.8594H118.641V48.7188H126.516V50.2812H116.641V46.4062H124.109V45.5938H116.625ZM116.719 41.5625H119.516V40H116.719V41.5625ZM121.484 40.6094H124.109V39.5156H121.484V40.6094ZM130.547 36.9375V38.7656H133.344V36.9375H135.312V39.4688H137.938V36.2188H139.922V44H137.938V41.0938H135.312V43.5938H128.547V36.9375H130.547ZM130.438 50.25V44.5938H132.406V45.9062H137.938V44.5938H139.922V50.25H130.438ZM130.547 42H133.344V40.2969H130.547V42ZM132.406 48.6562H137.938V47.4375H132.406V48.6562Z" fill="#5C7DF2"/>
<path d="M45.6641 66.9121V74.1992H44.3652V71.0957H42.082V70.0293H44.3652V66.9121H45.6641ZM35.4512 73.0918C37.3516 72.4287 38.5205 70.7744 38.5137 69.0859V68.8125H35.8613V67.7598H42.4648V68.8125H39.8398V69.0723C39.833 70.624 40.9404 72.1348 42.793 72.7637L42.123 73.7891C40.749 73.3174 39.7373 72.333 39.2041 71.123C38.6709 72.4902 37.5977 73.5908 36.1348 74.1309L35.4512 73.0918ZM37.4199 76.8516C37.4131 75.3955 38.9854 74.5479 41.5625 74.541C44.126 74.5479 45.6982 75.3955 45.7051 76.8516C45.6982 78.3076 44.126 79.1553 41.5625 79.1621C38.9854 79.1553 37.4131 78.3076 37.4199 76.8516ZM38.7051 76.8516C38.6982 77.6787 39.7646 78.1504 41.5625 78.1367C43.3467 78.1504 44.4131 77.6787 44.4199 76.8516C44.4131 76.0176 43.3467 75.5459 41.5625 75.5527C39.7646 75.5459 38.6982 76.0176 38.7051 76.8516ZM58.7207 72.7773V73.8164H53.7715V75.1289H57.3535V79.0117H48.8906V75.1289H52.4863V73.8164H47.5508V72.7773H58.7207ZM48.5762 68.3477V67.2949H57.668V68.3477H55.8906V70.6855H57.6133V71.7383H48.6309V70.6855H50.3672V68.3477H48.5762ZM50.1758 77.959H56.0957V76.1543H50.1758V77.959ZM51.6523 70.6855H54.5918V68.3477H51.6523V70.6855ZM70.8613 76.5645V77.6445H59.6504V76.5645H64.5859V74.0488H60.9355V67.7461H62.2344V69.8516H68.25V67.7461H69.5352V74.0488H65.8711V76.5645H70.8613ZM62.2344 72.9961H68.25V70.9043H62.2344V72.9961ZM81.293 66.9121V71.6562H83.2617V72.7227H81.293V79.1895H79.9941V66.9121H81.293ZM72.2695 76.1406V68.0879H77.998V69.1406H73.5684V75.0605C75.626 75.0537 77.1641 74.9648 78.9141 74.6504L79.0781 75.7441C77.1572 76.0859 75.5303 76.1475 73.2539 76.1406H72.2695ZM97.4805 66.9258V76.2637H96.1816V73.7344H94.2129V72.6953H96.1816V71.1777H94.2129V70.1113H96.1816V66.9258H97.4805ZM87.2812 69.4004V68.3477H90.1523V66.9121H91.4375V68.3477H94.1719V69.4004H87.2812ZM87.9648 72.3398C87.9648 70.9385 89.127 69.9814 90.7812 69.9883C92.4287 69.9814 93.6045 70.9385 93.6113 72.3398C93.6045 73.748 92.4287 74.7051 90.7812 74.7051C89.127 74.7051 87.9648 73.748 87.9648 72.3398ZM89.1816 72.3398C89.1748 73.1738 89.8311 73.6934 90.7812 73.6934C91.7178 73.6934 92.3809 73.1738 92.3945 72.3398C92.3809 71.5332 91.7178 71.0137 90.7812 71C89.8311 71.0137 89.1748 71.5332 89.1816 72.3398ZM89.4824 78.9023V75.4434H90.7949V77.8496H97.7539V78.9023H89.4824ZM109.594 66.9121V79.1895H108.295V72.3809H105.766V71.3145H108.295V66.9121H109.594ZM99.2305 75.7715C101.104 74.876 102.423 72.5586 102.43 70.3574V69.209H99.7227V68.1426H106.463V69.209H103.742V70.3574C103.742 72.4287 105.048 74.6641 106.928 75.498L106.148 76.5371C104.733 75.8535 103.646 74.4248 103.1 72.7568C102.553 74.5342 101.438 76.0586 100.023 76.7832L99.2305 75.7715ZM121.611 66.9121V79.1621H120.312V66.9121H121.611ZM111.74 69.9062V68.8535H114.762V67.0352H116.074V68.8535H119.123V69.9062H111.74ZM112.369 73.6387C112.362 71.9707 113.661 70.7949 115.445 70.7949C117.229 70.7949 118.528 71.9707 118.535 73.6387C118.528 75.3203 117.229 76.4893 115.445 76.4961C113.661 76.4893 112.362 75.3203 112.369 73.6387ZM113.6 73.6387C113.6 74.7051 114.372 75.416 115.445 75.4023C116.519 75.416 117.291 74.7051 117.291 73.6387C117.291 72.5928 116.519 71.8682 115.445 71.8613C114.372 71.8682 113.6 72.5928 113.6 73.6387ZM137.211 66.9121V79.1895H135.912V72.3809H133.383V71.3145H135.912V66.9121H137.211ZM126.848 75.7715C128.721 74.876 130.04 72.5586 130.047 70.3574V69.209H127.34V68.1426H134.08V69.209H131.359V70.3574C131.359 72.4287 132.665 74.6641 134.545 75.498L133.766 76.5371C132.351 75.8535 131.264 74.4248 130.717 72.7568C130.17 74.5342 129.056 76.0586 127.641 76.7832L126.848 75.7715ZM149.297 74.7324V78.998H141.162V74.7324H149.297ZM139.576 68.5938V67.5273H144.922V71.0273H140.875V72.6406C143.076 72.6338 144.197 72.5928 145.564 72.3809L145.674 73.4199C144.184 73.6729 142.967 73.7002 140.479 73.6934H139.59V70.043H143.623V68.5938H139.576ZM142.447 77.959H148.012V75.7578H142.447V77.959ZM145.701 72.1211V71.0684H147.998V69.6328H145.701V68.5664H147.998V66.9258H149.297V74.1172H147.998V72.1211H145.701ZM160.809 66.9258V70.8633H162.586V71.9434H160.809V76.0859H159.51V66.9258H160.809ZM151.197 69.4004V68.3477H154.205V66.9121H155.504V68.3477H158.498V69.4004H151.197ZM151.867 72.2988C151.86 70.8975 153.07 69.9814 154.848 69.9883C156.604 69.9814 157.814 70.8975 157.814 72.2988C157.814 73.6865 156.604 74.5889 154.848 74.5957C153.07 74.5889 151.86 73.6865 151.867 72.2988ZM153.043 78.9023V75.3613H154.342V77.8496H161.328V78.9023H153.043ZM153.125 72.2988C153.111 73.0986 153.809 73.5908 154.848 73.584C155.887 73.5908 156.584 73.0986 156.598 72.2988C156.584 71.4922 155.887 70.9932 154.848 70.9863C153.809 70.9932 153.111 71.4922 153.125 72.2988ZM176.244 66.9121V71.793H178.145V72.873H176.244V79.1484H174.945V66.9121H176.244ZM166.715 75.8809C169.784 74.3496 171.452 72.1348 171.719 69.2773H167.33V68.1973H173.045C173.031 71.7383 171.473 74.9033 167.439 76.8926L166.715 75.8809ZM185.295 67.7188C185.295 68.1836 185.247 68.6211 185.158 69.0449H187.715V66.9258H189.014V74.2129H187.715V72.6816H184.625V71.6289H187.715V70.084H184.83C184.003 72.0049 182.116 73.3789 179.471 74.0898L178.979 73.0645C181.891 72.2783 183.661 70.7197 183.9 68.7715H179.621V67.7188H185.295ZM180.715 75.7715V74.7461H189.014V79.1348H187.715V75.7715H180.715ZM193.102 77.0566L192.008 80.8301H190.846L191.57 77.0566H193.102ZM209.111 76.5098V77.5762H197.9V76.5098H209.111ZM199.186 74.1855V67.7598H200.484V69.9609H206.5V67.7598H207.785V74.1855H199.186ZM200.484 73.1602H206.5V70.9863H200.484V73.1602ZM220.445 66.9258V76.0312H219.215V71.5879H217.711V75.7031H216.494V67.1445H217.711V70.5215H219.215V66.9258H220.445ZM210.52 68.9902V67.9512H215.168V71.5469H211.805V73.2012C213.322 73.1943 214.478 73.1191 215.824 72.8594L215.961 73.8984C214.416 74.1855 213.145 74.2471 211.354 74.2402H210.547V70.5625H213.924V68.9902H210.52ZM212.324 78.9023V75.1836H213.609V77.8496H220.801V78.9023H212.324ZM232.025 72.7227V73.7891H223.494V68.0059H231.916V69.0723H224.779V72.7227H232.025ZM222.1 77.5488V76.4688H233.311V77.5488H222.1ZM248.828 76.6055V77.6992H237.617V76.6055H242.553V74.459H238.984V70.5625H246.176V68.8398H238.957V67.7734H247.461V71.6016H240.27V73.3926H247.748V74.459H243.838V76.6055H248.828ZM259.629 68.0879V69.291C259.622 70.8018 259.622 72.4971 259.164 75.0059L257.852 74.8691C258.323 72.4971 258.323 70.7607 258.33 69.291V69.1406H250.893V68.0879H259.629ZM249.717 77.5078V76.4277H253.969V72.1074H255.254V76.4277H260.887V77.5078H249.717ZM270.812 67.6504C273.431 67.6572 275.338 68.9492 275.338 70.9043C275.338 72.7363 273.738 73.96 271.455 74.1445V76.5508H276.445V77.6309H265.234V76.5508H270.17V74.1445C267.9 73.96 266.294 72.7363 266.301 70.9043C266.294 68.9492 268.208 67.6572 270.812 67.6504ZM267.559 70.9043C267.559 72.2783 268.926 73.1328 270.812 73.1465C272.713 73.1328 274.073 72.2783 274.08 70.9043C274.073 69.5781 272.713 68.7031 270.812 68.7168C268.926 68.7031 267.559 69.5781 267.559 70.9043ZM283.623 67.9922V69.0586H279.166V71.4238H283.377V72.4629H279.166V75.2109C281.21 75.1973 282.728 75.1221 284.498 74.8281L284.621 75.8809C282.728 76.1953 281.101 76.2568 278.838 76.2637H277.854V67.9922H283.623ZM285.578 79.1621V66.9121H286.877V71.7383H288.846V72.832H286.877V79.1621H285.578ZM300.877 71.7246V72.791H298.977V79.1484H297.678V66.9121H298.977V71.7246H300.877ZM289.898 76.0723V68.1016H291.184V74.9922C292.893 74.9854 294.677 74.8418 296.625 74.4453L296.775 75.5391C294.677 75.9561 292.749 76.0791 290.91 76.0723H289.898ZM315.096 66.9121V79.1895H313.797V66.9121H315.096ZM305.375 72.1211C305.375 69.5029 306.694 67.835 308.547 67.8281C310.365 67.835 311.705 69.5029 311.705 72.1211C311.705 74.7666 310.365 76.4346 308.547 76.4277C306.694 76.4346 305.375 74.7666 305.375 72.1211ZM306.633 72.1211C306.626 74.0693 307.405 75.2656 308.547 75.2656C309.668 75.2656 310.447 74.0693 310.447 72.1211C310.447 70.2002 309.668 68.9971 308.547 68.9902C307.405 68.9971 306.626 70.2002 306.633 72.1211ZM321.275 68.8672C321.269 70.4736 322.403 71.9707 324.229 72.5723L323.531 73.5977C322.191 73.126 321.187 72.1689 320.653 70.959C320.12 72.333 319.081 73.4131 317.652 73.9395L316.955 72.9004C318.869 72.2236 319.977 70.5898 319.99 68.7578V67.5547H321.275V68.8672ZM318.609 76.8652C318.609 75.4297 320.175 74.5889 322.725 74.5957C325.24 74.5889 326.785 75.4297 326.785 76.8652C326.785 78.3145 325.24 79.1416 322.725 79.1348C320.175 79.1416 318.609 78.3145 318.609 76.8652ZM319.908 76.8652C319.901 77.6719 320.954 78.1094 322.725 78.123C324.481 78.1094 325.521 77.6719 325.514 76.8652C325.521 76.0859 324.481 75.6211 322.725 75.6211C320.954 75.6211 319.901 76.0859 319.908 76.8652ZM325.377 74.3086V66.9121H326.676V69.9883H328.453V71.082H326.676V74.3086H325.377ZM338.775 66.9121V70.084H340.553V71.1914H338.775V74.2949H337.477V66.9121H338.775ZM329.164 69.1953V68.1562H332.172V66.8164H333.471V68.1562H336.465V69.1953H329.164ZM329.834 71.916C329.827 70.6104 331.03 69.7285 332.814 69.7285C334.585 69.7285 335.781 70.6104 335.781 71.916C335.781 73.2422 334.578 74.1104 332.814 74.1172C331.03 74.1104 329.827 73.2422 329.834 71.916ZM330.955 79.0117V74.9375H338.775V79.0117H330.955ZM331.092 71.916C331.078 72.6748 331.775 73.126 332.814 73.1328C333.854 73.126 334.551 72.6748 334.564 71.916C334.551 71.1846 333.854 70.7197 332.814 70.7266C331.775 70.7197 331.078 71.1846 331.092 71.916ZM332.227 77.959H337.49V75.9629H332.227V77.959ZM343.451 77.0566L342.357 80.8301H341.195L341.92 77.0566H343.451ZM46.6621 97.5918V98.6992H35.4512V97.5918H40.373V94.9805H36.4355V93.9551H38.2676V90.0996H36.4082V89.0469H45.6367V90.0996H43.7637V93.9551H45.5957V94.9805H41.6582V97.5918H46.6621ZM39.5527 93.9551H42.4922V90.0996H39.5527V93.9551ZM51.8301 90.168C51.8232 91.7266 52.9102 93.1484 54.7695 93.7363L54.1543 94.748C52.7598 94.3037 51.7412 93.3809 51.2012 92.2188C50.668 93.5586 49.5947 94.6182 48.125 95.1309L47.4551 94.0918C49.3691 93.4629 50.5244 91.8838 50.5312 90.1816V89.8398H47.8379V88.7871H54.4688V89.8398H51.8301V90.168ZM49.1094 97.8379C49.1094 96.4023 50.6748 95.5615 53.2246 95.5684C55.7471 95.5615 57.2852 96.4023 57.2852 97.8379C57.2852 99.2939 55.7471 100.142 53.2246 100.135C50.6748 100.142 49.1094 99.2939 49.1094 97.8379ZM50.4082 97.8379C50.4014 98.6582 51.4541 99.1162 53.2246 99.1094C54.9814 99.1162 56.0205 98.6582 56.0137 97.8379C56.0205 97.0381 54.9814 96.5869 53.2246 96.5938C51.4541 96.5869 50.4014 97.0381 50.4082 97.8379ZM55.877 95.2676V87.9121H57.1758V90.9473H58.9531V92.0137H57.1758V95.2676H55.877ZM70.2324 87.9121V100.162H68.9883V93.873H67.5254V99.5605H66.2949V88.1445H67.5254V92.7793H68.9883V87.9121H70.2324ZM59.4863 96.7031C61.2773 95.6982 62.1113 93.5859 62.1113 91.1523V90.3594H59.8145V89.3066H65.502V90.3594H63.3691V91.1523C63.3691 93.3535 64.1963 95.3496 65.9805 96.2656L65.2148 97.2637C64.0117 96.6074 63.2051 95.4658 62.7676 94.0576C62.3506 95.6641 61.5439 96.9492 60.293 97.6875L59.4863 96.7031ZM86.3379 93.7773V94.8164H81.3887V96.1289H84.9707V100.012H76.5078V96.1289H80.1035V94.8164H75.168V93.7773H86.3379ZM76.1934 89.3477V88.2949H85.2852V89.3477H83.5078V91.6855H85.2305V92.7383H76.248V91.6855H77.9844V89.3477H76.1934ZM77.793 98.959H83.7129V97.1543H77.793V98.959ZM79.2695 91.6855H82.209V89.3477H79.2695V91.6855ZM97.4121 87.9121V94.2422H96.127V87.9121H97.4121ZM87.4043 93.2715C89.3047 92.6836 90.4873 91.207 90.4941 89.6211H87.7461V88.5684H94.5V89.6211H91.8066C91.8066 91.1182 92.9756 92.499 94.8828 93.0391L94.2539 94.0371C92.8047 93.6064 91.7246 92.6836 91.1709 91.5078C90.6309 92.8066 89.5098 93.8252 88.0059 94.2969L87.4043 93.2715ZM89.373 95.8008V94.8027H97.4258V97.8379H90.6719V99.0273H97.8359V100.039H89.4141V96.8945H96.1406V95.8008H89.373ZM113.012 87.9121V100.189H111.713V93.3809H109.184V92.3145H111.713V87.9121H113.012ZM102.648 96.7715C104.521 95.876 105.841 93.5586 105.848 91.3574V90.209H103.141V89.1426H109.881V90.209H107.16V91.3574C107.16 93.4287 108.466 95.6641 110.346 96.498L109.566 97.5371C108.151 96.8535 107.064 95.4248 106.518 93.7568C105.971 95.5342 104.856 97.0586 103.441 97.7832L102.648 96.7715ZM124.428 87.9121V92.875H126.396V93.9551H124.428V100.162H123.143V87.9121H124.428ZM114.816 90.8926V89.8262H117.838V88.0762H119.137V89.8262H122.076V90.8926H114.816ZM115.445 94.6387C115.445 92.9707 116.73 91.7949 118.494 91.7949C120.251 91.7949 121.536 92.9707 121.543 94.6387C121.536 96.3203 120.251 97.4893 118.494 97.4961C116.73 97.4893 115.445 96.3203 115.445 94.6387ZM116.689 94.6387C116.683 95.7051 117.448 96.416 118.494 96.4023C119.533 96.416 120.292 95.7051 120.299 94.6387C120.292 93.5928 119.533 92.8682 118.494 92.8613C117.448 92.8682 116.683 93.5928 116.689 94.6387ZM129.186 98.0566L128.092 101.83H126.93L127.654 98.0566H129.186ZM144.197 87.9121V95.1992H142.898V92.0957H140.615V91.0293H142.898V87.9121H144.197ZM133.984 94.0918C135.885 93.4287 137.054 91.7744 137.047 90.0859V89.8125H134.395V88.7598H140.998V89.8125H138.373V90.0723C138.366 91.624 139.474 93.1348 141.326 93.7637L140.656 94.7891C139.282 94.3174 138.271 93.333 137.737 92.123C137.204 93.4902 136.131 94.5908 134.668 95.1309L133.984 94.0918ZM135.953 97.8516C135.946 96.3955 137.519 95.5479 140.096 95.541C142.659 95.5479 144.231 96.3955 144.238 97.8516C144.231 99.3076 142.659 100.155 140.096 100.162C137.519 100.155 135.946 99.3076 135.953 97.8516ZM137.238 97.8516C137.231 98.6787 138.298 99.1504 140.096 99.1367C141.88 99.1504 142.946 98.6787 142.953 97.8516C142.946 97.0176 141.88 96.5459 140.096 96.5527C138.298 96.5459 137.231 97.0176 137.238 97.8516ZM150.541 89.6758C150.534 91.3711 151.683 92.9229 153.576 93.5449L152.92 94.5703C151.498 94.0781 150.438 93.0801 149.885 91.8018C149.338 93.1689 148.258 94.2559 146.809 94.7754L146.152 93.7637C148.06 93.0869 149.208 91.4258 149.215 89.6758V88.5H150.541V89.6758ZM147.943 96.9082V95.8555H156.242V100.162H154.943V96.9082H147.943ZM154.943 95.2676V87.9121H156.242V95.2676H154.943ZM172.812 97.5645V98.6445H161.602V97.5645H166.537V95.0488H162.887V88.7461H164.186V90.8516H170.201V88.7461H171.486V95.0488H167.822V97.5645H172.812ZM164.186 93.9961H170.201V91.9043H164.186V93.9961ZM184.871 93.6816V94.7344H173.701V93.6816H184.871ZM174.289 92.0137C176.511 91.7744 178.268 90.7764 178.411 89.5801H174.727V88.5137H183.873V89.5801H180.147C180.298 90.7695 182.027 91.7744 184.297 92.0137L183.832 93.0391C181.706 92.793 179.949 91.8975 179.286 90.6055C178.609 91.8975 176.866 92.793 174.74 93.0391L174.289 92.0137ZM175.027 97.9199C175.027 96.498 176.62 95.6777 179.279 95.6777C181.918 95.6777 183.497 96.498 183.504 97.9199C183.497 99.3418 181.918 100.142 179.279 100.135C176.62 100.142 175.027 99.3418 175.027 97.9199ZM176.34 97.9199C176.333 98.6924 177.406 99.1162 179.279 99.1094C181.125 99.1162 182.205 98.6924 182.205 97.9199C182.205 97.127 181.125 96.7031 179.279 96.6895C177.406 96.7031 176.333 97.127 176.34 97.9199ZM190.217 91.0293C190.217 93.2715 191.475 95.5068 193.348 96.3477L192.555 97.3867C191.167 96.6895 190.114 95.3086 189.574 93.6338C189.034 95.3975 187.968 96.8877 186.553 97.6191L185.732 96.5664C187.633 95.6572 188.897 93.2988 188.904 91.0293V88.9375H190.217V91.0293ZM191.994 93.0391V91.9863H194.729V87.9121H196.014V100.189H194.729V93.0391H191.994ZM212.516 95.1172V96.1426H207.512V100.162H206.24V96.1426H201.305V95.1172H212.516ZM202.699 93.7227V88.4043H203.984V90.0039H209.809V88.4043H211.107V93.7227H202.699ZM203.984 92.6836H209.809V91.043H203.984V92.6836ZM224 87.9121V100.162H222.756V93.873H221.293V99.5605H220.062V88.1445H221.293V92.7793H222.756V87.9121H224ZM213.254 96.7031C215.045 95.6982 215.879 93.5859 215.879 91.1523V90.3594H213.582V89.3066H219.27V90.3594H217.137V91.1523C217.137 93.3535 217.964 95.3496 219.748 96.2656L218.982 97.2637C217.779 96.6074 216.973 95.4658 216.535 94.0576C216.118 95.6641 215.312 96.9492 214.061 97.6875L213.254 96.7031ZM240.119 93.668V94.7344H228.936V93.668H240.119ZM230.262 97.9199C230.262 96.498 231.854 95.6914 234.514 95.6914C237.152 95.6914 238.731 96.498 238.738 97.9199C238.731 99.3418 237.152 100.142 234.514 100.135C231.854 100.142 230.262 99.3418 230.262 97.9199ZM230.33 92.6016V88.3496H238.738V89.416H231.615V91.5488H238.82V92.6016H230.33ZM231.574 97.9199C231.567 98.7061 232.641 99.1299 234.514 99.1367C236.359 99.1299 237.439 98.7061 237.439 97.9199C237.439 97.1406 236.359 96.7031 234.514 96.6895C232.641 96.7031 231.567 97.1406 231.574 97.9199ZM251.18 87.9121V100.189H249.881V87.9121H251.18ZM241.459 93.1211C241.459 90.5029 242.778 88.835 244.631 88.8281C246.449 88.835 247.789 90.5029 247.789 93.1211C247.789 95.7666 246.449 97.4346 244.631 97.4277C242.778 97.4346 241.459 95.7666 241.459 93.1211ZM242.717 93.1211C242.71 95.0693 243.489 96.2656 244.631 96.2656C245.752 96.2656 246.531 95.0693 246.531 93.1211C246.531 91.2002 245.752 89.9971 244.631 89.9902C243.489 89.9971 242.71 91.2002 242.717 93.1211ZM267.764 97.5645V98.6445H256.553V97.5645H261.488V95.0488H257.838V88.7461H259.137V90.8516H265.152V88.7461H266.438V95.0488H262.773V97.5645H267.764ZM259.137 93.9961H265.152V91.9043H259.137V93.9961ZM278.797 87.9121V100.189H277.498V87.9121H278.797ZM269.076 93.1211C269.076 90.5029 270.396 88.835 272.248 88.8281C274.066 88.835 275.406 90.5029 275.406 93.1211C275.406 95.7666 274.066 97.4346 272.248 97.4277C270.396 97.4346 269.076 95.7666 269.076 93.1211ZM270.334 93.1211C270.327 95.0693 271.106 96.2656 272.248 96.2656C273.369 96.2656 274.148 95.0693 274.148 93.1211C274.148 91.2002 273.369 89.9971 272.248 89.9902C271.106 89.9971 270.327 91.2002 270.334 93.1211ZM287 88.9512V89.9902H289.666V87.9258H290.965V96.8535H289.666V93.6816H287V94.748H281.312V88.9512H287ZM282.598 93.7227H285.729V90.0039H282.598V93.7227ZM282.967 99.9023V96.0332H284.279V98.8496H291.238V99.9023H282.967ZM287 92.6152H289.666V91.0566H287V92.6152ZM310.898 97.5508V98.6309H299.688V97.5508H304.623V94.7207H300.973V88.8965H309.559V94.7207H305.908V97.5508H310.898ZM302.23 93.6953H308.287V89.9355H302.23V93.6953ZM322.998 97.5645V98.6309H311.787V97.5645H316.736V94.666H318.035V97.5645H322.998ZM312.307 94.1055C314.583 93.7227 316.695 92.0205 316.695 90.1406V90.0312H312.717V88.9648H322.027V90.0312H318.049V90.1406C318.049 92.0205 320.175 93.6885 322.506 94.0508L321.986 95.0762C320.004 94.707 318.179 93.5586 317.379 91.9453C316.593 93.5791 314.781 94.748 312.84 95.1309L312.307 94.1055ZM335.057 93.7773V94.8164H330.107V96.1289H333.689V100.012H325.227V96.1289H328.822V94.8164H323.887V93.7773H335.057ZM324.912 89.3477V88.2949H334.004V89.3477H332.227V91.6855H333.949V92.7383H324.967V91.6855H326.703V89.3477H324.912ZM326.512 98.959H332.432V97.1543H326.512V98.959ZM327.988 91.6855H330.928V89.3477H327.988V91.6855ZM339.459 88.3223C341.305 88.3359 342.665 89.4639 342.672 91.0703C342.665 92.6836 341.305 93.8047 339.459 93.8047C337.593 93.8047 336.239 92.6836 336.232 91.0703C336.239 89.4639 337.593 88.3359 339.459 88.3223ZM337.504 91.0703C337.497 92.082 338.331 92.752 339.459 92.752C340.58 92.752 341.414 92.082 341.414 91.0703C341.414 90.0723 340.58 89.4023 339.459 89.416C338.331 89.4023 337.497 90.0723 337.504 91.0703ZM338.092 95.7461V94.707H346.145V97.7969H339.391V98.9727H346.555V100.012H338.133V96.8262H344.859V95.7461H338.092ZM344.846 94.1465V87.9121H346.145V94.1465H344.846ZM44.9941 108.912V113.793H46.8945V114.873H44.9941V121.148H43.6953V108.912H44.9941ZM35.4648 117.881C38.5342 116.35 40.2021 114.135 40.4688 111.277H36.0801V110.197H41.7949C41.7812 113.738 40.2227 116.903 36.1895 118.893L35.4648 117.881ZM57.4492 112.221V113.273H49.041V109.131H50.3262V112.221H57.4492ZM47.5508 115.639V114.572H58.7344V115.639H47.5508ZM48.877 118.865C48.877 117.437 50.4697 116.63 53.1289 116.637C55.7676 116.63 57.3467 117.437 57.3535 118.865C57.3467 120.301 55.7676 121.107 53.1289 121.107C50.4697 121.107 48.877 120.301 48.877 118.865ZM50.1895 118.865C50.1826 119.651 51.2559 120.103 53.1289 120.109C54.9746 120.103 56.0547 119.651 56.0547 118.865C56.0547 118.072 54.9746 117.655 53.1289 117.648C51.2559 117.655 50.1826 118.072 50.1895 118.865ZM63.998 110.744C63.9912 112.46 65.1055 113.991 66.9648 114.6L66.2539 115.611C64.9072 115.119 63.916 114.176 63.3828 112.945C62.8564 114.347 61.79 115.447 60.3066 115.98L59.6094 114.941C61.5645 114.271 62.6992 112.638 62.7129 110.799V109.596H63.998V110.744ZM61.6191 118.824C61.6123 117.341 63.1846 116.479 65.7617 116.486C68.3252 116.479 69.8975 117.341 69.9043 118.824C69.8975 120.301 68.3252 121.142 65.7617 121.135C63.1846 121.142 61.6123 120.301 61.6191 118.824ZM62.9043 118.824C62.8975 119.638 63.9639 120.116 65.7617 120.109C67.5459 120.116 68.6123 119.638 68.6191 118.824C68.6123 117.983 67.5459 117.498 65.7617 117.498C63.9639 117.498 62.8975 117.983 62.9043 118.824ZM65.9805 112.467V111.4H68.5645V108.912H69.8633V116.145H68.5645V112.467H65.9805ZM81.8945 108.912V121.189H80.5957V108.912H81.8945ZM72.1738 114.121C72.1738 111.503 73.4932 109.835 75.3457 109.828C77.1641 109.835 78.5039 111.503 78.5039 114.121C78.5039 116.767 77.1641 118.435 75.3457 118.428C73.4932 118.435 72.1738 116.767 72.1738 114.121ZM73.4316 114.121C73.4248 116.069 74.2041 117.266 75.3457 117.266C76.4668 117.266 77.2461 116.069 77.2461 114.121C77.2461 112.2 76.4668 110.997 75.3457 110.99C74.2041 110.997 73.4248 112.2 73.4316 114.121ZM97.207 111.947V112.986H93.502V114.381H98.4375V115.434H87.2676V114.381H92.2031V112.986H88.7578V109.172H90.043V111.947H97.207ZM88.3887 121.012V119.959H90.3164V117.553H88.498V116.541H97.2207V117.553H95.4023V119.959H97.3301V121.012H88.3887ZM91.6016 119.959H94.1172V117.553H91.6016V119.959ZM104.945 109.65C107.516 109.65 109.471 111.011 109.471 113.068C109.471 115.14 107.516 116.493 104.945 116.486C102.382 116.493 100.427 115.14 100.434 113.068C100.427 111.011 102.382 109.65 104.945 109.65ZM99.3672 119.576V118.496H110.578V119.576H99.3672ZM101.678 113.068C101.671 114.497 103.065 115.42 104.945 115.42C106.818 115.42 108.206 114.497 108.213 113.068C108.206 111.646 106.818 110.696 104.945 110.703C103.065 110.696 101.671 111.646 101.678 113.068ZM121.639 108.912V121.162H120.34V108.912H121.639ZM112.219 118.045V110.102H113.504V116.924C115.295 116.917 117.175 116.76 119.137 116.363L119.314 117.457C117.147 117.901 115.179 118.052 113.244 118.045H112.219ZM136.732 109.678V110.758C136.732 111.92 136.732 113.185 136.391 114.928H138.154V115.994H133.191V121.176H131.879V115.994H126.984V114.928H135.078C135.44 113.178 135.44 111.899 135.447 110.758V110.744H128.352V109.678H136.732ZM149.625 108.912V121.162H148.381V114.777H146.863V120.561H145.633V109.145H146.863V113.711H148.381V108.912H149.625ZM139.494 117.936V110.293H144.252V117.936H139.494ZM140.725 116.896H143.035V111.318H140.725V116.896ZM162.381 114.531V115.529H151.17V114.531H162.381ZM152.496 117.32V116.391H161V119.084H153.809V120.096H161.383V121.012H152.51V118.223H159.715V117.32H152.496ZM152.578 110.143V109.227H160.973V111.879H153.891V112.809H161.178V113.725H152.605V111.018H159.674V110.143H152.578ZM176.887 108.912V121.162H175.574V108.912H176.887ZM166.674 117.115C167.18 117.115 167.72 117.108 168.287 117.102V111.236H167.002V110.17H173.975V111.236H172.703V116.938C173.339 116.89 173.968 116.828 174.576 116.76L174.645 117.717C171.992 118.147 169.08 118.188 166.824 118.195L166.674 117.115ZM169.545 117.081C170.16 117.067 170.796 117.04 171.432 117.013V111.236H169.545V117.081ZM188.344 108.912V113.875H190.312V114.955H188.344V121.162H187.059V108.912H188.344ZM178.732 111.893V110.826H181.754V109.076H183.053V110.826H185.992V111.893H178.732ZM179.361 115.639C179.361 113.971 180.646 112.795 182.41 112.795C184.167 112.795 185.452 113.971 185.459 115.639C185.452 117.32 184.167 118.489 182.41 118.496C180.646 118.489 179.361 117.32 179.361 115.639ZM180.605 115.639C180.599 116.705 181.364 117.416 182.41 117.402C183.449 117.416 184.208 116.705 184.215 115.639C184.208 114.593 183.449 113.868 182.41 113.861C181.364 113.868 180.599 114.593 180.605 115.639ZM194.633 112.262C194.633 114.217 195.453 116.302 197.094 117.307L196.369 118.305C195.221 117.614 194.448 116.391 194.024 114.976C193.58 116.527 192.732 117.854 191.543 118.578L190.736 117.607C192.466 116.568 193.382 114.401 193.375 112.316V110.033H194.633V112.262ZM195.768 114.299V113.219H197.668V109.145H198.898V120.561H197.668V114.299H195.768ZM200.197 121.162V108.912H201.441V121.162H200.197ZM214.211 118.551V119.631H203V118.551H205.68V115.352C204.675 114.798 204.06 113.923 204.066 112.822C204.06 110.895 205.953 109.63 208.578 109.623C211.21 109.63 213.104 110.895 213.104 112.822C213.104 113.902 212.516 114.771 211.531 115.324V118.551H214.211ZM205.324 112.822C205.324 114.135 206.657 114.989 208.578 114.996C210.485 114.989 211.839 114.135 211.846 112.822C211.839 111.503 210.485 110.662 208.578 110.662C206.657 110.662 205.324 111.503 205.324 112.822ZM206.965 118.551H210.219V115.83C209.72 115.946 209.166 116.008 208.578 116.008C208.004 116.008 207.457 115.946 206.965 115.83V118.551ZM216.494 120.096C215.961 120.089 215.517 119.658 215.523 119.125C215.517 118.592 215.961 118.154 216.494 118.154C217.021 118.154 217.458 118.592 217.465 119.125C217.458 119.658 217.021 120.089 216.494 120.096Z" fill="#555555"/>
<defs>
<filter id="filter0_d_228_1715" x="0" y="0" width="391" height="157" filterUnits="userSpaceOnUse" color-interpolation-filters="sRGB">
<feFlood flood-opacity="0" result="BackgroundImageFix"/>
<feColorMatrix in="SourceAlpha" type="matrix" values="0 0 0 0 0 0 0 0 0 0 0 0 0 0 0 0 0 0 127 0" result="hardAlpha"/>
<feOffset/>
<feGaussianBlur stdDeviation="7.5"/>
<feComposite in2="hardAlpha" operator="out"/>
<feColorMatrix type="matrix" values="0 0 0 0 0 0 0 0 0 0 0 0 0 0 0 0 0 0 0.1 0"/>
<feBlend mode="normal" in2="BackgroundImageFix" result="effect1_dropShadow_228_1715"/>
<feBlend mode="normal" in="SourceGraphic" in2="effect1_dropShadow_228_1715" result="shape"/>
</filter>
</defs>
</svg>
