<svg width="391" height="157" viewBox="0 0 391 157" fill="none" xmlns="http://www.w3.org/2000/svg">
<g filter="url(#filter0_d_228_1739)">
<rect x="15" y="15" width="361" height="127" rx="15" fill="#5C7DF2"/>
</g>
<rect x="19" y="15" width="357" height="127" rx="15" fill="white"/>
<path d="M35 50.12H51V34.12H35V50.12ZM66.3906 36.2188V40.2969H68.3125V41.9531H66.3906V46.5781H64.3906V36.2188H66.3906ZM55.2031 40.75C55.1953 38.6328 56.9219 37.1328 59.1094 37.1406C61.2891 37.1328 62.9844 38.6328 62.9844 40.75C62.9844 42.8359 61.2891 44.3594 59.1094 44.3594C56.9219 44.3594 55.1953 42.8359 55.2031 40.75ZM57.1719 50.1875V45.4844H59.1562V48.5938H66.9062V50.1875H57.1719ZM57.1719 40.75C57.1562 41.9062 58.0234 42.625 59.1094 42.625C60.2031 42.625 61.0391 41.9062 61.0469 40.75C61.0391 39.5625 60.2031 38.8672 59.1094 38.875C58.0234 38.8672 57.1562 39.5625 57.1719 40.75ZM80.9219 36.2344V46.6094H78.9375V41.5156H76.6094V39.9062H78.9375V36.2344H80.9219ZM68.8594 43.4062C71.2109 42.6719 72.2734 40.8203 72.2812 39V38.7812H69.4219V37.1875H77.1406V38.7812H74.3125V39.0156C74.3047 40.6641 75.3203 42.4219 77.5781 43.1562L76.5938 44.7344C75.0234 44.2188 73.9375 43.1875 73.3203 41.9141C72.6875 43.3281 71.5547 44.4766 69.875 45.0312L68.8594 43.4062ZM71.4844 50.1875V45.7031H73.4844V48.5938H81.2656V50.1875H71.4844ZM94.0469 36.2344V40.5938H95.9688V42.2188H94.0469V46.8438H92.0469V36.2344H94.0469ZM82.7656 39.2969V37.7188H86V36.2031H87.9844V37.7188H91.2031V39.2969H82.7656ZM83.4531 42.5469C83.4531 40.8984 84.9141 39.7969 86.9844 39.7969C89.0469 39.7969 90.4844 40.8984 90.4844 42.5469C90.4844 44.1875 89.0469 45.2656 86.9844 45.2656C84.9141 45.2656 83.4531 44.1875 83.4531 42.5469ZM84.8281 50.1875V46.0312H86.8125V48.5938H94.5625V50.1875H84.8281ZM85.4062 42.5469C85.3984 43.3281 86.0312 43.75 86.9844 43.75C87.9453 43.75 88.5938 43.3281 88.5938 42.5469C88.5938 41.7578 87.9453 41.3203 86.9844 41.3125C86.0312 41.3203 85.3984 41.7578 85.4062 42.5469ZM111.734 37.0469V38.3281C111.727 39.6562 111.727 41.1016 111.367 43.0938H113.25V44.7031H107.703V50.4531H105.703V44.7031H100.281V43.0938H109.344C109.711 41.2656 109.742 39.8672 109.75 38.6406H101.766V37.0469H111.734ZM126.438 36.2188V50.4375H124.531V43.2656H123.25V49.7812H121.359V36.4219H123.25V41.6406H124.531V36.2188H126.438ZM114.516 46.8594V37.6875H120.172V46.8594H114.516ZM116.375 45.2969H118.312V39.2656H116.375V45.2969ZM142.844 36.2188V41.6719H144.859V43.3125H142.844V50.4062H140.844V36.2188H142.844ZM131.469 46.4219C134.836 44.7344 136.648 42.4688 137.023 39.2969H132.281V37.6719H139.047C139.031 41.9219 137.375 45.6016 132.594 47.9531L131.469 46.4219ZM157.359 36.2188V50.4688H155.344V36.2188H157.359ZM145.875 42.2812C145.867 39.1797 147.453 37.2188 149.641 37.2188C151.781 37.2188 153.375 39.1797 153.375 42.2812C153.375 45.4062 151.781 47.3594 149.641 47.3594C147.453 47.3594 145.867 45.4062 145.875 42.2812ZM147.797 42.2812C147.789 44.3984 148.531 45.5547 149.641 45.5469C150.719 45.5547 151.445 44.3984 151.453 42.2812C151.445 40.1719 150.719 39.0156 149.641 39.0156C148.531 39.0156 147.789 40.1719 147.797 42.2812ZM170.875 42.7969V44.3906H160.812V37.4062H170.766V39.0156H162.781V42.7969H170.875ZM159.281 48.7031V47.0625H172.297V48.7031H159.281Z" fill="#5C7DF2"/>
<path d="M45.0762 66.8984V70.5625H46.8535V71.6562H45.0762V75.9082H43.7773V66.8984H45.0762ZM35.6426 70.7949C35.6289 69.0107 37.0508 67.7529 38.8965 67.7461C40.749 67.7529 42.1504 69.0107 42.1641 70.7949C42.1504 72.5791 40.749 73.8506 38.8965 73.8438C37.0508 73.8506 35.6289 72.5791 35.6426 70.7949ZM36.9141 70.7949C36.9004 71.9365 37.7754 72.709 38.8965 72.709C40.0312 72.709 40.8857 71.9365 40.8926 70.7949C40.8857 69.6533 40.0312 68.8809 38.8965 68.8809C37.7754 68.8809 36.9004 69.6533 36.9141 70.7949ZM37.3105 78.9023V74.9648H38.6094V77.8496H45.5957V78.9023H37.3105ZM57.7637 66.9258V75.8945H56.4648V71.2871H54.127V70.2344H56.4648V66.9258H57.7637ZM47.5645 73.3379C49.4443 72.7021 50.6201 71.0889 50.6133 69.4004V68.9219H47.9609V67.8555H54.5645V68.9219H51.9395V69.4004C51.9326 70.9248 53.04 72.4629 54.8926 73.0781L54.2227 74.1172C52.8486 73.6387 51.8301 72.6543 51.2969 71.4375C50.7637 72.791 49.6904 73.8711 48.2344 74.3906L47.5645 73.3379ZM49.8066 78.9023V75.0879H51.1055V77.8496H58.0918V78.9023H49.8066ZM73.2266 66.9258V75.8262H71.9277V66.9258H73.2266ZM63.3145 70.7812C63.3213 69.0107 64.7295 67.7529 66.582 67.7461C68.4277 67.7529 69.8359 69.0107 69.8359 70.7812C69.8359 72.5791 68.4277 73.8301 66.582 73.8301C64.7295 73.8301 63.3213 72.5791 63.3145 70.7812ZM64.5859 70.7812C64.5791 71.9365 65.4404 72.6953 66.582 72.6953C67.7031 72.6953 68.5645 71.9365 68.5645 70.7812C68.5645 69.6533 67.7031 68.8809 66.582 68.8809C65.4404 68.8809 64.5791 69.6533 64.5859 70.7812ZM65.2148 78.9023V74.9238H66.5273V77.8496H73.5957V78.9023H65.2148ZM86.3379 72.6816V73.7344H75.168V72.6816H86.3379ZM75.7559 71.0137C77.9775 70.7744 79.7344 69.7764 79.8779 68.5801H76.1934V67.5137H85.3398V68.5801H81.6143C81.7646 69.7695 83.4941 70.7744 85.7637 71.0137L85.2988 72.0391C83.1729 71.793 81.416 70.8975 80.7529 69.6055C80.0762 70.8975 78.333 71.793 76.207 72.0391L75.7559 71.0137ZM76.4941 76.9199C76.4941 75.498 78.0869 74.6777 80.7461 74.6777C83.3848 74.6777 84.9639 75.498 84.9707 76.9199C84.9639 78.3418 83.3848 79.1416 80.7461 79.1348C78.0869 79.1416 76.4941 78.3418 76.4941 76.9199ZM77.8066 76.9199C77.7998 77.6924 78.873 78.1162 80.7461 78.1094C82.5918 78.1162 83.6719 77.6924 83.6719 76.9199C83.6719 76.127 82.5918 75.7031 80.7461 75.6895C78.873 75.7031 77.7998 76.127 77.8066 76.9199ZM96.8789 68.1289V76.0859H91.1504V68.1289H96.8789ZM92.4219 75.0332H95.5938V69.1543H92.4219V75.0332ZM98.9297 79.1621V66.9121H100.229V71.7109H102.197V72.8047H100.229V79.1621H98.9297ZM112.643 68.1016V69.5918C112.643 71.3828 112.643 73.0645 112.109 75.6074L110.824 75.4844C111.084 74.3564 111.221 73.3789 111.289 72.4697L103.934 72.8594L103.77 71.793L111.351 71.5059C111.378 70.8496 111.378 70.2207 111.385 69.5918V69.168H104.111V68.1016H112.643ZM102.785 77.5215V76.4551H113.955V77.5215H102.785ZM127.941 66.9258V70.5625H129.691V71.6289H127.941V75.1699H126.643V66.9258H127.941ZM118.221 73.8027C119.171 73.8027 120.271 73.8027 121.42 73.7754V72.9482C120.025 72.791 119.137 72.1348 119.15 71.1504C119.137 70.0293 120.306 69.332 122.062 69.3457C123.819 69.332 124.968 70.0293 124.975 71.1504C124.968 72.1279 124.1 72.7842 122.719 72.9482V73.7275C123.812 73.6729 124.92 73.584 125.945 73.4336L126.055 74.3633C123.423 74.8213 120.518 74.8418 118.357 74.8418L118.221 73.8027ZM118.535 68.9355V67.9648H121.42V66.8164H122.719V67.9648H125.604V68.9355H118.535ZM119.752 76.7559V75.7441H127.941V79.1621H126.643V76.7559H119.752ZM120.381 71.1504C120.381 71.7246 121.017 72.1006 122.062 72.0938C123.095 72.1006 123.737 71.7246 123.73 71.1504C123.737 70.5625 123.095 70.2207 122.062 70.2344C121.017 70.2207 120.381 70.5625 120.381 71.1504ZM140.561 66.9258V75.8262H139.262V66.9258H140.561ZM130.648 70.7812C130.655 69.0107 132.063 67.7529 133.916 67.7461C135.762 67.7529 137.17 69.0107 137.17 70.7812C137.17 72.5791 135.762 73.8301 133.916 73.8301C132.063 73.8301 130.655 72.5791 130.648 70.7812ZM131.92 70.7812C131.913 71.9365 132.774 72.6953 133.916 72.6953C135.037 72.6953 135.898 71.9365 135.898 70.7812C135.898 69.6533 135.037 68.8809 133.916 68.8809C132.774 68.8809 131.913 69.6533 131.92 70.7812ZM132.549 78.9023V74.9238H133.861V77.8496H140.93V78.9023H132.549ZM144.703 77.0566L143.609 80.8301H142.447L143.172 77.0566H144.703ZM156.461 68.0195V69.0723H155.299V72.9141C155.88 72.873 156.447 72.8184 156.994 72.75L157.076 73.7207C154.608 74.1104 151.751 74.165 149.652 74.1719L149.502 73.1055C149.974 73.1055 150.479 73.0986 151.006 73.0918V69.0723H149.844V68.0195H156.461ZM151.361 78.9023V75.0742H152.66V77.8496H159.646V78.9023H151.361ZM152.264 73.0645C152.845 73.0439 153.433 73.0234 154.027 72.9961V69.0723H152.264V73.0645ZM157.828 75.9355V66.9258H159.127V70.5488H160.904V71.6426H159.127V75.9355H157.828ZM172.143 66.9121V79.1621H170.898V72.7773H169.381V78.5605H168.15V67.1445H169.381V71.7109H170.898V66.9121H172.143ZM162.012 75.9355V68.293H166.77V75.9355H162.012ZM163.242 74.8965H165.553V69.3184H163.242V74.8965ZM177.967 70.5215C177.96 72.4561 179.238 74.6162 181.098 75.498L180.359 76.5098C178.985 75.8535 177.892 74.4727 177.338 72.873C176.777 74.6162 175.629 76.127 174.234 76.8242L173.469 75.7988C175.328 74.9033 176.675 72.5928 176.682 70.5215V69.2227H173.92V68.1426H180.633V69.2227H177.967V70.5215ZM181.945 79.1621V66.9121H183.244V71.7656H185.213V72.8594H183.244V79.1621H181.945ZM199.377 66.9258V75.8945H198.078V66.9258H199.377ZM189.287 73.1328C191.208 72.4219 192.343 70.6582 192.35 68.8125V67.5957H193.676V68.8125C193.669 70.6035 194.804 72.2441 196.697 72.9004L196.027 73.9395C194.612 73.4131 193.566 72.374 193.02 71.0479C192.479 72.4697 191.42 73.6045 189.984 74.1582L189.287 73.1328ZM191.365 78.9023V75.0469H192.678V77.8496H199.746V78.9023H191.365ZM208.482 68.0195V71.3965H203.561V72.7773H208.797V73.8027H206.062V75.6758C207.19 75.6279 208.318 75.5596 209.385 75.4434L209.48 76.4004C206.78 76.8105 203.882 76.8584 201.551 76.8379L201.387 75.7578C202.433 75.7578 203.588 75.751 204.777 75.7236V73.8027H202.262V70.4258H207.197V69.0586H202.248V68.0195H208.482ZM210.15 79.1895V66.9121H211.449V79.1895H210.15ZM223.344 72.5586V73.5977H219.639V76.5918H224.629V77.6582H213.418V76.5918H218.354V73.5977H214.812V67.8555H223.234V68.9082H216.111V72.5586H223.344ZM232.6 70.6719C232.6 72.5996 233.495 74.5615 235.184 75.4707L234.459 76.4277C233.27 75.7988 232.449 74.6299 232.005 73.2422C231.567 74.7256 230.747 76.0039 229.564 76.7148L228.799 75.7305C230.494 74.7461 231.369 72.6475 231.383 70.6719V70.1797H229.168V69.1133H231.383V67.3496H232.6V69.1133H234.773V70.1797H232.6V70.6719ZM233.967 72.7637V71.6836H235.73V67.1719H236.961V78.5469H235.73V72.7637H233.967ZM238.205 79.1621V66.9121H239.449V79.1621H238.205ZM250.893 68.1016V69.5918C250.893 71.3828 250.893 73.0645 250.359 75.6074L249.074 75.4844C249.334 74.3564 249.471 73.3789 249.539 72.4697L242.184 72.8594L242.02 71.793L249.601 71.5059C249.628 70.8496 249.628 70.2207 249.635 69.5918V69.168H242.361V68.1016H250.893ZM241.035 77.5215V76.4551H252.205V77.5215H241.035ZM255.336 77.0566L254.242 80.8301H253.08L253.805 77.0566H255.336ZM264.387 70.0293C264.373 72.1963 265.638 74.418 267.463 75.3066L266.656 76.3457C265.323 75.6484 264.291 74.2812 263.751 72.6475C263.204 74.3838 262.131 75.8535 260.736 76.5781L259.93 75.5254C261.81 74.623 263.081 72.2715 263.088 70.0293V67.9375H264.387V70.0293ZM268.379 79.1621V66.9121H269.678V71.793H271.646V72.9004H269.678V79.1621H268.379ZM283.404 72.8867V73.9395H272.234V72.8867H274.914V71.2393C273.964 70.8564 273.431 70.2412 273.438 69.4277C273.431 67.9717 275.119 67.124 277.812 67.1309C280.499 67.124 282.181 67.9717 282.188 69.4277C282.181 70.2412 281.647 70.8564 280.697 71.2461V72.8867H283.404ZM273.561 76.9473C273.561 75.5459 275.146 74.7734 277.812 74.7734C280.444 74.7734 282.03 75.5459 282.037 76.9473C282.03 78.3623 280.444 79.1348 277.812 79.1348C275.146 79.1348 273.561 78.3623 273.561 76.9473ZM274.777 69.4277C274.771 70.248 275.905 70.7061 277.812 70.7129C279.706 70.7061 280.854 70.248 280.848 69.4277C280.854 68.6074 279.706 68.1357 277.812 68.1289C275.905 68.1357 274.771 68.6074 274.777 69.4277ZM274.873 76.9473C274.866 77.7129 275.939 78.1504 277.812 78.1367C279.658 78.1504 280.738 77.7129 280.738 76.9473C280.738 76.1953 279.658 75.7715 277.812 75.7715C275.939 75.7715 274.866 76.1953 274.873 76.9473ZM276.227 72.8867H279.412V71.5811C278.934 71.6562 278.394 71.6973 277.812 71.6973C277.238 71.6973 276.705 71.6562 276.227 71.5879V72.8867ZM288.6 70.5215C288.593 72.4561 289.871 74.6162 291.73 75.498L290.992 76.5098C289.618 75.8535 288.524 74.4727 287.971 72.873C287.41 74.6162 286.262 76.127 284.867 76.8242L284.102 75.7988C285.961 74.9033 287.308 72.5928 287.314 70.5215V69.2227H284.553V68.1426H291.266V69.2227H288.6V70.5215ZM292.578 79.1621V66.9121H293.877V71.7656H295.846V72.8594H293.877V79.1621H292.578ZM310.023 66.9121V79.1895H308.725V66.9121H310.023ZM300.535 69.0723V68.0195H306.277V72.4902H301.875V75.1699C303.864 75.1631 305.594 75.0674 307.645 74.7324L307.768 75.7988C305.601 76.1611 303.755 76.2432 301.588 76.25H300.549V71.4512H304.951V69.0723H300.535ZM323.148 73.9941V75.0605H320.4V79.1621H319.102V75.0605H315.998V79.1621H314.672V75.0605H311.938V73.9941H323.148ZM313.332 72.6406V67.3906H314.617V68.9492H320.441V67.3906H321.74V72.6406H313.332ZM314.617 71.6016H320.441V69.9746H314.617V71.6016ZM337.107 66.9258V70.5625H338.857V71.6289H337.107V75.1699H335.809V66.9258H337.107ZM327.387 73.8027C328.337 73.8027 329.438 73.8027 330.586 73.7754V72.9482C329.191 72.791 328.303 72.1348 328.316 71.1504C328.303 70.0293 329.472 69.332 331.229 69.3457C332.985 69.332 334.134 70.0293 334.141 71.1504C334.134 72.1279 333.266 72.7842 331.885 72.9482V73.7275C332.979 73.6729 334.086 73.584 335.111 73.4336L335.221 74.3633C332.589 74.8213 329.684 74.8418 327.523 74.8418L327.387 73.8027ZM327.701 68.9355V67.9648H330.586V66.8164H331.885V67.9648H334.77V68.9355H327.701ZM328.918 76.7559V75.7441H337.107V79.1621H335.809V76.7559H328.918ZM329.547 71.1504C329.547 71.7246 330.183 72.1006 331.229 72.0938C332.261 72.1006 332.903 71.7246 332.896 71.1504C332.903 70.5625 332.261 70.2207 331.229 70.2344C330.183 70.2207 329.547 70.5625 329.547 71.1504ZM349.727 66.9258V75.8262H348.428V66.9258H349.727ZM339.814 70.7812C339.821 69.0107 341.229 67.7529 343.082 67.7461C344.928 67.7529 346.336 69.0107 346.336 70.7812C346.336 72.5791 344.928 73.8301 343.082 73.8301C341.229 73.8301 339.821 72.5791 339.814 70.7812ZM341.086 70.7812C341.079 71.9365 341.94 72.6953 343.082 72.6953C344.203 72.6953 345.064 71.9365 345.064 70.7812C345.064 69.6533 344.203 68.8809 343.082 68.8809C341.94 68.8809 341.079 69.6533 341.086 70.7812ZM341.715 78.9023V74.9238H343.027V77.8496H350.096V78.9023H341.715ZM46.6348 93.668V94.7344H35.4512V93.668H46.6348ZM36.7773 97.9199C36.7773 96.498 38.3701 95.6914 41.0293 95.6914C43.668 95.6914 45.2471 96.498 45.2539 97.9199C45.2471 99.3418 43.668 100.142 41.0293 100.135C38.3701 100.142 36.7773 99.3418 36.7773 97.9199ZM36.8457 92.6016V88.3496H45.2539V89.416H38.1309V91.5488H45.3359V92.6016H36.8457ZM38.0898 97.9199C38.083 98.7061 39.1562 99.1299 41.0293 99.1367C42.875 99.1299 43.9551 98.7061 43.9551 97.9199C43.9551 97.1406 42.875 96.7031 41.0293 96.6895C39.1562 96.7031 38.083 97.1406 38.0898 97.9199ZM53.1289 88.1172C55.8906 88.1104 57.4971 88.8555 57.5039 90.2227C57.4971 91.5967 55.8906 92.3418 53.1289 92.3418C50.3672 92.3418 48.7471 91.5967 48.7539 90.2227C48.7471 88.8555 50.3672 88.1104 53.1289 88.1172ZM47.5508 94.1328V93.0938H58.7207V94.1328H47.5508ZM48.8906 96.0469V95.0762H57.3125V97.9473H50.1758V99.041H57.6543V100.039H48.9043V97.0039H56.0273V96.0469H48.8906ZM50.1074 90.2227C50.1006 90.9814 51.1807 91.3711 53.1289 91.3711C55.0908 91.3711 56.1709 90.9814 56.1641 90.2227C56.1709 89.498 55.0908 89.0742 53.1289 89.0742C51.1807 89.0742 50.1006 89.498 50.1074 90.2227ZM74.2383 94.3516V95.377H63.041V94.3516H67.9902V93.2852H64.5039V88.2402H72.8711V89.2656H65.8164V90.2637H72.5566V91.2344H65.8164V92.2734H72.9531V93.2852H69.2891V94.3516H74.2383ZM64.3945 98.166C64.3945 96.8809 65.9189 96.1768 68.6465 96.1836C71.333 96.1768 72.8643 96.8809 72.8711 98.166C72.8643 99.458 71.333 100.142 68.6465 100.135C65.9189 100.142 64.3945 99.458 64.3945 98.166ZM65.6934 98.166C65.6865 98.8291 66.7119 99.1641 68.6465 99.1504C70.5537 99.1641 71.5723 98.8291 71.5723 98.166C71.5723 97.5029 70.5537 97.1543 68.6465 97.1543C66.7119 97.1543 65.6865 97.5029 65.6934 98.166ZM81.2246 89.9355V90.9883H75.1406V89.9355H77.5469V88.2676H78.832V89.9355H81.2246ZM75.5371 94.543C75.5303 92.8955 76.6514 91.7266 78.1895 91.7266C79.7412 91.7266 80.8486 92.8955 80.8555 94.543C80.8486 96.2178 79.7412 97.3936 78.1895 97.3867C76.6514 97.3936 75.5303 96.2178 75.5371 94.543ZM76.6855 94.543C76.6787 95.582 77.3076 96.2793 78.1895 96.2793C79.0713 96.2793 79.707 95.582 79.707 94.543C79.707 93.5244 79.0713 92.8135 78.1895 92.8066C77.3076 92.8135 76.6787 93.5244 76.6855 94.543ZM81.7852 99.5879V88.1855H83.0156V93.0117H84.4238V87.9121H85.6543V100.162H84.4238V94.0781H83.0156V99.5879H81.7852ZM96.9062 89.0469V90.127H92.5996V96.1016C94.6572 96.0879 96.0586 96.0127 97.6719 95.7051L97.8223 96.7715C96.0586 97.1064 94.5684 97.1816 92.2578 97.1816H91.2871V89.0469H96.9062ZM96.209 93.3672V92.2871H99.6133V87.9121H100.912V100.189H99.6133V93.3672H96.209ZM115.828 87.8984V91.5625H117.605V92.6562H115.828V96.9082H114.529V87.8984H115.828ZM106.395 91.7949C106.381 90.0107 107.803 88.7529 109.648 88.7461C111.501 88.7529 112.902 90.0107 112.916 91.7949C112.902 93.5791 111.501 94.8506 109.648 94.8438C107.803 94.8506 106.381 93.5791 106.395 91.7949ZM107.666 91.7949C107.652 92.9365 108.527 93.709 109.648 93.709C110.783 93.709 111.638 92.9365 111.645 91.7949C111.638 90.6533 110.783 89.8809 109.648 89.8809C108.527 89.8809 107.652 90.6533 107.666 91.7949ZM108.062 99.9023V95.9648H109.361V98.8496H116.348V99.9023H108.062ZM128.516 87.9258V96.8945H127.217V92.2871H124.879V91.2344H127.217V87.9258H128.516ZM118.316 94.3379C120.196 93.7021 121.372 92.0889 121.365 90.4004V89.9219H118.713V88.8555H125.316V89.9219H122.691V90.4004C122.685 91.9248 123.792 93.4629 125.645 94.0781L124.975 95.1172C123.601 94.6387 122.582 93.6543 122.049 92.4375C121.516 93.791 120.442 94.8711 118.986 95.3906L118.316 94.3379ZM120.559 99.9023V96.0879H121.857V98.8496H128.844V99.9023H120.559ZM140.027 87.9258V91.8633H141.805V92.9434H140.027V97.0859H138.729V87.9258H140.027ZM130.416 90.4004V89.3477H133.424V87.9121H134.723V89.3477H137.717V90.4004H130.416ZM131.086 93.2988C131.079 91.8975 132.289 90.9814 134.066 90.9883C135.823 90.9814 137.033 91.8975 137.033 93.2988C137.033 94.6865 135.823 95.5889 134.066 95.5957C132.289 95.5889 131.079 94.6865 131.086 93.2988ZM132.262 99.9023V96.3613H133.561V98.8496H140.547V99.9023H132.262ZM132.344 93.2988C132.33 94.0986 133.027 94.5908 134.066 94.584C135.105 94.5908 135.803 94.0986 135.816 93.2988C135.803 92.4922 135.105 91.9932 134.066 91.9863C133.027 91.9932 132.33 92.4922 132.344 93.2988ZM151.977 89.9355V90.9883H145.893V89.9355H148.299V88.2676H149.584V89.9355H151.977ZM146.289 94.543C146.282 92.8955 147.403 91.7266 148.941 91.7266C150.493 91.7266 151.601 92.8955 151.607 94.543C151.601 96.2178 150.493 97.3936 148.941 97.3867C147.403 97.3936 146.282 96.2178 146.289 94.543ZM147.438 94.543C147.431 95.582 148.06 96.2793 148.941 96.2793C149.823 96.2793 150.459 95.582 150.459 94.543C150.459 93.5244 149.823 92.8135 148.941 92.8066C148.06 92.8135 147.431 93.5244 147.438 94.543ZM152.537 99.5879V88.1855H153.768V93.0117H155.176V87.9121H156.406V100.162H155.176V94.0781H153.768V99.5879H152.537ZM162.012 88.6914C163.946 88.6914 165.341 89.8809 165.348 91.6035C165.341 93.1279 164.247 94.2354 162.654 94.4678V96.4023C163.81 96.3477 164.985 96.2451 166.086 96.0879L166.182 97.0312C163.413 97.5439 160.439 97.5576 158.252 97.5645L158.088 96.498C159.052 96.498 160.173 96.4912 161.355 96.457V94.4678C159.77 94.2285 158.669 93.1211 158.676 91.6035C158.669 89.8809 160.084 88.6914 162.012 88.6914ZM159.961 91.6035C159.947 92.6768 160.822 93.4082 162.012 93.3945C163.201 93.4082 164.076 92.6768 164.076 91.6035C164.076 90.5098 163.201 89.8125 162.012 89.8125C160.822 89.8125 159.947 90.5098 159.961 91.6035ZM166.852 100.189V87.9121H168.15V100.189H166.852ZM178.076 90.1133C178.076 91.6855 179.245 93.1963 181.139 93.791L180.469 94.8027C179.061 94.3379 177.994 93.374 177.44 92.1436C176.887 93.4697 175.8 94.5225 174.344 95.0352L173.674 94.0371C175.581 93.374 176.757 91.7744 176.764 90.1133V89.7715H174.016V88.7188H180.77V89.7715H178.076V90.1133ZM175.396 96.9766V95.9238H183.695V100.162H182.396V96.9766H175.396ZM182.396 95.3086V87.9121H183.695V95.3086H182.396ZM195.385 88.6777V89.7578C195.385 90.9199 195.385 92.1846 195.043 93.9277H196.807V94.9941H191.844V100.176H190.531V94.9941H185.637V93.9277H193.73C194.093 92.1777 194.093 90.8994 194.1 89.7578V89.7441H187.004V88.6777H195.385ZM208.934 93.5312V94.5293H197.723V93.5312H208.934ZM199.049 96.3203V95.3906H207.553V98.084H200.361V99.0957H207.936V100.012H199.062V97.2227H206.268V96.3203H199.049ZM199.131 89.1426V88.2266H207.525V90.8789H200.443V91.8086H207.73V92.7246H199.158V90.0176H206.227V89.1426H199.131ZM222.879 87.8711V90.7422H224.67V91.8086H222.879V94.6113H221.58V87.8711H222.879ZM213.268 89.9766V88.9512H216.275V87.8027H217.574V88.9512H220.568V89.9766H213.268ZM213.938 92.4512C213.931 91.2139 215.12 90.4414 216.918 90.4414C218.716 90.4414 219.885 91.2139 219.885 92.4512C219.885 93.6953 218.716 94.4541 216.918 94.4473C215.12 94.4541 213.931 93.6953 213.938 92.4512ZM214.963 96.1562V95.1855H222.879V98.0293H216.262V99.0547H223.303V100.039H214.99V97.1133H221.594V96.1562H214.963ZM215.195 92.4512C215.182 93.1143 215.858 93.5039 216.918 93.5039C217.971 93.5039 218.654 93.1143 218.668 92.4512C218.654 91.7881 217.971 91.3779 216.918 91.3711C215.858 91.3779 215.182 91.7881 215.195 92.4512ZM235.047 88.9922C235.04 90.6191 237.029 92.1436 239.436 92.4648L238.93 93.5312C236.927 93.21 235.17 92.1709 234.37 90.7285C233.57 92.1709 231.813 93.21 229.824 93.5312L229.305 92.4648C231.704 92.1436 233.687 90.6396 233.693 88.9922V88.3223H235.047V88.9922ZM228.771 95.8008V94.7344H239.941V95.8008H234.965V100.162H233.693V95.8008H228.771ZM248.541 96.0059C248.541 97.0586 249.061 98.1729 250.175 98.8359C251.296 98.1182 251.85 96.9492 251.85 96.0059V95.418H253.121V96.0059C253.114 97.2773 253.955 98.5078 255.555 99.0273L254.912 99.9844C253.702 99.5674 252.875 98.7471 252.451 97.749C252.062 98.7334 251.33 99.6289 250.209 100.094C249.033 99.6494 248.288 98.7812 247.912 97.7832C247.468 98.7471 246.661 99.5605 245.506 99.9844L244.85 99.0273C246.422 98.4668 247.276 97.1885 247.283 96.0059V95.418H248.541V96.0059ZM244.535 91.4941C244.542 89.7783 245.923 88.6025 247.803 88.5957C249.676 88.6025 251.057 89.7783 251.057 91.4941C251.057 93.1895 249.676 94.3652 247.803 94.3652C245.923 94.3652 244.542 93.1895 244.535 91.4941ZM245.807 91.4941C245.8 92.5605 246.641 93.2852 247.803 93.2852C248.951 93.2852 249.785 92.5605 249.785 91.4941C249.785 90.4209 248.951 89.6963 247.803 89.7031C246.641 89.6963 245.8 90.4209 245.807 91.4941ZM253.148 94.8984V87.9258H254.447V94.8984H253.148ZM259.055 95.2539V96.5527H264.811V95.2539H266.109V100.012H257.77V95.2539H259.055ZM256.389 94.4883V93.4082H267.559V94.4883H256.389ZM256.99 91.6309C259.362 91.3232 261.304 90.0176 261.311 88.5684V88.0488H262.637V88.5684C262.644 89.9766 264.599 91.3438 266.943 91.6309L266.479 92.6562C264.496 92.3828 262.767 91.4395 261.98 90.1338C261.188 91.4463 259.451 92.3828 257.482 92.6562L256.99 91.6309ZM259.055 98.9727H264.811V97.5645H259.055V98.9727ZM278.66 87.9121V100.162H277.361V87.9121H278.66ZM269.24 97.0449V89.1016H270.525V95.9238C272.316 95.917 274.196 95.7598 276.158 95.3633L276.336 96.457C274.169 96.9014 272.2 97.0518 270.266 97.0449H269.24ZM290.131 87.9121V92.6562H292.1V93.7227H290.131V100.189H288.832V87.9121H290.131ZM281.107 97.1406V89.0879H286.836V90.1406H282.406V96.0605C284.464 96.0537 286.002 95.9648 287.752 95.6504L287.916 96.7441C285.995 97.0859 284.368 97.1475 282.092 97.1406H281.107ZM294.082 99.0957C293.549 99.0889 293.104 98.6582 293.111 98.125C293.104 97.5918 293.549 97.1543 294.082 97.1543C294.608 97.1543 295.046 97.5918 295.053 98.125C295.046 98.6582 294.608 99.0889 294.082 99.0957Z" fill="#555555"/>
<defs>
<filter id="filter0_d_228_1739" x="0" y="0" width="391" height="157" filterUnits="userSpaceOnUse" color-interpolation-filters="sRGB">
<feFlood flood-opacity="0" result="BackgroundImageFix"/>
<feColorMatrix in="SourceAlpha" type="matrix" values="0 0 0 0 0 0 0 0 0 0 0 0 0 0 0 0 0 0 127 0" result="hardAlpha"/>
<feOffset/>
<feGaussianBlur stdDeviation="7.5"/>
<feComposite in2="hardAlpha" operator="out"/>
<feColorMatrix type="matrix" values="0 0 0 0 0 0 0 0 0 0 0 0 0 0 0 0 0 0 0.1 0"/>
<feBlend mode="normal" in2="BackgroundImageFix" result="effect1_dropShadow_228_1739"/>
<feBlend mode="normal" in="SourceGraphic" in2="effect1_dropShadow_228_1739" result="shape"/>
</filter>
</defs>
</svg>
