<svg width="391" height="157" viewBox="0 0 391 157" fill="none" xmlns="http://www.w3.org/2000/svg">
<g filter="url(#filter0_d_228_1727)">
<rect x="15" y="15" width="361" height="127" rx="15" fill="#5C7DF2"/>
</g>
<rect x="19" y="15" width="357" height="127" rx="15" fill="white"/>
<path d="M35 50.12H51V34.12H35V50.12ZM67.0312 36.2188V50.4688H65.0469V36.2188H67.0312ZM55.8594 39.0156V37.4062H62.625V42.8906H57.9375V45.5C60.1094 45.4844 61.9453 45.375 64.0312 45.0312L64.2031 46.6406C61.8672 47.0547 59.75 47.1406 57.1562 47.1406H55.875V41.3125H60.5938V39.0156H55.8594ZM80.4219 36.5V37.4219C80.4219 38.4219 80.4219 39.7578 80.125 41.5L78.125 41.375C78.2109 40.9062 78.2734 40.4766 78.3125 40.0781L70.25 40.4219L70.0312 38.8906L78.4219 38.7188L78.4453 38.0312H70.4219V36.5H80.4219ZM68.9688 43.625V42.0781H73.7969V40.7344H75.7969V42.0781H81.875V43.625H68.9688ZM70.4375 45.8438V44.3594H80.3281V48H72.4062V48.7188H80.7031V50.2188H70.4531V46.6094H78.3594V45.8438H70.4375ZM98.75 36.2188V50.4375H96.8594V36.2188H98.75ZM86.1562 46.2812C88.25 44.9922 89.0312 42.4453 89.0312 40.0312V39.2656H86.7031V37.6719H93.1094V39.2656H90.9531V40.0312C90.9453 42.3906 91.6875 44.7812 93.7656 45.9688L92.5938 47.4375C91.3203 46.6875 90.4922 45.4219 90.0078 43.8906C89.5234 45.5469 88.6641 46.9531 87.3594 47.75L86.1562 46.2812ZM92.0938 42.7031V41.0938H93.9688V36.4531H95.8438V49.7812H93.9688V42.7031H92.0938ZM113.25 42.875V44.4531H107.75V45.6719H111.703V50.2812H101.781V45.6719H105.766V44.4531H100.281V42.875H113.25ZM101.422 38.2031V36.6094H112.094V38.2031H110.234V40.375H112V41.9688H101.516V40.375H103.266V38.2031H101.422ZM103.75 48.6875H109.75V47.2188H103.75V48.6875ZM105.266 40.375H108.234V38.2031H105.266V40.375ZM129.172 36.2188V40.8906H130.984V42.5312H129.172V47.3125H127.172V36.2188H129.172ZM117.641 44.3906C118.664 44.3906 119.852 44.3828 121.094 44.3438V43.5234C119.547 43.3047 118.586 42.5391 118.594 41.4219C118.586 40.0156 119.969 39.1953 122.078 39.2031C124.172 39.1953 125.555 40.0156 125.562 41.4219C125.555 42.5312 124.602 43.2969 123.078 43.5234V44.25C124.242 44.1797 125.414 44.0703 126.516 43.9062L126.656 45.2812C123.664 45.8594 120.297 45.8984 117.844 45.9219L117.641 44.3906ZM118.016 38.7969V37.375H121.094V36.1719H123.078V37.375H126.156V38.7969H118.016ZM119.641 50.1875V46.5781H121.641V48.5938H129.656V50.1875H119.641ZM120.5 41.4219C120.492 41.9531 121.062 42.2578 122.078 42.25C123.078 42.2578 123.648 41.9531 123.656 41.4219C123.648 40.8203 123.078 40.5312 122.078 40.5312C121.062 40.5312 120.492 40.8203 120.5 41.4219ZM135.25 36.4375V37.4219H140.953V36.4375H142.938V41.2031H133.281V36.4375H135.25ZM131.625 43.5469V41.9375H144.594V43.5469H139.094V44.4375H143.016V48.0312H135.094V48.8438H143.391V50.3438H133.141V46.6562H141.047V45.8906H133.125V44.4375H137.094V43.5469H131.625ZM135.25 39.7188H140.953V38.8594H135.25V39.7188ZM160.359 36.2188V41.6719H162.375V43.3125H160.359V50.4062H158.359V36.2188H160.359ZM148.984 46.4219C152.352 44.7344 154.164 42.4688 154.539 39.2969H149.797V37.6719H156.562C156.547 41.9219 154.891 45.6016 150.109 47.9531L148.984 46.4219ZM174.5 39.7812V41.375H164.609V36.4375H166.594V39.7812H174.5ZM162.969 44.2188V42.5938H175.969V44.2188H162.969ZM164.453 47.75C164.453 46.0703 166.328 45.1172 169.438 45.1094C172.523 45.1172 174.375 46.0703 174.391 47.75C174.375 49.4453 172.523 50.3906 169.438 50.3906C166.328 50.3906 164.453 49.4453 164.453 47.75ZM166.484 47.75C166.477 48.4922 167.469 48.8672 169.438 48.875C171.367 48.8672 172.383 48.4922 172.391 47.75C172.383 46.9922 171.367 46.6719 169.438 46.6562C167.469 46.6719 166.477 46.9922 166.484 47.75Z" fill="#5C7DF2"/>
<path d="M45.623 66.9121V79.1895H44.3242V66.9121H45.623ZM36.1348 69.0723V68.0195H41.877V72.4902H37.4746V75.1699C39.4639 75.1631 41.1934 75.0674 43.2441 74.7324L43.3672 75.7988C41.2002 76.1611 39.3545 76.2432 37.1875 76.25H36.1484V71.4512H40.5508V69.0723H36.1348ZM57.3672 67.2402V68.0195C57.3672 68.8877 57.3672 70.0225 57.0938 71.5059L55.8086 71.4238C55.9043 70.9111 55.9658 70.4531 56.0068 70.0361L48.7129 70.3848L48.5488 69.3457L56.0684 69.1406C56.0752 68.8193 56.082 68.5322 56.082 68.2656H48.8633V67.2402H57.3672ZM47.5645 73.1738V72.1484H51.9805V70.7676H53.293V72.1484H58.707V73.1738H47.5645ZM48.8906 75.0742V74.0762H57.3125V76.9883H50.1758V77.9727H57.6543V78.9707H48.9043V76.0449H56.0273V75.0742H48.8906ZM73.582 66.9121V79.1621H72.3379V66.9121H73.582ZM62.8906 75.7852C64.627 74.7393 65.5088 72.5107 65.5156 70.3301V69.3457H63.2598V68.293H68.8652V69.3457H66.7598V70.3301C66.7598 72.4219 67.6074 74.5205 69.3301 75.5117L68.5508 76.4688C67.3818 75.7715 66.582 74.5205 66.1514 73.0439C65.7139 74.6436 64.8799 76.0107 63.6836 76.7559L62.8906 75.7852ZM67.9629 72.3125V71.2461H69.8633V67.1719H71.0938V78.5469H69.8633V72.3125H67.9629ZM86.3379 72.7773V73.8164H81.3887V75.1289H84.9707V79.0117H76.5078V75.1289H80.1035V73.8164H75.168V72.7773H86.3379ZM76.1934 68.3477V67.2949H85.2852V68.3477H83.5078V70.6855H85.2305V71.7383H76.248V70.6855H77.9844V68.3477H76.1934ZM77.793 77.959H83.7129V76.1543H77.793V77.959ZM79.2695 70.6855H82.209V68.3477H79.2695V70.6855ZM92.8457 67.1172C95.6074 67.1104 97.2139 67.8555 97.2207 69.2227C97.2139 70.5967 95.6074 71.3418 92.8457 71.3418C90.084 71.3418 88.4639 70.5967 88.4707 69.2227C88.4639 67.8555 90.084 67.1104 92.8457 67.1172ZM87.2676 73.1328V72.0938H98.4375V73.1328H87.2676ZM88.6074 75.0469V74.0762H97.0293V76.9473H89.8926V78.041H97.3711V79.0391H88.6211V76.0039H95.7441V75.0469H88.6074ZM89.8242 69.2227C89.8174 69.9814 90.8975 70.3711 92.8457 70.3711C94.8076 70.3711 95.8877 69.9814 95.8809 69.2227C95.8877 68.498 94.8076 68.0742 92.8457 68.0742C90.8975 68.0742 89.8174 68.498 89.8242 69.2227ZM107.023 68.7031C107.017 70.2959 108.151 71.793 109.977 72.3672L109.293 73.3926C107.967 72.9346 106.955 71.9912 106.422 70.7949C105.889 72.1689 104.822 73.2354 103.346 73.7617L102.662 72.7363C104.604 72.0732 105.731 70.4941 105.738 68.7305V67.541H107.023V68.7031ZM103.25 78.0273C104.809 77.4805 105.67 76.1816 105.67 74.9922V74.4453H106.914V74.9922C106.907 76.0518 107.42 77.166 108.534 77.8428C109.669 77.1045 110.188 75.915 110.195 74.9922V74.4453H111.467V74.9922C111.467 76.2568 112.301 77.5215 113.9 78.0273L113.244 78.998C112.041 78.5674 111.234 77.7471 110.824 76.7354C110.435 77.7197 109.71 78.6357 108.568 79.1074C107.379 78.6494 106.647 77.7812 106.271 76.7695C105.841 77.7402 105.041 78.5674 103.906 78.998L103.25 78.0273ZM111.111 73.9121V66.9121H112.41V69.8379H114.188V70.918H112.41V73.9121H111.111ZM124.428 66.9121V71.6562H126.396V72.7227H124.428V79.1895H123.129V66.9121H124.428ZM115.404 76.1406V68.0879H121.133V69.1406H116.703V75.0605C118.761 75.0537 120.299 74.9648 122.049 74.6504L122.213 75.7441C120.292 76.0859 118.665 76.1475 116.389 76.1406H115.404ZM133.232 67.9512V68.9902H135.898V66.9258H137.197V75.8535H135.898V72.6816H133.232V73.748H127.545V67.9512H133.232ZM128.83 72.7227H131.961V69.0039H128.83V72.7227ZM129.199 78.9023V75.0332H130.512V77.8496H137.471V78.9023H129.199ZM133.232 71.6152H135.898V70.0566H133.232V71.6152ZM153.713 76.5371V77.6035H142.502V76.5371H147.41V73.625H148.695V76.5371H153.713ZM142.885 72.7773C145.243 72.3809 147.349 70.5625 147.355 68.6211V67.6914H148.723V68.6211C148.723 70.5625 150.855 72.3809 153.221 72.7773L152.66 73.8438C150.671 73.4541 148.853 72.2236 148.046 70.5488C147.239 72.2168 145.435 73.4541 143.459 73.8438L142.885 72.7773ZM164.746 66.9121V79.1895H163.447V66.9121H164.746ZM155.285 76.25V67.9375H156.584V71.082H159.879V67.9375H161.164V76.25H155.285ZM156.584 75.1836H159.879V72.1074H156.584V75.1836ZM170.967 70.5215C170.96 72.4561 172.238 74.6162 174.098 75.498L173.359 76.5098C171.985 75.8535 170.892 74.4727 170.338 72.873C169.777 74.6162 168.629 76.127 167.234 76.8242L166.469 75.7988C168.328 74.9033 169.675 72.5928 169.682 70.5215V69.2227H166.92V68.1426H173.633V69.2227H170.967V70.5215ZM174.945 79.1621V66.9121H176.244V71.7656H178.213V72.8594H176.244V79.1621H174.945ZM179.225 78V76.9062L182.656 73.4473C183.743 72.3193 184.283 71.6904 184.283 70.8223C184.283 69.8447 183.49 69.2227 182.451 69.2227C181.351 69.2227 180.653 69.9199 180.646 70.9727H179.225C179.211 69.1611 180.592 67.9648 182.479 67.9648C184.386 67.9648 185.705 69.1748 185.719 70.7812C185.705 71.8887 185.186 72.7705 183.326 74.5957L181.316 76.6328V76.7148H185.883V78H179.225ZM187.113 76.0723V74.8555L191.488 68.1016H193.348V74.8008H194.701V76.0723H193.348V78H191.926V76.0723H187.113ZM188.699 74.8008H191.926V69.8926H191.816L188.699 74.7188V74.8008ZM206.336 66.9121V79.1621H205.092V66.9121H206.336ZM195.932 72.2031C195.932 69.5508 196.971 67.8896 198.57 67.8965C200.061 67.8896 201.065 69.3047 201.216 71.6016H202.604V67.1445H203.848V78.5605H202.604V72.6543H201.223C201.106 75.0469 200.088 76.5303 198.57 76.5234C196.971 76.5303 195.932 74.8623 195.932 72.2031ZM197.135 72.2031C197.135 74.1514 197.688 75.2998 198.57 75.293C199.473 75.2998 200.033 74.1514 200.033 72.2031C200.033 70.248 199.473 69.1064 198.57 69.1133C197.688 69.1064 197.135 70.248 197.135 72.2031ZM212.311 70.0293C212.311 72.2715 213.568 74.5068 215.441 75.3477L214.648 76.3867C213.261 75.6895 212.208 74.3086 211.668 72.6338C211.128 74.3975 210.062 75.8877 208.646 76.6191L207.826 75.5664C209.727 74.6572 210.991 72.2988 210.998 70.0293V67.9375H212.311V70.0293ZM214.088 72.0391V70.9863H216.822V66.9121H218.107V79.1895H216.822V72.0391H214.088ZM233.051 66.9121V71.1094H234.801V72.1895H233.051V76.4824H231.752V66.9121H233.051ZM223.33 74.1035C224.273 74.1035 225.374 74.1035 226.529 74.0625V73.208C225.135 73.0439 224.246 72.374 224.26 71.3691C224.246 70.1797 225.415 69.4688 227.172 69.4824C228.929 69.4688 230.077 70.1797 230.084 71.3691C230.077 72.374 229.209 73.0439 227.828 73.2012V74.001C228.922 73.9395 230.029 73.8369 231.055 73.6797L231.164 74.5957C228.553 75.0879 225.606 75.1221 223.467 75.1426L223.33 74.1035ZM223.645 69.0039V68.0469H226.529V66.8711H227.828V68.0469H230.713V69.0039H223.645ZM225.135 78.9023V75.8398H226.434V77.8496H233.488V78.9023H225.135ZM225.49 71.3691C225.49 71.9639 226.126 72.3398 227.172 72.3398C228.204 72.3398 228.847 71.9639 228.84 71.3691C228.847 70.7334 228.204 70.3643 227.172 70.3711C226.126 70.3643 225.49 70.7334 225.49 71.3691ZM238.26 67.1035V68.1699H243.934V67.1035H245.232V71.1641H236.975V67.1035H238.26ZM235.512 73.1055V72.0527H246.682V73.1055H241.732V74.1582H245.273V77.0156H238.137V78.041H245.615V79.0391H236.865V76.0859H243.988V75.1289H236.852V74.1582H240.434V73.1055H235.512ZM238.26 70.1797H243.934V69.127H238.26V70.1797ZM249.006 74.6367C248.473 74.6299 248.028 74.1992 248.035 73.666C248.028 73.1328 248.473 72.6953 249.006 72.6953C249.532 72.6953 249.97 73.1328 249.977 73.666C249.97 74.1992 249.532 74.6299 249.006 74.6367ZM257.578 67.9922C257.571 69.6191 259.561 71.1436 261.967 71.4648L261.461 72.5312C259.458 72.21 257.701 71.1709 256.901 69.7285C256.102 71.1709 254.345 72.21 252.355 72.5312L251.836 71.4648C254.235 71.1436 256.218 69.6396 256.225 67.9922V67.3223H257.578V67.9922ZM251.303 74.8008V73.7344H262.473V74.8008H257.496V79.1621H256.225V74.8008H251.303ZM273.574 66.9121V79.1895H272.275V66.9121H273.574ZM264.086 69.0723V68.0195H269.828V72.4902H265.426V75.1699C267.415 75.1631 269.145 75.0674 271.195 74.7324L271.318 75.7988C269.151 76.1611 267.306 76.2432 265.139 76.25H264.1V71.4512H268.502V69.0723H264.086ZM289.078 66.9258V75.8945H287.779V66.9258H289.078ZM278.988 73.1328C280.909 72.4219 282.044 70.6582 282.051 68.8125V67.5957H283.377V68.8125C283.37 70.6035 284.505 72.2441 286.398 72.9004L285.729 73.9395C284.313 73.4131 283.268 72.374 282.721 71.0479C282.181 72.4697 281.121 73.6045 279.686 74.1582L278.988 73.1328ZM281.066 78.9023V75.0469H282.379V77.8496H289.447V78.9023H281.066ZM295.312 69.5234C295.312 70.9658 296.495 72.3125 298.361 72.832L297.746 73.8438C296.324 73.4404 295.258 72.5654 294.697 71.4307C294.164 72.6953 293.098 73.7002 291.635 74.1582L291.02 73.1602C292.879 72.5654 294.027 71.1025 294.027 69.5234V69.373H291.361V68.334H294.027V66.8574H295.326V68.334H297.979V69.373H295.312V69.5234ZM292.988 76.8652C292.981 75.4297 294.561 74.6162 297.131 74.6094C299.694 74.6162 301.267 75.4297 301.273 76.8652C301.267 78.3076 299.694 79.1416 297.131 79.1348C294.561 79.1416 292.981 78.3076 292.988 76.8652ZM294.273 76.8652C294.267 77.6582 295.333 78.1299 297.131 78.1367C298.929 78.1299 299.981 77.6582 299.988 76.8652C299.981 76.0723 298.929 75.6211 297.131 75.6211C295.333 75.6211 294.267 76.0723 294.273 76.8652ZM297.596 71.4102V70.3438H299.934V66.9121H301.232V74.3359H299.934V71.4102H297.596ZM316.08 66.9121V71.793H317.98V72.873H316.08V79.1484H314.781V66.9121H316.08ZM306.551 75.8809C309.62 74.3496 311.288 72.1348 311.555 69.2773H307.166V68.1973H312.881C312.867 71.7383 311.309 74.9033 307.275 76.8926L306.551 75.8809ZM328.535 70.2207V71.2734H320.127V67.1309H321.412V70.2207H328.535ZM318.637 73.6387V72.5723H329.82V73.6387H318.637ZM319.963 76.8652C319.963 75.4365 321.556 74.6299 324.215 74.6367C326.854 74.6299 328.433 75.4365 328.439 76.8652C328.433 78.3008 326.854 79.1074 324.215 79.1074C321.556 79.1074 319.963 78.3008 319.963 76.8652ZM321.275 76.8652C321.269 77.6514 322.342 78.1025 324.215 78.1094C326.061 78.1025 327.141 77.6514 327.141 76.8652C327.141 76.0723 326.061 75.6553 324.215 75.6484C322.342 75.6553 321.269 76.0723 321.275 76.8652ZM332.992 68.1016L332.869 75.1426H331.516L331.393 68.1016H332.992ZM331.229 77.125C331.222 76.5918 331.666 76.1543 332.199 76.1543C332.726 76.1543 333.163 76.5918 333.17 77.125C333.163 77.6582 332.726 78.0889 332.199 78.0957C331.666 78.0889 331.222 77.6582 331.229 77.125ZM45.1992 88.6777V89.7578C45.1992 90.9199 45.1992 92.1846 44.8574 93.9277H46.6211V94.9941H41.6582V100.176H40.3457V94.9941H35.4512V93.9277H43.5449C43.9072 92.1777 43.9072 90.8994 43.9141 89.7578V89.7441H36.8184V88.6777H45.1992ZM58.0918 87.9121V100.162H56.8477V93.7773H55.3301V99.5605H54.0996V88.1445H55.3301V92.7109H56.8477V87.9121H58.0918ZM47.9609 96.9355V89.293H52.7188V96.9355H47.9609ZM49.1914 95.8965H51.502V90.3184H49.1914V95.8965ZM66.459 88.623C67.4775 88.6162 68.3457 88.999 68.9199 89.6348H71.9824V87.9121H73.2812V95.1445H71.9824V93.4902H68.9131C68.3389 94.1191 67.4707 94.4951 66.459 94.4883C64.6133 94.4951 63.2393 93.2715 63.2461 91.5625C63.2393 89.833 64.6133 88.6162 66.459 88.623ZM64.4902 91.5625C64.4834 92.6357 65.3105 93.3945 66.459 93.3809C67.5732 93.3945 68.4004 92.6357 68.4004 91.5625C68.4004 90.4619 67.5732 89.7305 66.459 89.7441C65.3105 89.7305 64.4834 90.4619 64.4902 91.5625ZM65.0371 97.7832C65.0303 96.2861 66.6162 95.4111 69.1797 95.418C71.7295 95.4111 73.3154 96.2861 73.3223 97.7832C73.3154 99.2734 71.7295 100.142 69.1797 100.135C66.6162 100.142 65.0303 99.2734 65.0371 97.7832ZM66.3086 97.7832C66.3018 98.624 67.3818 99.1162 69.1797 99.1094C70.9775 99.1162 72.0508 98.624 72.0508 97.7832C72.0508 96.9082 70.9775 96.4229 69.1797 96.416C67.3818 96.4229 66.3018 96.9082 66.3086 97.7832ZM69.5146 90.6738C69.5967 90.9473 69.6445 91.248 69.6445 91.5625C69.6445 91.8633 69.5967 92.1572 69.5146 92.4238H71.9824V90.6738H69.5146ZM81.4434 88.9922C81.4365 90.6191 83.4258 92.1436 85.832 92.4648L85.3262 93.5312C83.3232 93.21 81.5664 92.1709 80.7666 90.7285C79.9668 92.1709 78.21 93.21 76.2207 93.5312L75.7012 92.4648C78.1006 92.1436 80.083 90.6396 80.0898 88.9922V88.3223H81.4434V88.9922ZM75.168 95.8008V94.7344H86.3379V95.8008H81.3613V100.162H80.0898V95.8008H75.168ZM98.4375 93.6816V94.7344H87.2676V93.6816H98.4375ZM87.8555 92.0137C90.0771 91.7744 91.834 90.7764 91.9775 89.5801H88.293V88.5137H97.4395V89.5801H93.7139C93.8643 90.7695 95.5938 91.7744 97.8633 92.0137L97.3984 93.0391C95.2725 92.793 93.5156 91.8975 92.8525 90.6055C92.1758 91.8975 90.4326 92.793 88.3066 93.0391L87.8555 92.0137ZM88.5938 97.9199C88.5938 96.498 90.1865 95.6777 92.8457 95.6777C95.4844 95.6777 97.0635 96.498 97.0703 97.9199C97.0635 99.3418 95.4844 100.142 92.8457 100.135C90.1865 100.142 88.5938 99.3418 88.5938 97.9199ZM89.9062 97.9199C89.8994 98.6924 90.9727 99.1162 92.8457 99.1094C94.6914 99.1162 95.7715 98.6924 95.7715 97.9199C95.7715 97.127 94.6914 96.7031 92.8457 96.6895C90.9727 96.7031 89.8994 97.127 89.9062 97.9199ZM112.738 88.4453V89.0469C112.738 89.8262 112.738 91.0703 112.383 92.7109L111.111 92.5605C111.405 91.2207 111.453 90.2227 111.474 89.4844H108.514V88.4453H112.738ZM102.799 94.707V93.6543H107.967V91.2891H109.252V93.6543H113.941V94.707H102.799ZM103.742 89.4844V88.4453H107.516V88.8965C107.502 89.6279 107.502 90.9473 106.914 92.7246L105.67 92.5469C106.101 91.1865 106.203 90.1885 106.23 89.4844H103.742ZM104.016 96.9629V95.9102H112.561V100.094H111.234V96.9629H104.016ZM129.514 97.5645V98.6445H118.303V97.5645H123.238V95.0488H119.588V88.7461H120.887V90.8516H126.902V88.7461H128.188V95.0488H124.523V97.5645H129.514ZM120.887 93.9961H126.902V91.9043H120.887V93.9961ZM137.225 88.8418V89.5254C137.211 90.3457 137.211 91.5625 136.91 93.1484L135.625 93.0254C135.892 91.6719 135.933 90.6807 135.946 89.9082H131.045V88.8418H137.225ZM130.307 94.2012C131.059 94.2012 131.913 94.1943 132.809 94.1738V91.5898H134.094V94.1328C135.406 94.0781 136.76 93.9824 137.99 93.8047L138.072 94.748C135.516 95.1992 132.59 95.2471 130.43 95.2539L130.307 94.2012ZM132.166 99.9023V96.2793H133.465V98.8496H140.492V99.9023H132.166ZM138.77 97.1133V87.9121H140.096V91.8086H141.777V92.9023H140.096V97.1133H138.77ZM152.045 87.9121V92.875H154.014V93.9551H152.045V100.162H150.76V87.9121H152.045ZM142.434 90.8926V89.8262H145.455V88.0762H146.754V89.8262H149.693V90.8926H142.434ZM143.062 94.6387C143.062 92.9707 144.348 91.7949 146.111 91.7949C147.868 91.7949 149.153 92.9707 149.16 94.6387C149.153 96.3203 147.868 97.4893 146.111 97.4961C144.348 97.4893 143.062 96.3203 143.062 94.6387ZM144.307 94.6387C144.3 95.7051 145.065 96.416 146.111 96.4023C147.15 96.416 147.909 95.7051 147.916 94.6387C147.909 93.5928 147.15 92.8682 146.111 92.8613C145.065 92.8682 144.3 93.5928 144.307 94.6387ZM158.334 91.2617C158.334 93.2168 159.154 95.3018 160.795 96.3066L160.07 97.3047C158.922 96.6143 158.149 95.3906 157.726 93.9756C157.281 95.5273 156.434 96.8535 155.244 97.5781L154.438 96.6074C156.167 95.5684 157.083 93.4014 157.076 91.3164V89.0332H158.334V91.2617ZM159.469 93.2988V92.2188H161.369V88.1445H162.6V99.5605H161.369V93.2988H159.469ZM163.898 100.162V87.9121H165.143V100.162H163.898ZM177.912 97.5508V98.6309H166.701V97.5508H169.381V94.3516C168.376 93.7979 167.761 92.9229 167.768 91.8223C167.761 89.8945 169.654 88.6299 172.279 88.623C174.911 88.6299 176.805 89.8945 176.805 91.8223C176.805 92.9023 176.217 93.7705 175.232 94.3242V97.5508H177.912ZM169.025 91.8223C169.025 93.1348 170.358 93.9893 172.279 93.9961C174.187 93.9893 175.54 93.1348 175.547 91.8223C175.54 90.5029 174.187 89.6621 172.279 89.6621C170.358 89.6621 169.025 90.5029 169.025 91.8223ZM170.666 97.5508H173.92V94.8301C173.421 94.9463 172.867 95.0078 172.279 95.0078C171.705 95.0078 171.158 94.9463 170.666 94.8301V97.5508ZM180.195 99.0957C179.662 99.0889 179.218 98.6582 179.225 98.125C179.218 97.5918 179.662 97.1543 180.195 97.1543C180.722 97.1543 181.159 97.5918 181.166 98.125C181.159 98.6582 180.722 99.0889 180.195 99.0957Z" fill="#555555"/>
<defs>
<filter id="filter0_d_228_1727" x="0" y="0" width="391" height="157" filterUnits="userSpaceOnUse" color-interpolation-filters="sRGB">
<feFlood flood-opacity="0" result="BackgroundImageFix"/>
<feColorMatrix in="SourceAlpha" type="matrix" values="0 0 0 0 0 0 0 0 0 0 0 0 0 0 0 0 0 0 127 0" result="hardAlpha"/>
<feOffset/>
<feGaussianBlur stdDeviation="7.5"/>
<feComposite in2="hardAlpha" operator="out"/>
<feColorMatrix type="matrix" values="0 0 0 0 0 0 0 0 0 0 0 0 0 0 0 0 0 0 0.1 0"/>
<feBlend mode="normal" in2="BackgroundImageFix" result="effect1_dropShadow_228_1727"/>
<feBlend mode="normal" in="SourceGraphic" in2="effect1_dropShadow_228_1727" result="shape"/>
</filter>
</defs>
</svg>
