<svg width="391" height="157" viewBox="0 0 391 157" fill="none" xmlns="http://www.w3.org/2000/svg">
<g filter="url(#filter0_d_228_1721)">
<rect x="15" y="15" width="361" height="127" rx="15" fill="#5C7DF2"/>
</g>
<rect x="19" y="15" width="357" height="127" rx="15" fill="white"/>
<path d="M35 50.12H51V34.12H35V50.12ZM67.0938 36.2344V46.6094H65.1094V41.5156H62.7812V39.9062H65.1094V36.2344H67.0938ZM55.0312 43.4062C57.3828 42.6719 58.4453 40.8203 58.4531 39V38.7812H55.5938V37.1875H63.3125V38.7812H60.4844V39.0156C60.4766 40.6641 61.4922 42.4219 63.75 43.1562L62.7656 44.7344C61.1953 44.2188 60.1094 43.1875 59.4922 41.9141C58.8594 43.3281 57.7266 44.4766 56.0469 45.0312L55.0312 43.4062ZM57.6562 50.1875V45.7031H59.6562V48.5938H67.4375V50.1875H57.6562ZM72.9375 36.875C75.1406 36.8672 76.7734 38.2578 76.7812 40.2188C76.7734 42.2422 75.1406 43.625 72.9375 43.625C70.7109 43.625 69.0625 42.2422 69.0625 40.2188C69.0625 38.2578 70.7109 36.8672 72.9375 36.875ZM70.875 50.2812V44.5312H72.875V45.875H78.2188V44.5312H80.2188V50.2812H70.875ZM71.0156 40.2188C71.0078 41.3203 71.8203 41.9531 72.9375 41.9688C74.0312 41.9531 74.8359 41.3203 74.8438 40.2188C74.8359 39.1641 74.0312 38.5078 72.9375 38.5156C71.8203 38.5078 71.0078 39.1641 71.0156 40.2188ZM72.875 48.6875H78.2188V47.4062H72.875V48.6875ZM78.2188 43.9375V36.2188H80.2188V39.2188H82.1406V40.8438H80.2188V43.9375H78.2188ZM84.6094 45.3594C83.875 45.3594 83.2812 44.7734 83.2969 44.0469C83.2812 43.3281 83.875 42.7422 84.6094 42.75C85.3047 42.7422 85.9062 43.3281 85.9062 44.0469C85.9062 44.7734 85.3047 45.3594 84.6094 45.3594ZM99.0938 36.6094V38.0938H97.2344V39.9688H99V41.4531H88.5156V39.9688H90.2656V38.0938H88.4219V36.6094H99.0938ZM87.2812 43.7656V42.2031H100.25V43.7656H87.2812ZM88.7812 46.0156V44.5781H98.6719V48.0938H90.75V48.875H99.0469V50.3438H88.7969V46.7344H96.7031V46.0156H88.7812ZM92.2656 39.9688H95.2344V38.0938H92.2656V39.9688ZM113.094 36.2188V50.4688H111.109V42.9688H108.812V41.3438H111.109V36.2188H113.094ZM101.578 39.0156V37.4062H108.016V42.7344H103.594V45.5156C105.555 45.5 107.211 45.4297 109.047 45.1094L109.203 46.7344C107.094 47.0859 105.164 47.1641 102.781 47.1562H101.609V41.1562H106.078V39.0156H101.578ZM126.312 37.5312V39.2344C126.305 41.1875 126.305 43.1172 125.797 46.0625L123.781 45.8906C124.32 43.1562 124.32 41.125 124.328 39.2344V39.125H116.281V37.5312H126.312ZM114.938 48.5781V46.9375H127.906V48.5781H114.938ZM144.844 38.0156V39.6094H133.016V38.0156H137.938V36.3594H139.906V38.0156H144.844ZM132.453 48.9844V47.3906H137.938V45.7578C135.516 45.5391 134.047 44.5469 134.062 42.9844C134.047 41.2578 135.914 40.2266 138.922 40.2344C141.875 40.2266 143.773 41.2578 143.766 42.9844C143.773 44.5469 142.289 45.5391 139.906 45.75V47.3906H145.469V48.9844H132.453ZM136.109 42.9844C136.102 43.8281 137.078 44.2109 138.922 44.2031C140.727 44.2109 141.719 43.8281 141.719 42.9844C141.719 42.1719 140.727 41.7891 138.922 41.7812C137.078 41.7891 136.102 42.1719 136.109 42.9844ZM157.656 36.2188V40.8906H159.469V42.5312H157.656V47.3125H155.656V36.2188H157.656ZM146.125 44.3906C147.148 44.3906 148.336 44.3828 149.578 44.3438V43.5234C148.031 43.3047 147.07 42.5391 147.078 41.4219C147.07 40.0156 148.453 39.1953 150.562 39.2031C152.656 39.1953 154.039 40.0156 154.047 41.4219C154.039 42.5312 153.086 43.2969 151.562 43.5234V44.25C152.727 44.1797 153.898 44.0703 155 43.9062L155.141 45.2812C152.148 45.8594 148.781 45.8984 146.328 45.9219L146.125 44.3906ZM146.5 38.7969V37.375H149.578V36.1719H151.562V37.375H154.641V38.7969H146.5ZM148.125 50.1875V46.5781H150.125V48.5938H158.141V50.1875H148.125ZM148.984 41.4219C148.977 41.9531 149.547 42.2578 150.562 42.25C151.562 42.2578 152.133 41.9531 152.141 41.4219C152.133 40.8203 151.562 40.5312 150.562 40.5312C149.547 40.5312 148.977 40.8203 148.984 41.4219ZM175.484 36.7969V37.6719C175.484 38.6641 175.484 40.0391 175.047 41.8125L173.094 41.5938C173.438 40.25 173.516 39.2188 173.539 38.375H170.391V36.7969H175.484ZM163.828 44.2812V42.6875H169.547V40.1875H171.516V42.6875H176.734V44.2812H163.828ZM164.859 38.375V36.7969H169.297V37.4062C169.297 38.3281 169.297 39.8438 168.562 41.8281L166.641 41.5625C167.117 40.1953 167.266 39.1562 167.32 38.375H164.859ZM165.203 47.0156V45.4219H175.156V50.3594H173.141V47.0156H165.203ZM192.688 36.2344V40.2969H194.5V41.9375H192.688V45.8906H190.688V36.2344H192.688ZM181.156 44.0625C182.195 44.0625 183.375 44.0625 184.609 44.0312V43.2344C183.062 43.0156 182.102 42.2578 182.109 41.1719C182.102 39.8516 183.484 39.0391 185.594 39.0469C187.688 39.0391 189.07 39.8516 189.078 41.1719C189.07 42.2578 188.117 43.0078 186.594 43.2266V43.9609C187.766 43.8984 188.938 43.8125 190.031 43.6719L190.172 45.0469C187.164 45.5781 183.867 45.6094 181.359 45.6094L181.156 44.0625ZM181.531 38.7188V37.2656H184.609V36.1094H186.594V37.2656H189.672V38.7188H181.531ZM182.969 48V46.4688H192.688V50.4375H190.688V48H182.969ZM184.016 41.1719C184.008 41.6875 184.578 41.9922 185.594 41.9844C186.594 41.9922 187.164 41.6875 187.172 41.1719C187.164 40.6172 186.594 40.375 185.594 40.375C184.578 40.375 184.008 40.6172 184.016 41.1719ZM207.047 36.2344V46.4531H205.047V36.2344H207.047ZM195.359 40.7188C195.359 38.6328 197.062 37.1328 199.25 37.1406C201.43 37.1328 203.133 38.6328 203.141 40.7188C203.133 42.8359 201.43 44.3281 199.25 44.3281C197.062 44.3281 195.359 42.8359 195.359 40.7188ZM197.312 40.7188C197.297 41.9062 198.133 42.5938 199.25 42.5938C200.328 42.5938 201.164 41.9062 201.172 40.7188C201.164 39.5625 200.328 38.8672 199.25 38.875C198.133 38.8672 197.297 39.5625 197.312 40.7188ZM197.516 50.1875V45.4219H199.531V48.5938H207.422V50.1875H197.516Z" fill="#5C7DF2"/>
<path d="M41.5078 68.9355V69.9883H35.4238V68.9355H37.8301V67.2676H39.1152V68.9355H41.5078ZM35.8203 73.543C35.8135 71.8955 36.9346 70.7266 38.4727 70.7266C40.0244 70.7266 41.1318 71.8955 41.1387 73.543C41.1318 75.2178 40.0244 76.3936 38.4727 76.3867C36.9346 76.3936 35.8135 75.2178 35.8203 73.543ZM36.9688 73.543C36.9619 74.582 37.5908 75.2793 38.4727 75.2793C39.3545 75.2793 39.9902 74.582 39.9902 73.543C39.9902 72.5244 39.3545 71.8135 38.4727 71.8066C37.5908 71.8135 36.9619 72.5244 36.9688 73.543ZM42.0684 78.5879V67.1855H43.2988V72.0117H44.707V66.9121H45.9375V79.1621H44.707V73.0781H43.2988V78.5879H42.0684ZM51.543 67.6914C53.4775 67.6914 54.8721 68.8809 54.8789 70.6035C54.8721 72.1279 53.7783 73.2354 52.1855 73.4678V75.4023C53.3408 75.3477 54.5166 75.2451 55.6172 75.0879L55.7129 76.0312C52.9443 76.5439 49.9707 76.5576 47.7832 76.5645L47.6191 75.498C48.583 75.498 49.7041 75.4912 50.8867 75.457V73.4678C49.3008 73.2285 48.2002 72.1211 48.207 70.6035C48.2002 68.8809 49.6152 67.6914 51.543 67.6914ZM49.4922 70.6035C49.4785 71.6768 50.3535 72.4082 51.543 72.3945C52.7324 72.4082 53.6074 71.6768 53.6074 70.6035C53.6074 69.5098 52.7324 68.8125 51.543 68.8125C50.3535 68.8125 49.4785 69.5098 49.4922 70.6035ZM56.3828 79.1895V66.9121H57.6816V79.1895H56.3828ZM73.582 66.9121V79.1621H72.3379V66.9121H73.582ZM62.8906 75.7852C64.627 74.7393 65.5088 72.5107 65.5156 70.3301V69.3457H63.2598V68.293H68.8652V69.3457H66.7598V70.3301C66.7598 72.4219 67.6074 74.5205 69.3301 75.5117L68.5508 76.4688C67.3818 75.7715 66.582 74.5205 66.1514 73.0439C65.7139 74.6436 64.8799 76.0107 63.6836 76.7559L62.8906 75.7852ZM67.9629 72.3125V71.2461H69.8633V67.1719H71.0938V78.5469H69.8633V72.3125H67.9629ZM86.3379 72.7773V73.8164H81.3887V75.1289H84.9707V79.0117H76.5078V75.1289H80.1035V73.8164H75.168V72.7773H86.3379ZM76.1934 68.3477V67.2949H85.2852V68.3477H83.5078V70.6855H85.2305V71.7383H76.248V70.6855H77.9844V68.3477H76.1934ZM77.793 77.959H83.7129V76.1543H77.793V77.959ZM79.2695 70.6855H82.209V68.3477H79.2695V70.6855ZM98.4375 73.3105V74.3496H87.2676V73.3105H98.4375ZM88.4707 69.7695C88.4639 68.2314 90.1797 67.3154 92.8457 67.3223C95.498 67.3154 97.2139 68.2314 97.2207 69.7695C97.2139 71.3145 95.498 72.251 92.8457 72.2578C90.1797 72.251 88.4639 71.3145 88.4707 69.7695ZM88.6758 78.9023V75.3477H89.9883V77.8496H97.1797V78.9023H88.6758ZM89.8105 69.7695C89.8037 70.6787 90.9658 71.1914 92.8457 71.1914C94.7188 71.1914 95.8877 70.6787 95.8809 69.7695C95.8877 68.8945 94.7188 68.3613 92.8457 68.3613C90.9658 68.3613 89.8037 68.8945 89.8105 69.7695ZM112.574 67.4863V68.4023C112.581 69.3047 112.581 70.3848 112.294 71.8066H113.996V72.8594H109.02V74.9512H112.629V79.1621H111.33V75.9902H103.934V74.9512H107.721V72.8594H102.785V71.8066H110.988C111.275 70.4326 111.289 69.4141 111.289 68.5391H104.193V67.4863H112.574ZM125.371 66.9121V79.1621H124.127V72.8867H122.555V78.5332H121.338V67.1582H122.555V71.8203H124.127V66.9121H125.371ZM115.459 76.0449V68.3613H116.758V74.9033C117.886 74.8896 119.123 74.8008 120.518 74.5273L120.654 75.6621C118.973 75.9629 117.571 76.0518 116.252 76.0449H115.459ZM140.615 66.9258V75.8945H139.316V71.2871H136.979V70.2344H139.316V66.9258H140.615ZM130.416 73.3379C132.296 72.7021 133.472 71.0889 133.465 69.4004V68.9219H130.812V67.8555H137.416V68.9219H134.791V69.4004C134.784 70.9248 135.892 72.4629 137.744 73.0781L137.074 74.1172C135.7 73.6387 134.682 72.6543 134.148 71.4375C133.615 72.791 132.542 73.8711 131.086 74.3906L130.416 73.3379ZM132.658 78.9023V75.0879H133.957V77.8496H140.943V78.9023H132.658ZM145.947 67.5137C147.827 67.5137 149.181 68.6826 149.188 70.3574C149.181 72.0664 147.827 73.2285 145.947 73.2148C144.074 73.2285 142.7 72.0664 142.707 70.3574C142.7 68.6826 144.074 67.5137 145.947 67.5137ZM143.979 70.3574C143.965 71.4238 144.799 72.1279 145.947 72.1348C147.096 72.1279 147.923 71.4238 147.93 70.3574C147.923 69.3047 147.096 68.5938 145.947 68.5938C144.799 68.5938 143.965 69.3047 143.979 70.3574ZM144.279 79.0117V74.1172H145.564V75.5254H150.828V74.1172H152.127V79.0117H144.279ZM145.564 77.959H150.828V76.5371H145.564V77.959ZM150.828 73.543V66.9121H152.127V69.6465H153.904V70.7129H152.127V73.543H150.828ZM161.424 68.2246V68.9766C161.417 70.0088 161.417 71.5879 161.068 73.7754L159.783 73.6797C160.098 71.7246 160.132 70.2959 160.139 69.2773H155.162V68.2246H161.424ZM154.479 75.4707C155.244 75.4639 156.099 75.457 156.994 75.4365V71.7246H158.279V75.3955C159.578 75.3408 160.911 75.2588 162.135 75.1016L162.203 76.0723C159.653 76.4824 156.803 76.5371 154.629 76.5234L154.479 75.4707ZM162.832 79.1621V66.9121H164.145V71.9707H166.018V73.0781H164.145V79.1621H162.832ZM176.326 67.7324V73.0098H170.598V67.7324H176.326ZM171.309 78.1094C173.407 77.8086 174.973 76.7764 175.171 75.5801H171.801V74.541H179.936V75.5801H176.579C176.764 76.749 178.356 77.8086 180.441 78.123L179.963 79.1211C178.104 78.834 176.572 77.9795 175.861 76.8174C175.164 77.9863 173.646 78.8271 171.787 79.1074L171.309 78.1094ZM171.869 71.9707H175.055V68.7715H171.869V71.9707ZM178.445 73.8574V66.9121H179.744V69.7559H181.521V70.8359H179.744V73.8574H178.445ZM186.73 70.5215C186.724 72.5723 188.07 74.6914 189.957 75.498L189.246 76.5098C187.804 75.874 186.655 74.5205 186.088 72.8867C185.521 74.6367 184.372 76.127 182.943 76.8242L182.191 75.7988C184.037 74.9307 185.404 72.6338 185.418 70.5215V69.2227H182.615V68.1426H189.52V69.2227H186.73V70.5215ZM191.064 79.1621V66.9121H192.363V79.1621H191.064ZM201.141 67.5684C202.993 67.5752 204.354 68.751 204.354 70.4121C204.354 72.0801 202.993 73.249 201.141 73.2559C199.295 73.249 197.914 72.0801 197.928 70.4121C197.914 68.751 199.295 67.5752 201.141 67.5684ZM198.967 78.834V74.2812H200.238V77.7676C200.956 77.7334 201.783 77.6309 202.562 77.3711L202.754 78.3965C201.612 78.7861 200.512 78.834 199.596 78.834H198.967ZM199.186 70.4121C199.179 71.458 200.033 72.1895 201.141 72.1895C202.255 72.1895 203.096 71.458 203.096 70.4121C203.096 69.373 202.255 68.6484 201.141 68.6484C200.033 68.6484 199.179 69.373 199.186 70.4121ZM202.33 75.3203V74.3223H204.805V73.3242H206.076V74.3223H208.51V75.3203H202.33ZM203.109 77.4258C203.096 76.3594 204.039 75.6826 205.42 75.6758C206.773 75.6826 207.73 76.3594 207.73 77.4258C207.73 78.4785 206.773 79.1416 205.42 79.1348C204.039 79.1416 203.096 78.4785 203.109 77.4258ZM204.258 77.4258C204.258 77.9248 204.743 78.2324 205.42 78.2324C206.083 78.2324 206.562 77.9248 206.568 77.4258C206.562 76.9268 206.083 76.6055 205.42 76.6055C204.743 76.6055 204.258 76.9268 204.258 77.4258ZM206.062 73.0098V66.9121H207.361V69.5918H209.139V70.6719H207.361V73.0098H206.062ZM215.414 67.1172C218.176 67.1104 219.782 67.8555 219.789 69.2227C219.782 70.5967 218.176 71.3418 215.414 71.3418C212.652 71.3418 211.032 70.5967 211.039 69.2227C211.032 67.8555 212.652 67.1104 215.414 67.1172ZM209.836 73.1328V72.0938H221.006V73.1328H209.836ZM211.176 75.0469V74.0762H219.598V76.9473H212.461V78.041H219.939V79.0391H211.189V76.0039H218.312V75.0469H211.176ZM212.393 69.2227C212.386 69.9814 213.466 70.3711 215.414 70.3711C217.376 70.3711 218.456 69.9814 218.449 69.2227C218.456 68.498 217.376 68.0742 215.414 68.0742C213.466 68.0742 212.386 68.498 212.393 69.2227ZM231.629 67.9922C231.622 69.6191 233.611 71.1436 236.018 71.4648L235.512 72.5312C233.509 72.21 231.752 71.1709 230.952 69.7285C230.152 71.1709 228.396 72.21 226.406 72.5312L225.887 71.4648C228.286 71.1436 230.269 69.6396 230.275 67.9922V67.3223H231.629V67.9922ZM225.354 74.8008V73.7344H236.523V74.8008H231.547V79.1621H230.275V74.8008H225.354ZM245.123 75.0059C245.123 76.0586 245.643 77.1729 246.757 77.8359C247.878 77.1182 248.432 75.9492 248.432 75.0059V74.418H249.703V75.0059C249.696 76.2773 250.537 77.5078 252.137 78.0273L251.494 78.9844C250.284 78.5674 249.457 77.7471 249.033 76.749C248.644 77.7334 247.912 78.6289 246.791 79.0938C245.615 78.6494 244.87 77.7812 244.494 76.7832C244.05 77.7471 243.243 78.5605 242.088 78.9844L241.432 78.0273C243.004 77.4668 243.858 76.1885 243.865 75.0059V74.418H245.123V75.0059ZM241.117 70.4941C241.124 68.7783 242.505 67.6025 244.385 67.5957C246.258 67.6025 247.639 68.7783 247.639 70.4941C247.639 72.1895 246.258 73.3652 244.385 73.3652C242.505 73.3652 241.124 72.1895 241.117 70.4941ZM242.389 70.4941C242.382 71.5605 243.223 72.2852 244.385 72.2852C245.533 72.2852 246.367 71.5605 246.367 70.4941C246.367 69.4209 245.533 68.6963 244.385 68.7031C243.223 68.6963 242.382 69.4209 242.389 70.4941ZM249.73 73.8984V66.9258H251.029V73.8984H249.73ZM256.293 67.8281C257.961 67.835 259.171 69.2432 259.369 71.5059H261.898V66.9121H263.184V79.1895H261.898V72.5586H259.383C259.239 74.9512 258.002 76.4346 256.293 76.4277C254.468 76.4346 253.176 74.7666 253.189 72.1211C253.176 69.5029 254.468 67.835 256.293 67.8281ZM254.42 72.1211C254.427 74.0693 255.186 75.2656 256.293 75.2656C257.4 75.2656 258.159 74.0693 258.166 72.1211C258.159 70.2002 257.4 68.9971 256.293 68.9902C255.186 68.9971 254.427 70.2002 254.42 72.1211ZM276.281 76.5508V77.6309H265.07V76.5508H267.75V73.3516C266.745 72.7979 266.13 71.9229 266.137 70.8223C266.13 68.8945 268.023 67.6299 270.648 67.623C273.28 67.6299 275.174 68.8945 275.174 70.8223C275.174 71.9023 274.586 72.7705 273.602 73.3242V76.5508H276.281ZM267.395 70.8223C267.395 72.1348 268.728 72.9893 270.648 72.9961C272.556 72.9893 273.909 72.1348 273.916 70.8223C273.909 69.5029 272.556 68.6621 270.648 68.6621C268.728 68.6621 267.395 69.5029 267.395 70.8223ZM269.035 76.5508H272.289V73.8301C271.79 73.9463 271.236 74.0078 270.648 74.0078C270.074 74.0078 269.527 73.9463 269.035 73.8301V76.5508ZM278.564 78.0957C278.031 78.0889 277.587 77.6582 277.594 77.125C277.587 76.5918 278.031 76.1543 278.564 76.1543C279.091 76.1543 279.528 76.5918 279.535 77.125C279.528 77.6582 279.091 78.0889 278.564 78.0957ZM41.7539 88.541V90.4961H44.3652V87.9121H45.6504V94.1465H44.3652V91.5352H41.7539V93.5996H35.998V88.541H41.7539ZM37.2832 92.5605H40.4688V89.5664H37.2832V92.5605ZM37.6387 95.7598V94.748H45.6504V97.7969H38.9648V98.9727H46.0879V100.012H37.666V96.8262H44.3652V95.7598H37.6387ZM54.3594 88.9922V90.0586H49.5879V92.4238H53.8945V93.4629H49.5879V96.2109C51.7275 96.1973 53.2793 96.1221 55.0977 95.8281L55.2344 96.8809C53.293 97.1953 51.6113 97.2568 49.3008 97.2637H48.3027V88.9922H54.3594ZM56.4238 100.162V87.9121H57.7363V100.162H56.4238ZM66.3906 88.8281C68.0586 88.835 69.2686 90.2432 69.4668 92.5059H71.9961V87.9121H73.2812V100.189H71.9961V93.5586H69.4805C69.3369 95.9512 68.0996 97.4346 66.3906 97.4277C64.5654 97.4346 63.2734 95.7666 63.2871 93.1211C63.2734 90.5029 64.5654 88.835 66.3906 88.8281ZM64.5176 93.1211C64.5244 95.0693 65.2832 96.2656 66.3906 96.2656C67.498 96.2656 68.2568 95.0693 68.2637 93.1211C68.2568 91.2002 67.498 89.9971 66.3906 89.9902C65.2832 89.9971 64.5244 91.2002 64.5176 93.1211ZM85.6133 87.9258V94.6113H84.3828V91.8223H82.8789V94.4883H81.6621V88.1445H82.8789V90.7559H84.3828V87.9258H85.6133ZM75.6875 94.1738V88.7734H80.418V89.8262H76.9727V93.1074C78.5039 93.1006 79.6387 93.0391 80.9375 92.7656L81.0605 93.8184C79.5635 94.126 78.3193 94.1807 76.4941 94.1738H75.6875ZM77.4375 99.998V95.1445H78.7227V96.5117H84.3418V95.1445H85.6133V99.998H77.4375ZM78.7227 98.9316H84.3418V97.5234H78.7227V98.9316ZM97.4805 87.9121V100.189H96.1953V93.5039H93.7617V92.4375H96.1953V87.9121H97.4805ZM87.8281 97.291V89.0059H93.5566V90.0586H89.1406V92.4375H93.0371V93.4766H89.1406V96.2109C91.1914 96.2109 92.6133 96.1494 94.2402 95.8691L94.377 96.9219C92.5928 97.209 91.0547 97.2842 88.7852 97.291H87.8281ZM110.811 92.7246V93.791H108.91V100.148H107.611V87.9121H108.91V92.7246H110.811ZM99.832 97.0723V89.1016H101.117V95.9922C102.826 95.9854 104.61 95.8418 106.559 95.4453L106.709 96.5391C104.61 96.9561 102.683 97.0791 100.844 97.0723H99.832ZM125.098 87.9258V96.9766H123.799V93.791H121.119V94.9395H115.473V88.7324H116.771V90.8105H119.834V88.7324H121.119V90.0996H123.799V87.9258H125.098ZM116.771 93.8867H119.834V91.8086H116.771V93.8867ZM117.1 99.9023V96.0879H118.412V98.8496H125.371V99.9023H117.1ZM121.119 92.7383H123.799V91.166H121.119V92.7383ZM130.43 88.5137C132.31 88.5137 133.663 89.6826 133.67 91.3574C133.663 93.0664 132.31 94.2285 130.43 94.2148C128.557 94.2285 127.183 93.0664 127.189 91.3574C127.183 89.6826 128.557 88.5137 130.43 88.5137ZM128.461 91.3574C128.447 92.4238 129.281 93.1279 130.43 93.1348C131.578 93.1279 132.405 92.4238 132.412 91.3574C132.405 90.3047 131.578 89.5938 130.43 89.5938C129.281 89.5938 128.447 90.3047 128.461 91.3574ZM128.762 100.012V95.1172H130.047V96.5254H135.311V95.1172H136.609V100.012H128.762ZM130.047 98.959H135.311V97.5371H130.047V98.959ZM135.311 94.543V87.9121H136.609V90.6465H138.387V91.7129H136.609V94.543H135.311ZM149.27 87.9121V100.162H147.957V87.9121H149.27ZM139.207 96.8809C142.461 95.3291 144.054 93.1211 144.307 90.2637H139.795V89.2246H145.619C145.619 92.8135 144.095 95.917 139.891 97.9336L139.207 96.8809ZM164.773 88.5V89.5391H161.041C161.116 90.8721 162.88 92.0479 165.156 92.3281L164.664 93.3535C162.565 93.0801 160.843 92.1025 160.187 90.7285C159.517 92.1025 157.801 93.0801 155.709 93.3535L155.217 92.3281C157.507 92.0479 159.257 90.8652 159.318 89.5391H155.627V88.5H164.773ZM154.588 95.1992V94.1465H165.799V95.1992H160.932V97.5781H159.646V95.1992H154.588ZM155.982 99.9023V96.4023H157.281V98.8496H164.555V99.9023H155.982ZM176.846 87.9121V100.189H175.547V87.9121H176.846ZM167.385 97.25V88.9375H168.684V92.082H171.979V88.9375H173.264V97.25H167.385ZM168.684 96.1836H171.979V93.1074H168.684V96.1836ZM190.012 97.6055V98.6992H178.801V97.6055H183.736V95.459H180.168V91.5625H187.359V89.8398H180.141V88.7734H188.645V92.6016H181.453V94.3926H188.932V95.459H185.021V97.6055H190.012ZM203.916 87.9121V93.0391H205.762V94.1328H203.916V100.162H202.617V87.9121H203.916ZM194.168 96.8262C195.132 96.8262 196.253 96.8262 197.422 96.792V95.5479C196.041 95.3428 195.139 94.5088 195.152 93.3262C195.139 91.9453 196.335 91.0361 198.078 91.0293C199.814 91.0361 201.024 91.9453 201.031 93.3262C201.024 94.5088 200.108 95.3496 198.721 95.5479V96.7441C199.808 96.6895 200.901 96.6006 201.92 96.457L202.002 97.4141C199.35 97.8857 196.485 97.9131 194.373 97.9062L194.168 96.8262ZM194.4 90.4004V89.3613H197.422V87.9395H198.721V89.3613H201.742V90.4004H194.4ZM196.369 93.3262C196.369 94.1055 197.053 94.5908 198.078 94.584C199.104 94.5908 199.78 94.1055 199.787 93.3262C199.78 92.54 199.104 92.041 198.078 92.041C197.053 92.041 196.369 92.54 196.369 93.3262ZM217 87.9121V100.162H215.756V93.873H214.293V99.5605H213.062V88.1445H214.293V92.7793H215.756V87.9121H217ZM206.254 96.7031C208.045 95.6982 208.879 93.5859 208.879 91.1523V90.3594H206.582V89.3066H212.27V90.3594H210.137V91.1523C210.137 93.3535 210.964 95.3496 212.748 96.2656L211.982 97.2637C210.779 96.6074 209.973 95.4658 209.535 94.0576C209.118 95.6641 208.312 96.9492 207.061 97.6875L206.254 96.7031ZM219.912 95.6367C219.379 95.6299 218.935 95.1992 218.941 94.666C218.935 94.1328 219.379 93.6953 219.912 93.6953C220.438 93.6953 220.876 94.1328 220.883 94.666C220.876 95.1992 220.438 95.6299 219.912 95.6367ZM232.121 89.0879V90.291C232.114 91.8018 232.114 93.4971 231.656 96.0059L230.344 95.8691C230.815 93.4971 230.815 91.7607 230.822 90.291V90.1406H223.385V89.0879H232.121ZM222.209 98.5078V97.4277H226.461V93.1074H227.746V97.4277H233.379V98.5078H222.209ZM238.588 90.168C238.581 91.7266 239.668 93.1484 241.527 93.7363L240.912 94.748C239.518 94.3037 238.499 93.3809 237.959 92.2188C237.426 93.5586 236.353 94.6182 234.883 95.1309L234.213 94.0918C236.127 93.4629 237.282 91.8838 237.289 90.1816V89.8398H234.596V88.7871H241.227V89.8398H238.588V90.168ZM235.867 97.8379C235.867 96.4023 237.433 95.5615 239.982 95.5684C242.505 95.5615 244.043 96.4023 244.043 97.8379C244.043 99.2939 242.505 100.142 239.982 100.135C237.433 100.142 235.867 99.2939 235.867 97.8379ZM237.166 97.8379C237.159 98.6582 238.212 99.1162 239.982 99.1094C241.739 99.1162 242.778 98.6582 242.771 97.8379C242.778 97.0381 241.739 96.5869 239.982 96.5938C238.212 96.5869 237.159 97.0381 237.166 97.8379ZM242.635 95.2676V87.9121H243.934V90.9473H245.711V92.0137H243.934V95.2676H242.635ZM260.367 87.9121V100.162H259.123V87.9121H260.367ZM249.963 93.2031C249.963 90.5508 251.002 88.8896 252.602 88.8965C253.647 88.8896 254.454 89.5869 254.892 90.7969H256.676V88.1445H257.906V99.5605H256.676V95.6094H254.898C254.454 96.8262 253.647 97.5303 252.602 97.5234C251.002 97.5303 249.963 95.8623 249.963 93.2031ZM251.152 93.2031C251.146 95.1514 251.692 96.2998 252.602 96.293C253.504 96.2998 254.078 95.1514 254.078 93.2031C254.078 91.248 253.504 90.1064 252.602 90.1133C251.692 90.1064 251.146 91.248 251.152 93.2031ZM255.165 91.8496C255.233 92.2666 255.268 92.7178 255.268 93.2031C255.268 93.6816 255.233 94.1328 255.165 94.543H256.676V91.8496H255.165ZM267.6 95.541C270.122 95.541 271.66 96.3887 271.66 97.8379C271.66 99.3076 270.122 100.155 267.6 100.162C265.05 100.155 263.484 99.3076 263.484 97.8379C263.484 96.3887 265.05 95.541 267.6 95.541ZM262.404 94.3652V88.6777H263.676V90.4414H266.889V88.6777H268.174V94.3652H262.404ZM263.676 93.3262H266.889V91.4668H263.676V93.3262ZM264.783 97.8379C264.776 98.6582 265.829 99.123 267.6 99.123C269.356 99.123 270.396 98.6582 270.389 97.8379C270.396 97.0244 269.356 96.5664 267.6 96.5664C265.829 96.5664 264.776 97.0244 264.783 97.8379ZM270.252 95.2266V87.9121H271.551V90.9062H273.328V92.0137H271.551V95.2266H270.252ZM283.568 87.9121V92.875H285.537V93.9551H283.568V100.162H282.283V87.9121H283.568ZM273.957 90.8926V89.8262H276.979V88.0762H278.277V89.8262H281.217V90.8926H273.957ZM274.586 94.6387C274.586 92.9707 275.871 91.7949 277.635 91.7949C279.392 91.7949 280.677 92.9707 280.684 94.6387C280.677 96.3203 279.392 97.4893 277.635 97.4961C275.871 97.4893 274.586 96.3203 274.586 94.6387ZM275.83 94.6387C275.823 95.7051 276.589 96.416 277.635 96.4023C278.674 96.416 279.433 95.7051 279.439 94.6387C279.433 93.5928 278.674 92.8682 277.635 92.8613C276.589 92.8682 275.823 93.5928 275.83 94.6387ZM289.857 91.2617C289.857 93.2168 290.678 95.3018 292.318 96.3066L291.594 97.3047C290.445 96.6143 289.673 95.3906 289.249 93.9756C288.805 95.5273 287.957 96.8535 286.768 97.5781L285.961 96.6074C287.69 95.5684 288.606 93.4014 288.6 91.3164V89.0332H289.857V91.2617ZM290.992 93.2988V92.2188H292.893V88.1445H294.123V99.5605H292.893V93.2988H290.992ZM295.422 100.162V87.9121H296.666V100.162H295.422ZM309.436 97.5508V98.6309H298.225V97.5508H300.904V94.3516C299.899 93.7979 299.284 92.9229 299.291 91.8223C299.284 89.8945 301.178 88.6299 303.803 88.623C306.435 88.6299 308.328 89.8945 308.328 91.8223C308.328 92.9023 307.74 93.7705 306.756 94.3242V97.5508H309.436ZM300.549 91.8223C300.549 93.1348 301.882 93.9893 303.803 93.9961C305.71 93.9893 307.063 93.1348 307.07 91.8223C307.063 90.5029 305.71 89.6621 303.803 89.6621C301.882 89.6621 300.549 90.5029 300.549 91.8223ZM302.189 97.5508H305.443V94.8301C304.944 94.9463 304.391 95.0078 303.803 95.0078C303.229 95.0078 302.682 94.9463 302.189 94.8301V97.5508ZM311.719 99.0957C311.186 99.0889 310.741 98.6582 310.748 98.125C310.741 97.5918 311.186 97.1543 311.719 97.1543C312.245 97.1543 312.683 97.5918 312.689 98.125C312.683 98.6582 312.245 99.0889 311.719 99.0957Z" fill="#555555"/>
<defs>
<filter id="filter0_d_228_1721" x="0" y="0" width="391" height="157" filterUnits="userSpaceOnUse" color-interpolation-filters="sRGB">
<feFlood flood-opacity="0" result="BackgroundImageFix"/>
<feColorMatrix in="SourceAlpha" type="matrix" values="0 0 0 0 0 0 0 0 0 0 0 0 0 0 0 0 0 0 127 0" result="hardAlpha"/>
<feOffset/>
<feGaussianBlur stdDeviation="7.5"/>
<feComposite in2="hardAlpha" operator="out"/>
<feColorMatrix type="matrix" values="0 0 0 0 0 0 0 0 0 0 0 0 0 0 0 0 0 0 0.1 0"/>
<feBlend mode="normal" in2="BackgroundImageFix" result="effect1_dropShadow_228_1721"/>
<feBlend mode="normal" in="SourceGraphic" in2="effect1_dropShadow_228_1721" result="shape"/>
</filter>
</defs>
</svg>
