<svg width="391" height="157" viewBox="0 0 391 157" fill="none" xmlns="http://www.w3.org/2000/svg">
<g filter="url(#filter0_d_228_1703)">
<rect x="15" y="15" width="361" height="127" rx="15" fill="#5C7DF2"/>
</g>
<rect x="19" y="15" width="357" height="127" rx="15" fill="white"/>
<path d="M35 50.12H51V34.12H35V50.12ZM66.5625 37.0469V38.3281C66.5547 39.6562 66.5547 41.1016 66.1953 43.0938H68.0781V44.7031H62.5312V50.4531H60.5312V44.7031H55.1094V43.0938H64.1719C64.5391 41.2656 64.5703 39.8672 64.5781 38.6406H56.5938V37.0469H66.5625ZM81.2656 36.2188V50.4375H79.3594V43.2656H78.0781V49.7812H76.1875V36.4219H78.0781V41.6406H79.3594V36.2188H81.2656ZM69.3438 46.8594V37.6875H75V46.8594H69.3438ZM71.2031 45.2969H73.1406V39.2656H71.2031V45.2969ZM98.4375 36.2344V46.6094H96.4531V41.5156H94.125V39.9062H96.4531V36.2344H98.4375ZM86.375 43.4062C88.7266 42.6719 89.7891 40.8203 89.7969 39V38.7812H86.9375V37.1875H94.6562V38.7812H91.8281V39.0156C91.8203 40.6641 92.8359 42.4219 95.0938 43.1562L94.1094 44.7344C92.5391 44.2188 91.4531 43.1875 90.8359 41.9141C90.2031 43.3281 89.0703 44.4766 87.3906 45.0312L86.375 43.4062ZM89 50.1875V45.7031H91V48.5938H98.7812V50.1875H89ZM108.406 40.5469C108.406 42.7031 109.18 44.8672 111.203 45.9531L110.109 47.4062C108.828 46.75 107.977 45.6016 107.477 44.2188C106.984 45.7266 106.133 47 104.844 47.75L103.703 46.25C105.758 45.0625 106.516 42.7422 106.531 40.5469V40.2188H104.234V38.625H106.531V36.7031H108.391V38.625H110.641V40.2188H108.406V40.5469ZM109.812 43.2344V41.6094H111.484V36.4531H113.359V49.7812H111.484V43.2344H109.812ZM114.375 50.4375V36.2188H116.266V50.4375H114.375ZM129.438 37.4688V39.125C129.43 41.1953 129.43 43.1641 128.781 46.25L126.797 46.0625C127.078 44.8828 127.242 43.8359 127.344 42.875L119.094 43.2812L118.844 41.6875L127.445 41.375C127.477 40.5938 127.484 39.8594 127.484 39.125V39.0625H119.281V37.4688H129.438ZM117.797 48.7344V47.1094H130.766V48.7344H117.797ZM144.641 47.1875V48.8594H131.625V47.1875H137.094V44.625H132.703V43.0625H134.609V39H132.641V37.4062H143.547V39H141.547V43.0625H143.484V44.625H139.078V47.1875H144.641ZM136.609 43.0625H139.578V39H136.609V43.0625ZM157.359 36.2344V46.4531H155.359V36.2344H157.359ZM145.672 40.7188C145.672 38.6328 147.375 37.1328 149.562 37.1406C151.742 37.1328 153.445 38.6328 153.453 40.7188C153.445 42.8359 151.742 44.3281 149.562 44.3281C147.375 44.3281 145.672 42.8359 145.672 40.7188ZM147.625 40.7188C147.609 41.9062 148.445 42.5938 149.562 42.5938C150.641 42.5938 151.477 41.9062 151.484 40.7188C151.477 39.5625 150.641 38.8672 149.562 38.875C148.445 38.8672 147.609 39.5625 147.625 40.7188ZM147.828 50.1875V45.4219H149.844V48.5938H157.734V50.1875H147.828ZM170.875 43.5625V45.1406H160.812V37.2656H170.766V38.875H162.844V40.375H170.438V41.9375H162.844V43.5625H170.875ZM159.281 48.7812V47.1562H172.297V48.7812H159.281Z" fill="#5C7DF2"/>
<path d="M42.7109 71.3281C42.4717 70.0498 41.4121 69.3389 40.1543 69.3457C38.4453 69.3389 37.1807 70.6514 37.1738 73.0508C37.1807 75.4639 38.4521 76.7627 40.1543 76.7559C41.3984 76.7627 42.4512 76.0654 42.7109 74.8008L44.2285 74.8145C43.9141 76.7695 42.3213 78.1367 40.1406 78.1367C37.5635 78.1367 35.6836 76.2158 35.6836 73.0508C35.6836 69.8857 37.5771 67.9648 40.1406 67.9648C42.2324 67.9648 43.8936 69.2021 44.2285 71.3281H42.7109ZM45.8555 78V68.1016H52.0625V69.4004H47.3594V72.3945H51.7344V73.6797H47.3594V76.7012H52.1172V78H45.8555ZM55.5488 77.0566L54.4551 80.8301H53.293L54.0176 77.0566H55.5488ZM60.9082 78V68.1016H67.0469V69.4004H62.4121V72.3945H66.6094V73.6797H62.4121V78H60.9082ZM75.4277 71.3281C75.1885 70.0498 74.1289 69.3389 72.8711 69.3457C71.1621 69.3389 69.8975 70.6514 69.8906 73.0508C69.8975 75.4639 71.1689 76.7627 72.8711 76.7559C74.1152 76.7627 75.168 76.0654 75.4277 74.8008L76.9453 74.8145C76.6309 76.7695 75.0381 78.1367 72.8574 78.1367C70.2803 78.1367 68.4004 76.2158 68.4004 73.0508C68.4004 69.8857 70.2939 67.9648 72.8574 67.9648C74.9492 67.9648 76.6104 69.2021 76.9453 71.3281H75.4277ZM85.2715 71.3281C85.0322 70.0498 83.9727 69.3389 82.7148 69.3457C81.0059 69.3389 79.7412 70.6514 79.7344 73.0508C79.7412 75.4639 81.0127 76.7627 82.7148 76.7559C83.959 76.7627 85.0117 76.0654 85.2715 74.8008L86.7891 74.8145C86.4746 76.7695 84.8818 78.1367 82.7012 78.1367C80.124 78.1367 78.2441 76.2158 78.2441 73.0508C78.2441 69.8857 80.1377 67.9648 82.7012 67.9648C84.793 67.9648 86.4541 69.2021 86.7891 71.3281H85.2715ZM90.0566 77.0566L88.9629 80.8301H87.8008L88.5254 77.0566H90.0566ZM95.416 78V68.1016H96.9199V72.8184H97.043L101.186 68.1016H103.072L99.0801 72.5586L103.086 78H101.268L98.082 73.584L96.9199 74.9238V78H95.416ZM110.51 71.3281C110.271 70.0498 109.211 69.3389 107.953 69.3457C106.244 69.3389 104.979 70.6514 104.973 73.0508C104.979 75.4639 106.251 76.7627 107.953 76.7559C109.197 76.7627 110.25 76.0654 110.51 74.8008L112.027 74.8145C111.713 76.7695 110.12 78.1367 107.939 78.1367C105.362 78.1367 103.482 76.2158 103.482 73.0508C103.482 69.8857 105.376 67.9648 107.939 67.9648C110.031 67.9648 111.692 69.2021 112.027 71.3281H110.51ZM127.695 72.668V73.7344H116.512V72.668H127.695ZM117.838 76.9199C117.838 75.498 119.431 74.6914 122.09 74.6914C124.729 74.6914 126.308 75.498 126.314 76.9199C126.308 78.3418 124.729 79.1416 122.09 79.1348C119.431 79.1416 117.838 78.3418 117.838 76.9199ZM117.906 71.6016V67.3496H126.314V68.416H119.191V70.5488H126.396V71.6016H117.906ZM119.15 76.9199C119.144 77.7061 120.217 78.1299 122.09 78.1367C123.936 78.1299 125.016 77.7061 125.016 76.9199C125.016 76.1406 123.936 75.7031 122.09 75.6895C120.217 75.7031 119.144 76.1406 119.15 76.9199ZM141.654 66.8984V70.5625H143.432V71.6562H141.654V75.9082H140.355V66.8984H141.654ZM132.221 70.7949C132.207 69.0107 133.629 67.7529 135.475 67.7461C137.327 67.7529 138.729 69.0107 138.742 70.7949C138.729 72.5791 137.327 73.8506 135.475 73.8438C133.629 73.8506 132.207 72.5791 132.221 70.7949ZM133.492 70.7949C133.479 71.9365 134.354 72.709 135.475 72.709C136.609 72.709 137.464 71.9365 137.471 70.7949C137.464 69.6533 136.609 68.8809 135.475 68.8809C134.354 68.8809 133.479 69.6533 133.492 70.7949ZM133.889 78.9023V74.9648H135.188V77.8496H142.174V78.9023H133.889ZM154.342 66.9258V75.8945H153.043V71.2871H150.705V70.2344H153.043V66.9258H154.342ZM144.143 73.3379C146.022 72.7021 147.198 71.0889 147.191 69.4004V68.9219H144.539V67.8555H151.143V68.9219H148.518V69.4004C148.511 70.9248 149.618 72.4629 151.471 73.0781L150.801 74.1172C149.427 73.6387 148.408 72.6543 147.875 71.4375C147.342 72.791 146.269 73.8711 144.812 74.3906L144.143 73.3379ZM146.385 78.9023V75.0879H147.684V77.8496H154.67V78.9023H146.385ZM169.805 66.9258V75.8262H168.506V66.9258H169.805ZM159.893 70.7812C159.899 69.0107 161.308 67.7529 163.16 67.7461C165.006 67.7529 166.414 69.0107 166.414 70.7812C166.414 72.5791 165.006 73.8301 163.16 73.8301C161.308 73.8301 159.899 72.5791 159.893 70.7812ZM161.164 70.7812C161.157 71.9365 162.019 72.6953 163.16 72.6953C164.281 72.6953 165.143 71.9365 165.143 70.7812C165.143 69.6533 164.281 68.8809 163.16 68.8809C162.019 68.8809 161.157 69.6533 161.164 70.7812ZM161.793 78.9023V74.9238H163.105V77.8496H170.174V78.9023H161.793ZM182.916 72.6816V73.7344H171.746V72.6816H182.916ZM172.334 71.0137C174.556 70.7744 176.312 69.7764 176.456 68.5801H172.771V67.5137H181.918V68.5801H178.192C178.343 69.7695 180.072 70.7744 182.342 71.0137L181.877 72.0391C179.751 71.793 177.994 70.8975 177.331 69.6055C176.654 70.8975 174.911 71.793 172.785 72.0391L172.334 71.0137ZM173.072 76.9199C173.072 75.498 174.665 74.6777 177.324 74.6777C179.963 74.6777 181.542 75.498 181.549 76.9199C181.542 78.3418 179.963 79.1416 177.324 79.1348C174.665 79.1416 173.072 78.3418 173.072 76.9199ZM174.385 76.9199C174.378 77.6924 175.451 78.1162 177.324 78.1094C179.17 78.1162 180.25 77.6924 180.25 76.9199C180.25 76.127 179.17 75.7031 177.324 75.6895C175.451 75.7031 174.378 76.127 174.385 76.9199ZM193.457 68.1289V76.0859H187.729V68.1289H193.457ZM189 75.0332H192.172V69.1543H189V75.0332ZM195.508 79.1621V66.9121H196.807V71.7109H198.775V72.8047H196.807V79.1621H195.508ZM209.221 68.1016V69.5918C209.221 71.3828 209.221 73.0645 208.688 75.6074L207.402 75.4844C207.662 74.3564 207.799 73.3789 207.867 72.4697L200.512 72.8594L200.348 71.793L207.929 71.5059C207.956 70.8496 207.956 70.2207 207.963 69.5918V69.168H200.689V68.1016H209.221ZM199.363 77.5215V76.4551H210.533V77.5215H199.363ZM224.52 66.9258V70.5625H226.27V71.6289H224.52V75.1699H223.221V66.9258H224.52ZM214.799 73.8027C215.749 73.8027 216.85 73.8027 217.998 73.7754V72.9482C216.604 72.791 215.715 72.1348 215.729 71.1504C215.715 70.0293 216.884 69.332 218.641 69.3457C220.397 69.332 221.546 70.0293 221.553 71.1504C221.546 72.1279 220.678 72.7842 219.297 72.9482V73.7275C220.391 73.6729 221.498 73.584 222.523 73.4336L222.633 74.3633C220.001 74.8213 217.096 74.8418 214.936 74.8418L214.799 73.8027ZM215.113 68.9355V67.9648H217.998V66.8164H219.297V67.9648H222.182V68.9355H215.113ZM216.33 76.7559V75.7441H224.52V79.1621H223.221V76.7559H216.33ZM216.959 71.1504C216.959 71.7246 217.595 72.1006 218.641 72.0938C219.673 72.1006 220.315 71.7246 220.309 71.1504C220.315 70.5625 219.673 70.2207 218.641 70.2344C217.595 70.2207 216.959 70.5625 216.959 71.1504ZM237.139 66.9258V75.8262H235.84V66.9258H237.139ZM227.227 70.7812C227.233 69.0107 228.642 67.7529 230.494 67.7461C232.34 67.7529 233.748 69.0107 233.748 70.7812C233.748 72.5791 232.34 73.8301 230.494 73.8301C228.642 73.8301 227.233 72.5791 227.227 70.7812ZM228.498 70.7812C228.491 71.9365 229.353 72.6953 230.494 72.6953C231.615 72.6953 232.477 71.9365 232.477 70.7812C232.477 69.6533 231.615 68.8809 230.494 68.8809C229.353 68.8809 228.491 69.6533 228.498 70.7812ZM229.127 78.9023V74.9238H230.439V77.8496H237.508V78.9023H229.127ZM241.281 77.0566L240.188 80.8301H239.025L239.75 77.0566H241.281ZM256.594 66.9121V79.1621H255.35V66.9121H256.594ZM245.902 75.7852C247.639 74.7393 248.521 72.5107 248.527 70.3301V69.3457H246.271V68.293H251.877V69.3457H249.771V70.3301C249.771 72.4219 250.619 74.5205 252.342 75.5117L251.562 76.4688C250.394 75.7715 249.594 74.5205 249.163 73.0439C248.726 74.6436 247.892 76.0107 246.695 76.7559L245.902 75.7852ZM250.975 72.3125V71.2461H252.875V67.1719H254.105V78.5469H252.875V72.3125H250.975ZM269.391 76.5645V77.6309H258.18V76.5645H263.129V73.666H264.428V76.5645H269.391ZM258.699 73.1055C260.976 72.7227 263.088 71.0205 263.088 69.1406V69.0312H259.109V67.9648H268.42V69.0312H264.441V69.1406C264.441 71.0205 266.567 72.6885 268.898 73.0508L268.379 74.0762C266.396 73.707 264.571 72.5586 263.771 70.9453C262.985 72.5791 261.174 73.748 259.232 74.1309L258.699 73.1055ZM273.752 67.3223C275.598 67.3359 276.958 68.4639 276.965 70.0703C276.958 71.6836 275.598 72.8047 273.752 72.8047C271.886 72.8047 270.532 71.6836 270.525 70.0703C270.532 68.4639 271.886 67.3359 273.752 67.3223ZM271.797 70.0703C271.79 71.082 272.624 71.752 273.752 71.752C274.873 71.752 275.707 71.082 275.707 70.0703C275.707 69.0723 274.873 68.4023 273.752 68.416C272.624 68.4023 271.79 69.0723 271.797 70.0703ZM272.385 74.7461V73.707H280.438V76.7969H273.684V77.9727H280.848V79.0117H272.426V75.8262H279.152V74.7461H272.385ZM279.139 73.1465V66.9121H280.438V73.1465H279.139ZM286.645 70.5215C286.638 72.4561 287.916 74.6162 289.775 75.498L289.037 76.5098C287.663 75.8535 286.569 74.4727 286.016 72.873C285.455 74.6162 284.307 76.127 282.912 76.8242L282.146 75.7988C284.006 74.9033 285.353 72.5928 285.359 70.5215V69.2227H282.598V68.1426H289.311V69.2227H286.645V70.5215ZM290.623 79.1621V66.9121H291.922V71.7656H293.891V72.8594H291.922V79.1621H290.623ZM304.363 67.6914V72.7227H298.539V67.6914H304.363ZM299.346 78.123C301.574 77.9043 303.317 76.79 303.406 75.6895H299.838V74.7051H303.434V73.5566H304.719V74.7051H308.328V75.6895H304.746C304.835 76.7559 306.537 77.877 308.766 78.123L308.328 79.1211C306.407 78.8887 304.821 78.0684 304.083 76.9883C303.331 78.082 301.725 78.8887 299.797 79.1211L299.346 78.123ZM299.811 71.7109H303.078V68.7305H299.811V71.7109ZM306.756 73.9121V66.9121H308.041V73.9121H306.756ZM324.611 73.8301V74.8965H321.768V79.1621H320.455V74.8965H317.529V79.1621H316.189V74.8965H313.4V73.8301H324.611ZM314.617 70.084C314.624 68.4297 316.388 67.377 318.979 67.377C321.569 67.377 323.347 68.4297 323.34 70.084C323.347 71.7178 321.569 72.75 318.979 72.7363C316.388 72.75 314.624 71.7178 314.617 70.084ZM315.957 70.084C315.95 71.0889 317.16 71.7109 318.979 71.7109C320.804 71.7109 322.007 71.0889 322.014 70.084C322.007 69.0518 320.804 68.4229 318.979 68.416C317.16 68.4229 315.95 69.0518 315.957 70.084ZM336.684 73.3516V74.377H325.486V73.3516H330.436V72.2852H326.949V67.2402H335.316V68.2656H328.262V69.2637H335.002V70.2344H328.262V71.2734H335.398V72.2852H331.734V73.3516H336.684ZM326.84 77.166C326.84 75.8809 328.364 75.1768 331.092 75.1836C333.778 75.1768 335.31 75.8809 335.316 77.166C335.31 78.458 333.778 79.1416 331.092 79.1348C328.364 79.1416 326.84 78.458 326.84 77.166ZM328.139 77.166C328.132 77.8291 329.157 78.1641 331.092 78.1504C332.999 78.1641 334.018 77.8291 334.018 77.166C334.018 76.5029 332.999 76.1543 331.092 76.1543C329.157 76.1543 328.132 76.5029 328.139 77.166ZM347.799 66.9121V79.1621H346.486V66.9121H347.799ZM337.736 75.8809C340.99 74.3291 342.583 72.1211 342.836 69.2637H338.324V68.2246H344.148C344.148 71.8135 342.624 74.917 338.42 76.9336L337.736 75.8809ZM45.0762 87.9258V91.8633H46.8535V92.9434H45.0762V97.0859H43.7773V87.9258H45.0762ZM35.4648 90.4004V89.3477H38.4727V87.9121H39.7715V89.3477H42.7656V90.4004H35.4648ZM36.1348 93.2988C36.1279 91.8975 37.3379 90.9814 39.1152 90.9883C40.8721 90.9814 42.082 91.8975 42.082 93.2988C42.082 94.6865 40.8721 95.5889 39.1152 95.5957C37.3379 95.5889 36.1279 94.6865 36.1348 93.2988ZM37.3105 99.9023V96.3613H38.6094V98.8496H45.5957V99.9023H37.3105ZM37.3926 93.2988C37.3789 94.0986 38.0762 94.5908 39.1152 94.584C40.1543 94.5908 40.8516 94.0986 40.8652 93.2988C40.8516 92.4922 40.1543 91.9932 39.1152 91.9863C38.0762 91.9932 37.3789 92.4922 37.3926 93.2988ZM54.6328 91.6719C54.6328 93.5996 55.5283 95.5615 57.2168 96.4707L56.4922 97.4277C55.3027 96.7988 54.4824 95.6299 54.0381 94.2422C53.6006 95.7256 52.7803 97.0039 51.5977 97.7148L50.832 96.7305C52.5273 95.7461 53.4023 93.6475 53.416 91.6719V91.1797H51.2012V90.1133H53.416V88.3496H54.6328V90.1133H56.8066V91.1797H54.6328V91.6719ZM56 93.7637V92.6836H57.7637V88.1719H58.9941V99.5469H57.7637V93.7637H56ZM60.2383 100.162V87.9121H61.4824V100.162H60.2383ZM72.9258 89.1016V90.5918C72.9258 92.3828 72.9258 94.0645 72.3926 96.6074L71.1074 96.4844C71.3672 95.3564 71.5039 94.3789 71.5723 93.4697L64.2168 93.8594L64.0527 92.793L71.6338 92.5059C71.6611 91.8496 71.6611 91.2207 71.668 90.5918V90.168H64.3945V89.1016H72.9258ZM63.0684 98.5215V97.4551H74.2383V98.5215H63.0684ZM77.3691 98.0566L76.2754 101.83H75.1133L75.8379 98.0566H77.3691ZM86.9941 99H85.3945L88.9492 89.1016H90.6855L94.2539 99H92.6543L91.752 96.3887H87.8965L86.9941 99ZM88.3271 95.1309H91.3145L89.8516 90.9062H89.7832L88.3271 95.1309ZM99.1621 88.6367L95.9766 100.49H94.6777L97.8633 88.6367H99.1621ZM105.752 91.7129C105.656 90.79 104.85 90.2637 103.715 90.2637C102.505 90.2637 101.739 90.8857 101.732 91.7266C101.732 92.6631 102.751 93.0322 103.537 93.2168L104.494 93.4766C105.759 93.7842 107.345 94.4746 107.352 96.2656C107.345 97.9404 106.012 99.1641 103.674 99.1641C101.459 99.1641 100.064 98.0566 99.9688 96.252H101.473C101.562 97.332 102.519 97.8447 103.674 97.8516C104.938 97.8447 105.854 97.209 105.861 96.2383C105.854 95.377 105.034 95.0283 103.988 94.748L102.812 94.4336C101.22 93.9961 100.235 93.1895 100.229 91.8086C100.235 90.0996 101.753 88.9648 103.756 88.9648C105.766 88.9648 107.167 90.1133 107.215 91.7129H105.752ZM121.365 87.9121V92.793H123.266V93.873H121.365V100.148H120.066V87.9121H121.365ZM111.836 96.8809C114.905 95.3496 116.573 93.1348 116.84 90.2773H112.451V89.1973H118.166C118.152 92.7383 116.594 95.9033 112.561 97.8926L111.836 96.8809ZM133.82 91.2207V92.2734H125.412V88.1309H126.697V91.2207H133.82ZM123.922 94.6387V93.5723H135.105V94.6387H123.922ZM125.248 97.8652C125.248 96.4365 126.841 95.6299 129.5 95.6367C132.139 95.6299 133.718 96.4365 133.725 97.8652C133.718 99.3008 132.139 100.107 129.5 100.107C126.841 100.107 125.248 99.3008 125.248 97.8652ZM126.561 97.8652C126.554 98.6514 127.627 99.1025 129.5 99.1094C131.346 99.1025 132.426 98.6514 132.426 97.8652C132.426 97.0723 131.346 96.6553 129.5 96.6484C127.627 96.6553 126.554 97.0723 126.561 97.8652ZM142.762 88.8281C143.883 88.835 144.799 89.4707 145.339 90.5781H148.367V87.9121H149.652V100.189H148.367V95.4863H145.428C144.901 96.7168 143.944 97.4346 142.762 97.4277C140.937 97.4346 139.645 95.7666 139.658 93.1211C139.645 90.5029 140.937 88.835 142.762 88.8281ZM140.889 93.1211C140.896 95.0693 141.654 96.2656 142.762 96.2656C143.869 96.2656 144.628 95.0693 144.635 93.1211C144.628 91.2002 143.869 89.9971 142.762 89.9902C141.654 89.9971 140.896 91.2002 140.889 93.1211ZM145.708 91.6445C145.804 92.0957 145.865 92.5879 145.865 93.1211C145.865 93.5859 145.824 94.0166 145.742 94.4199H148.367V91.6445H145.708ZM162.736 95.1172V96.1426H157.732V100.162H156.461V96.1426H151.525V95.1172H162.736ZM152.92 93.7227V88.4043H154.205V90.0039H160.029V88.4043H161.328V93.7227H152.92ZM154.205 92.6836H160.029V91.043H154.205V92.6836ZM176.695 87.9258V91.5625H178.445V92.6289H176.695V96.1699H175.396V87.9258H176.695ZM166.975 94.8027C167.925 94.8027 169.025 94.8027 170.174 94.7754V93.9482C168.779 93.791 167.891 93.1348 167.904 92.1504C167.891 91.0293 169.06 90.332 170.816 90.3457C172.573 90.332 173.722 91.0293 173.729 92.1504C173.722 93.1279 172.854 93.7842 171.473 93.9482V94.7275C172.566 94.6729 173.674 94.584 174.699 94.4336L174.809 95.3633C172.177 95.8213 169.271 95.8418 167.111 95.8418L166.975 94.8027ZM167.289 89.9355V88.9648H170.174V87.8164H171.473V88.9648H174.357V89.9355H167.289ZM168.506 97.7559V96.7441H176.695V100.162H175.396V97.7559H168.506ZM169.135 92.1504C169.135 92.7246 169.771 93.1006 170.816 93.0938C171.849 93.1006 172.491 92.7246 172.484 92.1504C172.491 91.5625 171.849 91.2207 170.816 91.2344C169.771 91.2207 169.135 91.5625 169.135 92.1504ZM189.314 87.9258V96.8262H188.016V87.9258H189.314ZM179.402 91.7812C179.409 90.0107 180.817 88.7529 182.67 88.7461C184.516 88.7529 185.924 90.0107 185.924 91.7812C185.924 93.5791 184.516 94.8301 182.67 94.8301C180.817 94.8301 179.409 93.5791 179.402 91.7812ZM180.674 91.7812C180.667 92.9365 181.528 93.6953 182.67 93.6953C183.791 93.6953 184.652 92.9365 184.652 91.7812C184.652 90.6533 183.791 89.8809 182.67 89.8809C181.528 89.8809 180.667 90.6533 180.674 91.7812ZM181.303 99.9023V95.9238H182.615V98.8496H189.684V99.9023H181.303ZM193.457 98.0566L192.363 101.83H191.201L191.926 98.0566H193.457ZM208.469 87.9121V95.1992H207.17V92.0957H204.887V91.0293H207.17V87.9121H208.469ZM198.256 94.0918C200.156 93.4287 201.325 91.7744 201.318 90.0859V89.8125H198.666V88.7598H205.27V89.8125H202.645V90.0723C202.638 91.624 203.745 93.1348 205.598 93.7637L204.928 94.7891C203.554 94.3174 202.542 93.333 202.009 92.123C201.476 93.4902 200.402 94.5908 198.939 95.1309L198.256 94.0918ZM200.225 97.8516C200.218 96.3955 201.79 95.5479 204.367 95.541C206.931 95.5479 208.503 96.3955 208.51 97.8516C208.503 99.3076 206.931 100.155 204.367 100.162C201.79 100.155 200.218 99.3076 200.225 97.8516ZM201.51 97.8516C201.503 98.6787 202.569 99.1504 204.367 99.1367C206.151 99.1504 207.218 98.6787 207.225 97.8516C207.218 97.0176 206.151 96.5459 204.367 96.5527C202.569 96.5459 201.503 97.0176 201.51 97.8516ZM214.812 89.6758C214.806 91.3711 215.954 92.9229 217.848 93.5449L217.191 94.5703C215.77 94.0781 214.71 93.0801 214.156 91.8018C213.609 93.1689 212.529 94.2559 211.08 94.7754L210.424 93.7637C212.331 93.0869 213.479 91.4258 213.486 89.6758V88.5H214.812V89.6758ZM212.215 96.9082V95.8555H220.514V100.162H219.215V96.9082H212.215ZM219.215 95.2676V87.9121H220.514V95.2676H219.215ZM232.148 88.9922C232.142 90.6191 234.131 92.1436 236.537 92.4648L236.031 93.5312C234.028 93.21 232.271 92.1709 231.472 90.7285C230.672 92.1709 228.915 93.21 226.926 93.5312L226.406 92.4648C228.806 92.1436 230.788 90.6396 230.795 88.9922V88.3223H232.148V88.9922ZM225.873 95.8008V94.7344H237.043V95.8008H232.066V100.162H230.795V95.8008H225.873ZM248.131 87.9121V94.4883H246.832V87.9121H248.131ZM238.219 91.3164C238.226 89.6348 239.606 88.4658 241.486 88.4727C243.359 88.4658 244.74 89.6348 244.74 91.3164C244.74 92.9912 243.359 94.1602 241.486 94.1465C239.606 94.1602 238.226 92.9912 238.219 91.3164ZM239.49 91.3164C239.483 92.376 240.324 93.0801 241.486 93.0801C242.635 93.0801 243.469 92.376 243.469 91.3164C243.469 90.2705 242.635 89.5596 241.486 89.5664C240.324 89.5596 239.483 90.2705 239.49 91.3164ZM240.119 100.012V95.0762H241.391V96.457H246.846V95.0762H248.131V100.012H240.119ZM241.391 98.9453H246.846V97.4824H241.391V98.9453ZM253.463 88.4727C255.076 88.459 256.327 89.3955 256.594 90.7695H258.986V87.9121H260.285V94.4883H258.986V91.8359H256.601C256.348 93.2441 255.09 94.1875 253.463 94.1875C251.59 94.1875 250.243 93.0049 250.25 91.3164C250.243 89.6484 251.59 88.459 253.463 88.4727ZM251.494 91.3164C251.487 92.3623 252.308 93.0938 253.463 93.0938C254.598 93.0938 255.404 92.3623 255.404 91.3164C255.404 90.2637 254.598 89.5459 253.463 89.5527C252.308 89.5459 251.487 90.2637 251.494 91.3164ZM252.301 100.012V95.0762H253.586V96.498H258.986V95.0762H260.285V100.012H252.301ZM253.586 98.9453H258.986V97.5234H253.586V98.9453ZM265.836 91.6719C265.836 93.5996 266.731 95.5615 268.42 96.4707L267.695 97.4277C266.506 96.7988 265.686 95.6299 265.241 94.2422C264.804 95.7256 263.983 97.0039 262.801 97.7148L262.035 96.7305C263.73 95.7461 264.605 93.6475 264.619 91.6719V91.1797H262.404V90.1133H264.619V88.3496H265.836V90.1133H268.01V91.1797H265.836V91.6719ZM267.203 93.7637V92.6836H268.967V88.1719H270.197V99.5469H268.967V93.7637H267.203ZM271.441 100.162V87.9121H272.686V100.162H271.441ZM285.469 93.5312V94.5293H274.258V93.5312H285.469ZM275.584 96.3203V95.3906H284.088V98.084H276.896V99.0957H284.471V100.012H275.598V97.2227H282.803V96.3203H275.584ZM275.666 89.1426V88.2266H284.061V90.8789H276.979V91.8086H284.266V92.7246H275.693V90.0176H282.762V89.1426H275.666ZM300.959 94.3516V95.377H289.762V94.3516H294.711V93.2852H291.225V88.2402H299.592V89.2656H292.537V90.2637H299.277V91.2344H292.537V92.2734H299.674V93.2852H296.01V94.3516H300.959ZM291.115 98.166C291.115 96.8809 292.64 96.1768 295.367 96.1836C298.054 96.1768 299.585 96.8809 299.592 98.166C299.585 99.458 298.054 100.142 295.367 100.135C292.64 100.142 291.115 99.458 291.115 98.166ZM292.414 98.166C292.407 98.8291 293.433 99.1641 295.367 99.1504C297.274 99.1641 298.293 98.8291 298.293 98.166C298.293 97.5029 297.274 97.1543 295.367 97.1543C293.433 97.1543 292.407 97.5029 292.414 98.166ZM311.514 87.9258V91.8633H313.291V92.9434H311.514V97.0859H310.215V87.9258H311.514ZM301.902 90.4004V89.3477H304.91V87.9121H306.209V89.3477H309.203V90.4004H301.902ZM302.572 93.2988C302.565 91.8975 303.775 90.9814 305.553 90.9883C307.31 90.9814 308.52 91.8975 308.52 93.2988C308.52 94.6865 307.31 95.5889 305.553 95.5957C303.775 95.5889 302.565 94.6865 302.572 93.2988ZM303.748 99.9023V96.3613H305.047V98.8496H312.033V99.9023H303.748ZM303.83 93.2988C303.816 94.0986 304.514 94.5908 305.553 94.584C306.592 94.5908 307.289 94.0986 307.303 93.2988C307.289 92.4922 306.592 91.9932 305.553 91.9863C304.514 91.9932 303.816 92.4922 303.83 93.2988ZM327.154 88.6777V89.7578C327.154 90.9199 327.154 92.1846 326.812 93.9277H328.576V94.9941H323.613V100.176H322.301V94.9941H317.406V93.9277H325.5C325.862 92.1777 325.862 90.8994 325.869 89.7578V89.7441H318.773V88.6777H327.154ZM340.047 87.9121V100.162H338.803V93.7773H337.285V99.5605H336.055V88.1445H337.285V92.7109H338.803V87.9121H340.047ZM329.916 96.9355V89.293H334.674V96.9355H329.916ZM331.146 95.8965H333.457V90.3184H331.146V95.8965ZM352.803 93.5312V94.5293H341.592V93.5312H352.803ZM342.918 96.3203V95.3906H351.422V98.084H344.23V99.0957H351.805V100.012H342.932V97.2227H350.137V96.3203H342.918ZM343 89.1426V88.2266H351.395V90.8789H344.312V91.8086H351.6V92.7246H343.027V90.0176H350.096V89.1426H343ZM45.7051 108.926V118.168H44.3926V116.568H41.7949V115.529H44.3926V108.926H45.7051ZM35.3691 113.697C36.9072 113.69 38.8213 113.67 40.7148 113.547C40.9199 112.303 40.9746 111.346 40.9814 110.662H36.4766V109.609H42.2871V110.088C42.2803 110.751 42.2803 111.886 42.0273 113.444C42.4785 113.396 42.9229 113.349 43.3535 113.287L43.4492 114.23C42.3486 114.415 41.207 114.538 40.0859 114.613V117.375H38.7871V114.682C37.6182 114.736 36.5107 114.75 35.5469 114.75L35.3691 113.697ZM37.1602 120.902V117.17H38.459V119.85H46.0059V120.902H37.1602ZM51.8301 111.168C51.8232 112.727 52.9102 114.148 54.7695 114.736L54.1543 115.748C52.7598 115.304 51.7412 114.381 51.2012 113.219C50.668 114.559 49.5947 115.618 48.125 116.131L47.4551 115.092C49.3691 114.463 50.5244 112.884 50.5312 111.182V110.84H47.8379V109.787H54.4688V110.84H51.8301V111.168ZM49.1094 118.838C49.1094 117.402 50.6748 116.562 53.2246 116.568C55.7471 116.562 57.2852 117.402 57.2852 118.838C57.2852 120.294 55.7471 121.142 53.2246 121.135C50.6748 121.142 49.1094 120.294 49.1094 118.838ZM50.4082 118.838C50.4014 119.658 51.4541 120.116 53.2246 120.109C54.9814 120.116 56.0205 119.658 56.0137 118.838C56.0205 118.038 54.9814 117.587 53.2246 117.594C51.4541 117.587 50.4014 118.038 50.4082 118.838ZM55.877 116.268V108.912H57.1758V111.947H58.9531V113.014H57.1758V116.268H55.877ZM69.2754 108.912V111.988H71.0527V113.082H69.2754V116.049H67.9766V108.912H69.2754ZM59.6641 111.154V110.115H62.6719V108.803H63.9707V110.115H66.9648V111.154H59.6641ZM60.334 113.807C60.3271 112.501 61.5303 111.653 63.3145 111.66C65.0781 111.653 66.2812 112.501 66.2812 113.807C66.2812 115.112 65.0781 115.967 63.3145 115.953C61.5303 115.967 60.3271 115.112 60.334 113.807ZM61.4414 121.012V116.555H62.7266V117.744H67.9766V116.555H69.2754V121.012H61.4414ZM61.5918 113.807C61.5781 114.538 62.2754 114.989 63.3145 114.996C64.3535 114.989 65.0508 114.538 65.0645 113.807C65.0508 113.089 64.3535 112.624 63.3145 112.631C62.2754 112.624 61.5781 113.089 61.5918 113.807ZM62.7266 119.973H67.9766V118.756H62.7266V119.973ZM81.9219 108.912V121.162H80.623V108.912H81.9219ZM72.502 118.045V110.102H73.7871V116.924C75.5781 116.917 77.458 116.76 79.4199 116.363L79.5977 117.457C77.4307 117.901 75.4619 118.052 73.5273 118.045H72.502ZM93.3926 108.912V113.656H95.3613V114.723H93.3926V121.189H92.0938V108.912H93.3926ZM84.3691 118.141V110.088H90.0977V111.141H85.668V117.061C87.7256 117.054 89.2637 116.965 91.0137 116.65L91.1777 117.744C89.2568 118.086 87.6299 118.147 85.3535 118.141H84.3691ZM97.3438 120.096C96.8105 120.089 96.3662 119.658 96.373 119.125C96.3662 118.592 96.8105 118.154 97.3438 118.154C97.8701 118.154 98.3076 118.592 98.3145 119.125C98.3076 119.658 97.8701 120.089 97.3438 120.096Z" fill="#555555"/>
<defs>
<filter id="filter0_d_228_1703" x="0" y="0" width="391" height="157" filterUnits="userSpaceOnUse" color-interpolation-filters="sRGB">
<feFlood flood-opacity="0" result="BackgroundImageFix"/>
<feColorMatrix in="SourceAlpha" type="matrix" values="0 0 0 0 0 0 0 0 0 0 0 0 0 0 0 0 0 0 127 0" result="hardAlpha"/>
<feOffset/>
<feGaussianBlur stdDeviation="7.5"/>
<feComposite in2="hardAlpha" operator="out"/>
<feColorMatrix type="matrix" values="0 0 0 0 0 0 0 0 0 0 0 0 0 0 0 0 0 0 0.1 0"/>
<feBlend mode="normal" in2="BackgroundImageFix" result="effect1_dropShadow_228_1703"/>
<feBlend mode="normal" in="SourceGraphic" in2="effect1_dropShadow_228_1703" result="shape"/>
</filter>
</defs>
</svg>
