<svg width="391" height="157" viewBox="0 0 391 157" fill="none" xmlns="http://www.w3.org/2000/svg">
<g filter="url(#filter0_d_228_1733)">
<rect x="15" y="15" width="361" height="127" rx="15" fill="#5C7DF2"/>
</g>
<rect x="19" y="15" width="357" height="127" rx="15" fill="white"/>
<path d="M35 50.12H51V34.12H35V50.12ZM68.1094 44.125V45.7344H65.0625V50.4375H63.0312V45.7344H60.125V50.4375H58.0781V45.7344H55.0938V44.125H68.1094ZM56.4062 39.9062C56.3984 37.9453 58.5078 36.6953 61.5625 36.6875C64.6172 36.6953 66.75 37.9453 66.75 39.9062C66.75 41.8203 64.6172 43.0391 61.5625 43.0312C58.5078 43.0391 56.3984 41.8203 56.4062 39.9062ZM58.4531 39.9062C58.4453 40.9062 59.6562 41.4609 61.5625 41.4688C63.4844 41.4609 64.6875 40.9062 64.6875 39.9062C64.6875 38.8594 63.4844 38.2891 61.5625 38.2812C59.6562 38.2891 58.4453 38.8594 58.4531 39.9062ZM75.7969 38.3906V39.9688H68.9219V38.3906H71.3906V36.6094H73.3594V38.3906H75.7969ZM69.25 43.9844C69.25 42.0078 70.5781 40.6172 72.3906 40.6094C74.2109 40.6172 75.5078 42.0078 75.5156 43.9844C75.5078 45.9688 74.2109 47.375 72.3906 47.375C70.5781 47.375 69.25 45.9688 69.25 43.9844ZM71 43.9844C71 45.0703 71.5625 45.6875 72.3906 45.6875C73.1875 45.6875 73.7578 45.0703 73.7656 43.9844C73.7578 42.9141 73.1875 42.2656 72.3906 42.2656C71.5625 42.2656 71 42.9141 71 43.9844ZM76.3281 49.8281V36.5H78.1875V42H79.3438V36.2188H81.2344V50.4375H79.3438V43.5938H78.1875V49.8281H76.3281ZM95.7344 41.8594V43.4375H90.2344V44.3438H94.1562V47.9844H86.2344V48.8438H94.5312V50.3438H84.2812V46.5781H92.1875V45.8438H84.2656V44.3438H88.2344V43.4375H82.7656V41.8594H95.7344ZM84.375 41.1094V36.625H94.0938V41.1094H84.375ZM86.3281 39.5781H92.1094V38.1719H86.3281V39.5781ZM108.484 36.2188V43.5156H106.5V36.2188H108.484ZM96.6562 42.0938C98.8672 41.4844 99.9609 39.9922 100.094 38.4688H97.1875V36.875H105V38.4688H102.156C102.289 39.8828 103.367 41.2734 105.547 41.8438L104.594 43.375C102.945 42.9219 101.805 41.9688 101.164 40.75C100.516 42.1016 99.3125 43.1719 97.5625 43.6719L96.6562 42.0938ZM98.9531 45.5938V44.0781H108.5V47.875H100.938V48.8125H108.891V50.3438H98.9844V46.4531H106.516V45.5938H98.9531ZM125.484 36.2344V40.2969H127.297V41.9375H125.484V45.8906H123.484V36.2344H125.484ZM113.953 44.0625C114.992 44.0625 116.172 44.0625 117.406 44.0312V43.2344C115.859 43.0156 114.898 42.2578 114.906 41.1719C114.898 39.8516 116.281 39.0391 118.391 39.0469C120.484 39.0391 121.867 39.8516 121.875 41.1719C121.867 42.2578 120.914 43.0078 119.391 43.2266V43.9609C120.562 43.8984 121.734 43.8125 122.828 43.6719L122.969 45.0469C119.961 45.5781 116.664 45.6094 114.156 45.6094L113.953 44.0625ZM114.328 38.7188V37.2656H117.406V36.1094H119.391V37.2656H122.469V38.7188H114.328ZM115.766 48V46.4688H125.484V50.4375H123.484V48H115.766ZM116.812 41.1719C116.805 41.6875 117.375 41.9922 118.391 41.9844C119.391 41.9922 119.961 41.6875 119.969 41.1719C119.961 40.6172 119.391 40.375 118.391 40.375C117.375 40.375 116.805 40.6172 116.812 41.1719ZM139.844 36.2344V46.4531H137.844V36.2344H139.844ZM128.156 40.7188C128.156 38.6328 129.859 37.1328 132.047 37.1406C134.227 37.1328 135.93 38.6328 135.938 40.7188C135.93 42.8359 134.227 44.3281 132.047 44.3281C129.859 44.3281 128.156 42.8359 128.156 40.7188ZM130.109 40.7188C130.094 41.9062 130.93 42.5938 132.047 42.5938C133.125 42.5938 133.961 41.9062 133.969 40.7188C133.961 39.5625 133.125 38.8672 132.047 38.875C130.93 38.8672 130.094 39.5625 130.109 40.7188ZM130.312 50.1875V45.4219H132.328V48.5938H140.219V50.1875H130.312Z" fill="#5C7DF2"/>
<path d="M38.7324 67.8281C40.5645 67.835 41.8701 69.5029 41.877 72.1211C41.8701 74.7666 40.5645 76.4346 38.7324 76.4277C36.9004 76.4346 35.5947 74.7666 35.6016 72.1211C35.5947 69.5029 36.9004 67.835 38.7324 67.8281ZM36.8457 72.1211C36.8389 74.0693 37.6182 75.2656 38.7324 75.2656C39.8672 75.2656 40.6328 74.0693 40.6328 72.1211C40.6328 70.2002 39.8672 68.9971 38.7324 68.9902C37.6182 68.9971 36.8389 70.2002 36.8457 72.1211ZM43.6953 79.1621V66.9121H44.9941V71.7109H46.9629V72.8047H44.9941V79.1621H43.6953ZM57.6953 66.9121V79.1895H56.3965V66.9121H57.6953ZM47.9746 72.1211C47.9746 69.5029 49.2939 67.835 51.1465 67.8281C52.9648 67.835 54.3047 69.5029 54.3047 72.1211C54.3047 74.7666 52.9648 76.4346 51.1465 76.4277C49.2939 76.4346 47.9746 74.7666 47.9746 72.1211ZM49.2324 72.1211C49.2256 74.0693 50.0049 75.2656 51.1465 75.2656C52.2676 75.2656 53.0469 74.0693 53.0469 72.1211C53.0469 70.2002 52.2676 68.9971 51.1465 68.9902C50.0049 68.9971 49.2256 70.2002 49.2324 72.1211ZM61.0449 74.6367C60.5117 74.6299 60.0674 74.1992 60.0742 73.666C60.0674 73.1328 60.5117 72.6953 61.0449 72.6953C61.5713 72.6953 62.0088 73.1328 62.0156 73.666C62.0088 74.1992 61.5713 74.6299 61.0449 74.6367ZM73.5273 66.9121V79.1621H72.2148V66.9121H73.5273ZM63.3145 75.1152C63.8203 75.1152 64.3604 75.1084 64.9277 75.1016V69.2363H63.6426V68.1699H70.6152V69.2363H69.3438V74.9375C69.9795 74.8896 70.6084 74.8281 71.2168 74.7598L71.2852 75.7168C68.6328 76.1475 65.7207 76.1885 63.4648 76.1953L63.3145 75.1152ZM66.1855 75.0811C66.8008 75.0674 67.4365 75.04 68.0723 75.0127V69.2363H66.1855V75.0811ZM86.6387 74.1172V75.1426H81.6348V79.1621H80.3633V75.1426H75.4277V74.1172H86.6387ZM76.8223 72.7227V67.4043H78.1074V69.0039H83.9316V67.4043H85.2305V72.7227H76.8223ZM78.1074 71.6836H83.9316V70.043H78.1074V71.6836ZM98.082 66.9121V79.1621H96.8379V66.9121H98.082ZM87.6777 72.2031C87.6777 69.5508 88.7168 67.8896 90.3164 67.8965C91.8066 67.8896 92.8115 69.3047 92.9619 71.6016H94.3496V67.1445H95.5938V78.5605H94.3496V72.6543H92.9688C92.8525 75.0469 91.834 76.5303 90.3164 76.5234C88.7168 76.5303 87.6777 74.8623 87.6777 72.2031ZM88.8809 72.2031C88.8809 74.1514 89.4346 75.2998 90.3164 75.293C91.2188 75.2998 91.7793 74.1514 91.7793 72.2031C91.7793 70.248 91.2188 69.1064 90.3164 69.1133C89.4346 69.1064 88.8809 70.248 88.8809 72.2031ZM109.047 67.5547V68.5938H104.863V71.4375C107.174 71.4307 108.562 71.3486 110.154 71.041L110.305 72.0664C108.609 72.415 107.112 72.5039 104.549 72.5039H103.578V67.5547H109.047ZM104.521 75.1289V74.1172H108.186V72.9961H109.471V74.1172H113.148V75.1289H104.521ZM105.369 77.3848C105.362 76.2295 106.661 75.5801 108.828 75.5801C110.981 75.5801 112.267 76.2295 112.273 77.3848C112.267 78.5264 110.981 79.1621 108.828 79.1621C106.661 79.1621 105.362 78.5264 105.369 77.3848ZM106.723 77.3848C106.709 77.9453 107.502 78.2324 108.828 78.2324C110.141 78.2324 110.92 77.9453 110.934 77.3848C110.92 76.8311 110.141 76.5303 108.828 76.5234C107.502 76.5303 106.709 76.8311 106.723 77.3848ZM111.385 73.3789V66.9121H112.684V69.5234H114.475V70.6172H112.684V73.3789H111.385ZM125.07 70.4941V71.5332H116.635V67.3496H117.92V70.4941H125.07ZM115.145 74.1172V73.0781H126.355V74.1172H115.145ZM116.539 78.875V75.2793H117.838V77.8086H125.152V78.875H116.539ZM141.189 66.9121V79.1621H139.945V66.9121H141.189ZM130.498 75.7852C132.234 74.7393 133.116 72.5107 133.123 70.3301V69.3457H130.867V68.293H136.473V69.3457H134.367V70.3301C134.367 72.4219 135.215 74.5205 136.938 75.5117L136.158 76.4688C134.989 75.7715 134.189 74.5205 133.759 73.0439C133.321 74.6436 132.487 76.0107 131.291 76.7559L130.498 75.7852ZM135.57 72.3125V71.2461H137.471V67.1719H138.701V78.5469H137.471V72.3125H135.57ZM153.945 72.7773V73.8164H148.996V75.1289H152.578V79.0117H144.115V75.1289H147.711V73.8164H142.775V72.7773H153.945ZM143.801 68.3477V67.2949H152.893V68.3477H151.115V70.6855H152.838V71.7383H143.855V70.6855H145.592V68.3477H143.801ZM145.4 77.959H151.32V76.1543H145.4V77.959ZM146.877 70.6855H149.816V68.3477H146.877V70.6855ZM166.045 73.3105V74.3496H154.875V73.3105H166.045ZM156.078 69.7695C156.071 68.2314 157.787 67.3154 160.453 67.3223C163.105 67.3154 164.821 68.2314 164.828 69.7695C164.821 71.3145 163.105 72.251 160.453 72.2578C157.787 72.251 156.071 71.3145 156.078 69.7695ZM156.283 78.9023V75.3477H157.596V77.8496H164.787V78.9023H156.283ZM157.418 69.7695C157.411 70.6787 158.573 71.1914 160.453 71.1914C162.326 71.1914 163.495 70.6787 163.488 69.7695C163.495 68.8945 162.326 68.3613 160.453 68.3613C158.573 68.3613 157.411 68.8945 157.418 69.7695ZM174.891 70.0293C174.877 72.2646 176.23 74.5205 178.131 75.3613L177.352 76.3867C175.943 75.7168 174.829 74.3428 174.255 72.668C173.688 74.4658 172.56 75.9424 171.09 76.6602L170.297 75.5664C172.225 74.7119 173.578 72.3672 173.578 70.0293V67.9375H174.891V70.0293ZM179.238 79.1895V66.9121H180.537V79.1895H179.238ZM192.705 66.9121V74.3359H191.406V71.6699H189.492V70.5898H191.406V66.9121H192.705ZM182.506 69.168V68.1289H185.459V66.8027H186.744V68.1289H189.684V69.168H182.506ZM183.217 71.916C183.217 70.6309 184.42 69.7285 186.102 69.7285C187.783 69.7285 188.973 70.6309 188.973 71.916C188.973 73.2354 187.783 74.1104 186.102 74.1172C184.42 74.1104 183.217 73.2354 183.217 71.916ZM184.461 71.916C184.461 72.6611 185.124 73.126 186.102 73.1328C187.065 73.126 187.729 72.6611 187.729 71.916C187.729 71.1982 187.065 70.7197 186.102 70.7266C185.124 70.7197 184.461 71.1982 184.461 71.916ZM184.625 79.0117V74.9375H192.705V79.0117H184.625ZM185.91 77.959H191.434V75.9629H185.91V77.959ZM198.939 68.7441C198.933 70.46 200.047 71.9912 201.906 72.5996L201.195 73.6113C199.849 73.1191 198.857 72.1758 198.324 70.9453C197.798 72.3467 196.731 73.4473 195.248 73.9805L194.551 72.9414C196.506 72.2715 197.641 70.6377 197.654 68.7988V67.5957H198.939V68.7441ZM196.561 76.8242C196.554 75.3408 198.126 74.4795 200.703 74.4863C203.267 74.4795 204.839 75.3408 204.846 76.8242C204.839 78.3008 203.267 79.1416 200.703 79.1348C198.126 79.1416 196.554 78.3008 196.561 76.8242ZM197.846 76.8242C197.839 77.6377 198.905 78.1162 200.703 78.1094C202.487 78.1162 203.554 77.6377 203.561 76.8242C203.554 75.9834 202.487 75.498 200.703 75.498C198.905 75.498 197.839 75.9834 197.846 76.8242ZM200.922 70.4668V69.4004H203.506V66.9121H204.805V74.1445H203.506V70.4668H200.922ZM211.08 69.0859C211.073 70.6309 212.181 72.1416 214.033 72.7773L213.363 73.7891C211.989 73.3174 210.971 72.333 210.438 71.123C209.904 72.4697 208.831 73.5498 207.375 74.0625L206.705 73.0371C208.585 72.3945 209.761 70.7607 209.754 69.0996V68.7578H207.102V67.7051H213.705V68.7578H211.08V69.0859ZM208.605 75.9082V74.8555H216.904V79.1621H215.605V75.9082H208.605ZM213.336 71.0957V70.0293H215.605V66.9121H216.904V74.2402H215.605V71.0957H213.336ZM223.207 70.0293C223.207 72.2715 224.465 74.5068 226.338 75.3477L225.545 76.3867C224.157 75.6895 223.104 74.3086 222.564 72.6338C222.024 74.3975 220.958 75.8877 219.543 76.6191L218.723 75.5664C220.623 74.6572 221.888 72.2988 221.895 70.0293V67.9375H223.207V70.0293ZM224.984 72.0391V70.9863H227.719V66.9121H229.004V79.1895H227.719V72.0391H224.984ZM242.088 72.5312V73.5293H230.877V72.5312H242.088ZM232.203 75.3203V74.3906H240.707V77.084H233.516V78.0957H241.09V79.0117H232.217V76.2227H239.422V75.3203H232.203ZM232.285 68.1426V67.2266H240.68V69.8789H233.598V70.8086H240.885V71.7246H232.312V69.0176H239.381V68.1426H232.285ZM256.047 66.9258V70.5625H257.797V71.6289H256.047V75.1699H254.748V66.9258H256.047ZM246.326 73.8027C247.276 73.8027 248.377 73.8027 249.525 73.7754V72.9482C248.131 72.791 247.242 72.1348 247.256 71.1504C247.242 70.0293 248.411 69.332 250.168 69.3457C251.925 69.332 253.073 70.0293 253.08 71.1504C253.073 72.1279 252.205 72.7842 250.824 72.9482V73.7275C251.918 73.6729 253.025 73.584 254.051 73.4336L254.16 74.3633C251.528 74.8213 248.623 74.8418 246.463 74.8418L246.326 73.8027ZM246.641 68.9355V67.9648H249.525V66.8164H250.824V67.9648H253.709V68.9355H246.641ZM247.857 76.7559V75.7441H256.047V79.1621H254.748V76.7559H247.857ZM248.486 71.1504C248.486 71.7246 249.122 72.1006 250.168 72.0938C251.2 72.1006 251.843 71.7246 251.836 71.1504C251.843 70.5625 251.2 70.2207 250.168 70.2344C249.122 70.2207 248.486 70.5625 248.486 71.1504ZM268.666 66.9258V75.8262H267.367V66.9258H268.666ZM258.754 70.7812C258.761 69.0107 260.169 67.7529 262.021 67.7461C263.867 67.7529 265.275 69.0107 265.275 70.7812C265.275 72.5791 263.867 73.8301 262.021 73.8301C260.169 73.8301 258.761 72.5791 258.754 70.7812ZM260.025 70.7812C260.019 71.9365 260.88 72.6953 262.021 72.6953C263.143 72.6953 264.004 71.9365 264.004 70.7812C264.004 69.6533 263.143 68.8809 262.021 68.8809C260.88 68.8809 260.019 69.6533 260.025 70.7812ZM260.654 78.9023V74.9238H261.967V77.8496H269.035V78.9023H260.654ZM280.15 66.9121V71.875H282.119V72.9551H280.15V79.1621H278.865V66.9121H280.15ZM270.539 69.8926V68.8262H273.561V67.0762H274.859V68.8262H277.799V69.8926H270.539ZM271.168 73.6387C271.168 71.9707 272.453 70.7949 274.217 70.7949C275.974 70.7949 277.259 71.9707 277.266 73.6387C277.259 75.3203 275.974 76.4893 274.217 76.4961C272.453 76.4893 271.168 75.3203 271.168 73.6387ZM272.412 73.6387C272.405 74.7051 273.171 75.416 274.217 75.4023C275.256 75.416 276.015 74.7051 276.021 73.6387C276.015 72.5928 275.256 71.8682 274.217 71.8613C273.171 71.8682 272.405 72.5928 272.412 73.6387ZM286.439 70.2617C286.439 72.2168 287.26 74.3018 288.9 75.3066L288.176 76.3047C287.027 75.6143 286.255 74.3906 285.831 72.9756C285.387 74.5273 284.539 75.8535 283.35 76.5781L282.543 75.6074C284.272 74.5684 285.188 72.4014 285.182 70.3164V68.0332H286.439V70.2617ZM287.574 72.2988V71.2188H289.475V67.1445H290.705V78.5605H289.475V72.2988H287.574ZM292.004 79.1621V66.9121H293.248V79.1621H292.004ZM306.018 76.5508V77.6309H294.807V76.5508H297.486V73.3516C296.481 72.7979 295.866 71.9229 295.873 70.8223C295.866 68.8945 297.76 67.6299 300.385 67.623C303.017 67.6299 304.91 68.8945 304.91 70.8223C304.91 71.9023 304.322 72.7705 303.338 73.3242V76.5508H306.018ZM297.131 70.8223C297.131 72.1348 298.464 72.9893 300.385 72.9961C302.292 72.9893 303.646 72.1348 303.652 70.8223C303.646 69.5029 302.292 68.6621 300.385 68.6621C298.464 68.6621 297.131 69.5029 297.131 70.8223ZM298.771 76.5508H302.025V73.8301C301.526 73.9463 300.973 74.0078 300.385 74.0078C299.811 74.0078 299.264 73.9463 298.771 73.8301V76.5508ZM308.301 78.0957C307.768 78.0889 307.323 77.6582 307.33 77.125C307.323 76.5918 307.768 76.1543 308.301 76.1543C308.827 76.1543 309.265 76.5918 309.271 77.125C309.265 77.6582 308.827 78.0889 308.301 78.0957ZM41.877 89.0879V97.1406H36.1348V89.0879H41.877ZM37.4199 96.0879H40.6191V90.1133H37.4199V96.0879ZM44.2969 100.189V87.9121H45.5957V100.189H44.2969ZM57.1895 87.9258V91.5625H58.9395V92.6289H57.1895V96.1699H55.8906V87.9258H57.1895ZM47.4688 94.8027C48.4189 94.8027 49.5195 94.8027 50.668 94.7754V93.9482C49.2734 93.791 48.3848 93.1348 48.3984 92.1504C48.3848 91.0293 49.5537 90.332 51.3105 90.3457C53.0674 90.332 54.2158 91.0293 54.2227 92.1504C54.2158 93.1279 53.3477 93.7842 51.9668 93.9482V94.7275C53.0605 94.6729 54.168 94.584 55.1934 94.4336L55.3027 95.3633C52.6709 95.8213 49.7656 95.8418 47.6055 95.8418L47.4688 94.8027ZM47.7832 89.9355V88.9648H50.668V87.8164H51.9668V88.9648H54.8516V89.9355H47.7832ZM49 97.7559V96.7441H57.1895V100.162H55.8906V97.7559H49ZM49.6289 92.1504C49.6289 92.7246 50.2646 93.1006 51.3105 93.0938C52.3428 93.1006 52.9854 92.7246 52.9785 92.1504C52.9854 91.5625 52.3428 91.2207 51.3105 91.2344C50.2646 91.2207 49.6289 91.5625 49.6289 92.1504ZM69.8086 87.9258V96.8262H68.5098V87.9258H69.8086ZM59.8965 91.7812C59.9033 90.0107 61.3115 88.7529 63.1641 88.7461C65.0098 88.7529 66.418 90.0107 66.418 91.7812C66.418 93.5791 65.0098 94.8301 63.1641 94.8301C61.3115 94.8301 59.9033 93.5791 59.8965 91.7812ZM61.168 91.7812C61.1611 92.9365 62.0225 93.6953 63.1641 93.6953C64.2852 93.6953 65.1465 92.9365 65.1465 91.7812C65.1465 90.6533 64.2852 89.8809 63.1641 89.8809C62.0225 89.8809 61.1611 90.6533 61.168 91.7812ZM61.7969 99.9023V95.9238H63.1094V98.8496H70.1777V99.9023H61.7969ZM85.6816 87.9121V100.162H84.4375V87.9121H85.6816ZM74.9902 96.7852C76.7266 95.7393 77.6084 93.5107 77.6152 91.3301V90.3457H75.3594V89.293H80.9648V90.3457H78.8594V91.3301C78.8594 93.4219 79.707 95.5205 81.4297 96.5117L80.6504 97.4688C79.4814 96.7715 78.6816 95.5205 78.251 94.0439C77.8135 95.6436 76.9795 97.0107 75.7832 97.7559L74.9902 96.7852ZM80.0625 93.3125V92.2461H81.9629V88.1719H83.1934V99.5469H81.9629V93.3125H80.0625ZM98.4375 93.7773V94.8164H93.4883V96.1289H97.0703V100.012H88.6074V96.1289H92.2031V94.8164H87.2676V93.7773H98.4375ZM88.293 89.3477V88.2949H97.3848V89.3477H95.6074V91.6855H97.3301V92.7383H88.3477V91.6855H90.084V89.3477H88.293ZM89.8926 98.959H95.8125V97.1543H89.8926V98.959ZM91.3691 91.6855H94.3086V89.3477H91.3691V91.6855ZM110.537 94.3105V95.3496H99.3672V94.3105H110.537ZM100.57 90.7695C100.563 89.2314 102.279 88.3154 104.945 88.3223C107.598 88.3154 109.313 89.2314 109.32 90.7695C109.313 92.3145 107.598 93.251 104.945 93.2578C102.279 93.251 100.563 92.3145 100.57 90.7695ZM100.775 99.9023V96.3477H102.088V98.8496H109.279V99.9023H100.775ZM101.91 90.7695C101.903 91.6787 103.065 92.1914 104.945 92.1914C106.818 92.1914 107.987 91.6787 107.98 90.7695C107.987 89.8945 106.818 89.3613 104.945 89.3613C103.065 89.3613 101.903 89.8945 101.91 90.7695ZM125.098 87.9258V96.9492H123.799V92.6973H121.256V91.6172H123.799V87.9258H125.098ZM115.062 94.543C117.79 93.6611 119.643 92 119.909 89.9219H115.691V88.8418H121.338C121.324 92.041 119.13 94.4473 115.609 95.582L115.062 94.543ZM117.209 99.9023V96.0195H118.521V98.8496H125.412V99.9023H117.209ZM136.609 87.9121V91.002H138.387V92.0547H136.609V95.1855H135.311V87.9121H136.609ZM126.971 94.2285C129.842 93.4219 131.599 91.8223 131.838 89.8398H127.518V88.7871H133.246C133.246 91.9521 131.093 94.2422 127.504 95.2812L126.971 94.2285ZM128.639 97.7285C128.625 96.2383 130.238 95.3154 132.699 95.3223C135.167 95.3154 136.746 96.2383 136.746 97.7285C136.746 99.2324 135.167 100.142 132.699 100.148C130.238 100.142 128.625 99.2324 128.639 97.7285ZM129.924 97.7285C129.917 98.5898 130.983 99.1162 132.699 99.123C134.401 99.1162 135.475 98.5898 135.475 97.7285C135.475 96.8672 134.401 96.3408 132.699 96.3477C130.983 96.3408 129.917 96.8672 129.924 97.7285ZM146.521 88.4727C148.367 88.4658 149.7 89.498 149.707 91.0156C149.7 92.5195 148.367 93.5586 146.521 93.5449C144.683 93.5586 143.356 92.5195 143.363 91.0156C143.356 89.498 144.683 88.4658 146.521 88.4727ZM142.488 94.502C144.751 94.502 147.875 94.4541 150.555 94.0508L150.65 95.0215C149.529 95.2334 148.374 95.3633 147.246 95.4385V99.7793H145.947V95.5137C144.758 95.5684 143.637 95.5752 142.666 95.582L142.488 94.502ZM144.621 91.0156C144.607 91.9043 145.407 92.4922 146.521 92.4785C147.663 92.4922 148.463 91.9043 148.463 91.0156C148.463 90.1201 147.663 89.5186 146.521 89.5254C145.407 89.5186 144.607 90.1201 144.621 91.0156ZM151.402 100.162V87.9258H152.688V100.162H151.402ZM164.814 87.9121V95.3359H163.516V92.6699H161.602V91.5898H163.516V87.9121H164.814ZM154.615 90.168V89.1289H157.568V87.8027H158.854V89.1289H161.793V90.168H154.615ZM155.326 92.916C155.326 91.6309 156.529 90.7285 158.211 90.7285C159.893 90.7285 161.082 91.6309 161.082 92.916C161.082 94.2354 159.893 95.1104 158.211 95.1172C156.529 95.1104 155.326 94.2354 155.326 92.916ZM156.57 92.916C156.57 93.6611 157.233 94.126 158.211 94.1328C159.175 94.126 159.838 93.6611 159.838 92.916C159.838 92.1982 159.175 91.7197 158.211 91.7266C157.233 91.7197 156.57 92.1982 156.57 92.916ZM156.734 100.012V95.9375H164.814V100.012H156.734ZM158.02 98.959H163.543V96.9629H158.02V98.959ZM179.662 87.9121V92.793H181.562V93.873H179.662V100.148H178.363V87.9121H179.662ZM170.133 96.8809C173.202 95.3496 174.87 93.1348 175.137 90.2773H170.748V89.1973H176.463C176.449 92.7383 174.891 95.9033 170.857 97.8926L170.133 96.8809ZM192.117 91.2207V92.2734H183.709V88.1309H184.994V91.2207H192.117ZM182.219 94.6387V93.5723H193.402V94.6387H182.219ZM183.545 97.8652C183.545 96.4365 185.138 95.6299 187.797 95.6367C190.436 95.6299 192.015 96.4365 192.021 97.8652C192.015 99.3008 190.436 100.107 187.797 100.107C185.138 100.107 183.545 99.3008 183.545 97.8652ZM184.857 97.8652C184.851 98.6514 185.924 99.1025 187.797 99.1094C189.643 99.1025 190.723 98.6514 190.723 97.8652C190.723 97.0723 189.643 96.6553 187.797 96.6484C185.924 96.6553 184.851 97.0723 184.857 97.8652ZM198.666 89.7441C198.659 91.46 199.773 92.9912 201.633 93.5996L200.922 94.6113C199.575 94.1191 198.584 93.1758 198.051 91.9453C197.524 93.3467 196.458 94.4473 194.975 94.9805L194.277 93.9414C196.232 93.2715 197.367 91.6377 197.381 89.7988V88.5957H198.666V89.7441ZM196.287 97.8242C196.28 96.3408 197.853 95.4795 200.43 95.4863C202.993 95.4795 204.565 96.3408 204.572 97.8242C204.565 99.3008 202.993 100.142 200.43 100.135C197.853 100.142 196.28 99.3008 196.287 97.8242ZM197.572 97.8242C197.565 98.6377 198.632 99.1162 200.43 99.1094C202.214 99.1162 203.28 98.6377 203.287 97.8242C203.28 96.9834 202.214 96.498 200.43 96.498C198.632 96.498 197.565 96.9834 197.572 97.8242ZM200.648 91.4668V90.4004H203.232V87.9121H204.531V95.1445H203.232V91.4668H200.648ZM216.562 87.9121V100.189H215.264V87.9121H216.562ZM206.842 93.1211C206.842 90.5029 208.161 88.835 210.014 88.8281C211.832 88.835 213.172 90.5029 213.172 93.1211C213.172 95.7666 211.832 97.4346 210.014 97.4277C208.161 97.4346 206.842 95.7666 206.842 93.1211ZM208.1 93.1211C208.093 95.0693 208.872 96.2656 210.014 96.2656C211.135 96.2656 211.914 95.0693 211.914 93.1211C211.914 91.2002 211.135 89.9971 210.014 89.9902C208.872 89.9971 208.093 91.2002 208.1 93.1211ZM226.188 96.0059C226.188 97.0586 226.707 98.1729 227.821 98.8359C228.942 98.1182 229.496 96.9492 229.496 96.0059V95.418H230.768V96.0059C230.761 97.2773 231.602 98.5078 233.201 99.0273L232.559 99.9844C231.349 99.5674 230.521 98.7471 230.098 97.749C229.708 98.7334 228.977 99.6289 227.855 100.094C226.68 99.6494 225.935 98.7812 225.559 97.7832C225.114 98.7471 224.308 99.5605 223.152 99.9844L222.496 99.0273C224.068 98.4668 224.923 97.1885 224.93 96.0059V95.418H226.188V96.0059ZM222.182 91.4941C222.188 89.7783 223.569 88.6025 225.449 88.5957C227.322 88.6025 228.703 89.7783 228.703 91.4941C228.703 93.1895 227.322 94.3652 225.449 94.3652C223.569 94.3652 222.188 93.1895 222.182 91.4941ZM223.453 91.4941C223.446 92.5605 224.287 93.2852 225.449 93.2852C226.598 93.2852 227.432 92.5605 227.432 91.4941C227.432 90.4209 226.598 89.6963 225.449 89.7031C224.287 89.6963 223.446 90.4209 223.453 91.4941ZM230.795 94.8984V87.9258H232.094V94.8984H230.795ZM237.357 88.8281C239.025 88.835 240.235 90.2432 240.434 92.5059H242.963V87.9121H244.248V100.189H242.963V93.5586H240.447C240.304 95.9512 239.066 97.4346 237.357 97.4277C235.532 97.4346 234.24 95.7666 234.254 93.1211C234.24 90.5029 235.532 88.835 237.357 88.8281ZM235.484 93.1211C235.491 95.0693 236.25 96.2656 237.357 96.2656C238.465 96.2656 239.224 95.0693 239.23 93.1211C239.224 91.2002 238.465 89.9971 237.357 89.9902C236.25 89.9971 235.491 91.2002 235.484 93.1211ZM257.346 97.5508V98.6309H246.135V97.5508H248.814V94.3516C247.81 93.7979 247.194 92.9229 247.201 91.8223C247.194 89.8945 249.088 88.6299 251.713 88.623C254.345 88.6299 256.238 89.8945 256.238 91.8223C256.238 92.9023 255.65 93.7705 254.666 94.3242V97.5508H257.346ZM248.459 91.8223C248.459 93.1348 249.792 93.9893 251.713 93.9961C253.62 93.9893 254.974 93.1348 254.98 91.8223C254.974 90.5029 253.62 89.6621 251.713 89.6621C249.792 89.6621 248.459 90.5029 248.459 91.8223ZM250.1 97.5508H253.354V94.8301C252.854 94.9463 252.301 95.0078 251.713 95.0078C251.139 95.0078 250.592 94.9463 250.1 94.8301V97.5508ZM259.629 99.0957C259.096 99.0889 258.651 98.6582 258.658 98.125C258.651 97.5918 259.096 97.1543 259.629 97.1543C260.155 97.1543 260.593 97.5918 260.6 98.125C260.593 98.6582 260.155 99.0889 259.629 99.0957Z" fill="#555555"/>
<defs>
<filter id="filter0_d_228_1733" x="0" y="0" width="391" height="157" filterUnits="userSpaceOnUse" color-interpolation-filters="sRGB">
<feFlood flood-opacity="0" result="BackgroundImageFix"/>
<feColorMatrix in="SourceAlpha" type="matrix" values="0 0 0 0 0 0 0 0 0 0 0 0 0 0 0 0 0 0 127 0" result="hardAlpha"/>
<feOffset/>
<feGaussianBlur stdDeviation="7.5"/>
<feComposite in2="hardAlpha" operator="out"/>
<feColorMatrix type="matrix" values="0 0 0 0 0 0 0 0 0 0 0 0 0 0 0 0 0 0 0.1 0"/>
<feBlend mode="normal" in2="BackgroundImageFix" result="effect1_dropShadow_228_1733"/>
<feBlend mode="normal" in="SourceGraphic" in2="effect1_dropShadow_228_1733" result="shape"/>
</filter>
</defs>
</svg>
