<svg width="51" height="36" viewBox="0 0 51 36" fill="none" xmlns="http://www.w3.org/2000/svg">
<path d="M49.5967 2.75436C48.5416 0.927042 46.3001 0.157343 44.345 0.951121L6.65302 16.2546C5.46272 16.7379 4.46016 17.472 3.67114 18.3652C0.499735 21.4369 -0.333496 26.3273 1.93965 30.2646C4.18942 34.1612 8.76838 35.8877 12.9783 34.7495C14.1944 34.5252 15.3801 34.0145 16.4333 33.1945L48.5325 8.20408C50.1975 6.90777 50.6518 4.58181 49.5967 2.75436ZM14.3282 23.111C15.5238 25.1818 14.7862 27.8465 12.6807 29.0621C10.5753 30.2775 7.89953 29.5836 6.70399 27.5128C5.50854 25.4421 6.24588 22.7787 8.35114 21.563C10.4566 20.3474 13.1326 21.0402 14.3282 23.111Z" fill="#D9D9D9"/>
</svg>
