<svg width="361" height="131" viewBox="0 0 361 131" fill="none" xmlns="http://www.w3.org/2000/svg">
<rect width="361" height="131" rx="8" fill="white"/>
<path d="M23.7812 22.125C23.7734 25.7656 21.375 28.3203 17.2656 29.4688L16.5625 28.1094C19.7266 27.25 21.6016 25.5938 21.9219 23.5312H17.3281V22.125H23.7812ZM19 35.2031V29.7969H28.2969V35.2031H19ZM20.7031 33.8281H26.5781V31.1719H20.7031V33.8281ZM23.8438 26.1562V24.7344H26.5625V21.2812H28.2969V29.2344H26.5625V26.1562H23.8438ZM34.7031 23.8281C34.7109 25.4062 35.5859 26.9688 37.4375 27.7031L36.5 29.0312C35.2578 28.5312 34.3828 27.6094 33.8828 26.4844C33.3594 27.75 32.4375 28.8281 31.0938 29.4062L30.1719 28.0625C32.1172 27.2109 33.0234 25.4219 33.0312 23.8281V22.1094H34.7031V23.8281ZM32.7031 31.8906V30.5H42.375V35.3906H40.6406V31.8906H32.7031ZM37.6875 29.75V21.5156H39.3125V24.7969H40.7188V21.2812H42.375V29.8281H40.7188V26.2344H39.3125V29.75H37.6875ZM55.9531 21.2656V28.4219H54.2188V27.1875H50.8125V25.8594H54.2188V24.4688H50.9922C50.1172 26.625 48.0469 28.0312 44.9219 28.7344L44.3125 27.3125C47.6328 26.6172 49.2891 25.1562 49.5312 23.2812H45.0938V21.875H51.4688C51.4688 22.3203 51.4297 22.7422 51.3672 23.1406H54.2188V21.2656H55.9531ZM46.6562 30.3438V28.9688H55.9531V32.6875H48.4062V33.8594H56.3281V35.25H46.6719V31.3906H54.2188V30.3438H46.6562ZM65.8438 22.7344V23.7344C65.8438 24.9922 65.8438 26.7734 65.4531 29.2031L63.7344 29.0625C64.0781 26.9219 64.1172 25.3359 64.125 24.125H58.5781V22.7344H65.8438ZM57.8281 31.0312C58.6641 31.0234 59.5938 31.0156 60.5625 30.9922V26.7656H62.2812V30.9375C63.7188 30.875 65.1953 30.7734 66.5469 30.6094L66.6406 31.9062C63.7266 32.3828 60.4922 32.4375 58 32.4219L57.8281 31.0312ZM67.2812 35.3906V21.2656H69.0312V27.0156H71.0781V28.4844H69.0312V35.3906H67.2812ZM82.8438 21.2656V26.7812H84.9375V28.2344H82.8438V35.3594H81.1094V21.2656H82.8438ZM71.7031 31.5C75.1406 29.7812 77 27.3906 77.3438 24.1719H72.4688V22.7344H79.1094C79.1016 26.8828 77.3828 30.5312 72.6875 32.8438L71.7031 31.5ZM92.6094 29.5312V31.0469H94.4688V29.5312H96.0781V34.0156C97.7422 33.3125 98.5 31.8984 98.5 30.5469V29.4219H100.234V30.5469C100.227 32.0078 100.992 33.4375 102.734 34.0312L101.844 35.3281C100.594 34.875 99.7969 34.0234 99.3516 32.9531C98.8828 33.9922 98.0781 34.8594 96.9062 35.3281L96.0781 34.1016V35.2188H90.9844V29.5312H92.6094ZM89.5938 25.125C89.5938 23.1953 91.1641 21.8359 93.3281 21.8438C95.1484 21.8359 96.5859 22.8594 96.9453 24.3906H99.5V21.2656H101.234V28.75H99.5V25.8281H96.9531C96.6094 27.3984 95.1641 28.4375 93.3281 28.4375C91.1641 28.4375 89.5938 27.0859 89.5938 25.125ZM91.25 25.125C91.25 26.2656 92.1094 27.0156 93.3281 27.0156C94.5156 27.0156 95.3672 26.2656 95.375 25.125C95.3672 24.0078 94.5156 23.2734 93.3281 23.2812C92.1094 23.2734 91.25 24.0078 91.25 25.125ZM92.6094 33.8906H94.4688V32.3438H92.6094V33.8906ZM114.297 21.2656V26.625H116.469V28.0469H114.297V35.4062H112.562V21.2656H114.297ZM103.812 31.9531V22.6094H110.422V24.0156H105.547V30.5C107.742 30.4922 109.484 30.3828 111.422 30.0469L111.625 31.5156C109.43 31.8906 107.531 31.9531 104.984 31.9531H103.812ZM124.312 22.4531V23.5781H127.156V21.2812H128.891V31.5625H127.156V28H124.312V29.2188H117.672V22.4531H124.312ZM119.406 27.8594H122.594V23.8281H119.406V27.8594ZM119.578 35.1094V30.6094H121.344V33.7031H129.203V35.1094H119.578ZM124.312 26.6094H127.156V25H124.312V26.6094ZM133.281 30.5312C133.297 28.5391 133.859 27.9297 134.844 27.3281C135.508 26.8984 136.023 26.375 136.016 25.5938C136.023 24.7188 135.336 24.1562 134.484 24.1562C133.711 24.1562 132.961 24.6562 132.906 25.7031H130.953C131.008 23.6016 132.57 22.5312 134.5 22.5312C136.609 22.5312 138.055 23.7031 138.062 25.5625C138.055 26.8359 137.422 27.6641 136.406 28.2656C135.5 28.8203 135.125 29.3594 135.109 30.5312V30.6719H133.281V30.5312ZM133.031 32.9062C133.023 32.25 133.578 31.7109 134.25 31.7031C134.898 31.7109 135.453 32.25 135.453 32.9062C135.453 33.5781 134.898 34.125 134.25 34.125C133.578 34.125 133.023 33.5781 133.031 32.9062Z" fill="#222222"/>
<path d="M26.6641 55.9121V63.1992H25.3652V60.0957H23.082V59.0293H25.3652V55.9121H26.6641ZM16.4512 62.0918C18.3516 61.4287 19.5205 59.7744 19.5137 58.0859V57.8125H16.8613V56.7598H23.4648V57.8125H20.8398V58.0723C20.833 59.624 21.9404 61.1348 23.793 61.7637L23.123 62.7891C21.749 62.3174 20.7373 61.333 20.2041 60.123C19.6709 61.4902 18.5977 62.5908 17.1348 63.1309L16.4512 62.0918ZM18.4199 65.8516C18.4131 64.3955 19.9854 63.5479 22.5625 63.541C25.126 63.5479 26.6982 64.3955 26.7051 65.8516C26.6982 67.3076 25.126 68.1553 22.5625 68.1621C19.9854 68.1553 18.4131 67.3076 18.4199 65.8516ZM19.7051 65.8516C19.6982 66.6787 20.7646 67.1504 22.5625 67.1367C24.3467 67.1504 25.4131 66.6787 25.4199 65.8516C25.4131 65.0176 24.3467 64.5459 22.5625 64.5527C20.7646 64.5459 19.6982 65.0176 19.7051 65.8516ZM38.1895 55.9258V59.5625H39.9395V60.6289H38.1895V64.1699H36.8906V55.9258H38.1895ZM28.4688 62.8027C29.4189 62.8027 30.5195 62.8027 31.668 62.7754V61.9482C30.2734 61.791 29.3848 61.1348 29.3984 60.1504C29.3848 59.0293 30.5537 58.332 32.3105 58.3457C34.0674 58.332 35.2158 59.0293 35.2227 60.1504C35.2158 61.1279 34.3477 61.7842 32.9668 61.9482V62.7275C34.0605 62.6729 35.168 62.584 36.1934 62.4336L36.3027 63.3633C33.6709 63.8213 30.7656 63.8418 28.6055 63.8418L28.4688 62.8027ZM28.7832 57.9355V56.9648H31.668V55.8164H32.9668V56.9648H35.8516V57.9355H28.7832ZM30 65.7559V64.7441H38.1895V68.1621H36.8906V65.7559H30ZM30.6289 60.1504C30.6289 60.7246 31.2646 61.1006 32.3105 61.0938C33.3428 61.1006 33.9854 60.7246 33.9785 60.1504C33.9854 59.5625 33.3428 59.2207 32.3105 59.2344C31.2646 59.2207 30.6289 59.5625 30.6289 60.1504ZM50.1934 55.9121V60.875H52.1621V61.9551H50.1934V68.1621H48.9082V55.9121H50.1934ZM40.582 58.8926V57.8262H43.6035V56.0762H44.9023V57.8262H47.8418V58.8926H40.582ZM41.2109 62.6387C41.2109 60.9707 42.4961 59.7949 44.2598 59.7949C46.0166 59.7949 47.3018 60.9707 47.3086 62.6387C47.3018 64.3203 46.0166 65.4893 44.2598 65.4961C42.4961 65.4893 41.2109 64.3203 41.2109 62.6387ZM42.4551 62.6387C42.4482 63.7051 43.2139 64.416 44.2598 64.4023C45.2988 64.416 46.0576 63.7051 46.0645 62.6387C46.0576 61.5928 45.2988 60.8682 44.2598 60.8613C43.2139 60.8682 42.4482 61.5928 42.4551 62.6387ZM63.2773 55.9121V68.1621H62.0469V55.9121H63.2773ZM52.709 64.6211C55.3066 63.0762 56.5508 61.0186 56.7764 58.4961H53.2832V57.4297H58.0684C58.0615 58.626 57.8975 59.7676 57.5215 60.834H59.4629V56.2266H60.6934V67.5605H59.4629V61.873H57.0703C56.3457 63.2949 55.1768 64.5391 53.4473 65.5508L52.709 64.6211ZM78.4258 55.9121V62.4883H77.127V55.9121H78.4258ZM68.5137 59.3164C68.5205 57.6348 69.9014 56.4658 71.7812 56.4727C73.6543 56.4658 75.0352 57.6348 75.0352 59.3164C75.0352 60.9912 73.6543 62.1602 71.7812 62.1465C69.9014 62.1602 68.5205 60.9912 68.5137 59.3164ZM69.7852 59.3164C69.7783 60.376 70.6191 61.0801 71.7812 61.0801C72.9297 61.0801 73.7637 60.376 73.7637 59.3164C73.7637 58.2705 72.9297 57.5596 71.7812 57.5664C70.6191 57.5596 69.7783 58.2705 69.7852 59.3164ZM70.4141 68.0117V63.0762H71.6855V64.457H77.1406V63.0762H78.4258V68.0117H70.4141ZM71.6855 66.9453H77.1406V65.4824H71.6855V66.9453ZM86.2051 56.6504V60.2188H82.1582V61.9141C84.291 61.9141 85.4531 61.8662 86.834 61.6133L86.957 62.666C85.46 62.9189 84.2021 62.96 81.7617 62.9668H80.873V59.2344H84.9062V57.6895H80.8594V56.6504H86.2051ZM82.2676 65.127V64.0742H90.5801V68.1758H89.2812V65.127H82.2676ZM86.9844 61.2988V60.2598H89.2812V58.7422H86.9844V57.7031H89.2812V55.9258H90.5801V63.459H89.2812V61.2988H86.9844ZM102.912 55.9258V63.5H101.682V60.2734H100.287V63.3223H99.0703V56.1035H100.287V59.2207H101.682V55.9258H102.912ZM92.3984 58.2773V57.2383H94.873V55.9668H96.1582V57.2383H98.5918V58.2773H92.3984ZM92.877 60.9434C92.877 59.6514 93.9707 58.8242 95.502 58.8242C97.0674 58.8242 98.1543 59.6514 98.1543 60.9434C98.1543 62.1943 97.0674 63.0488 95.502 63.0488C93.9707 63.0488 92.877 62.1943 92.877 60.9434ZM93.2188 67.0273C94.7705 66.5352 95.6455 65.332 95.6523 64.2246V63.8555H96.9238V64.2246C96.917 65.2227 97.4229 66.2617 98.5166 66.877C99.624 66.207 100.164 65.0996 100.164 64.2246V63.8555H101.449V64.2246C101.442 65.4004 102.297 66.5762 103.883 67.0273L103.268 68.0117C102.051 67.6152 101.224 66.8223 100.793 65.8516C100.417 66.8018 99.6855 67.6836 98.5508 68.1211C97.375 67.6973 96.6367 66.8701 96.2607 65.9062C95.8164 66.8291 94.9893 67.6084 93.834 68.0117L93.2188 67.0273ZM94.0391 60.9434C94.0391 61.6406 94.6338 62.085 95.502 62.0918C96.3838 62.085 96.9854 61.6406 96.9785 60.9434C96.9854 60.2119 96.3838 59.7744 95.502 59.7812C94.6338 59.7744 94.0391 60.2119 94.0391 60.9434ZM114.479 59.4941V60.5332H106.043V56.3496H107.328V59.4941H114.479ZM104.553 63.1172V62.0781H115.764V63.1172H104.553ZM105.947 67.875V64.2793H107.246V66.8086H114.561V67.875H105.947ZM121.178 59.5215C121.171 61.5723 122.518 63.6914 124.404 64.498L123.693 65.5098C122.251 64.874 121.103 63.5205 120.535 61.8867C119.968 63.6367 118.819 65.127 117.391 65.8242L116.639 64.7988C118.484 63.9307 119.852 61.6338 119.865 59.5215V58.2227H117.062V57.1426H123.967V58.2227H121.178V59.5215ZM125.512 68.1621V55.9121H126.811V68.1621H125.512ZM141.822 55.9258V59.5625H143.572V60.6289H141.822V64.1699H140.523V55.9258H141.822ZM132.102 62.8027C133.052 62.8027 134.152 62.8027 135.301 62.7754V61.9482C133.906 61.791 133.018 61.1348 133.031 60.1504C133.018 59.0293 134.187 58.332 135.943 58.3457C137.7 58.332 138.849 59.0293 138.855 60.1504C138.849 61.1279 137.98 61.7842 136.6 61.9482V62.7275C137.693 62.6729 138.801 62.584 139.826 62.4336L139.936 63.3633C137.304 63.8213 134.398 63.8418 132.238 63.8418L132.102 62.8027ZM132.416 57.9355V56.9648H135.301V55.8164H136.6V56.9648H139.484V57.9355H132.416ZM133.633 65.7559V64.7441H141.822V68.1621H140.523V65.7559H133.633ZM134.262 60.1504C134.262 60.7246 134.897 61.1006 135.943 61.0938C136.976 61.1006 137.618 60.7246 137.611 60.1504C137.618 59.5625 136.976 59.2207 135.943 59.2344C134.897 59.2207 134.262 59.5625 134.262 60.1504ZM154.441 55.9258V64.8262H153.143V55.9258H154.441ZM144.529 59.7812C144.536 58.0107 145.944 56.7529 147.797 56.7461C149.643 56.7529 151.051 58.0107 151.051 59.7812C151.051 61.5791 149.643 62.8301 147.797 62.8301C145.944 62.8301 144.536 61.5791 144.529 59.7812ZM145.801 59.7812C145.794 60.9365 146.655 61.6953 147.797 61.6953C148.918 61.6953 149.779 60.9365 149.779 59.7812C149.779 58.6533 148.918 57.8809 147.797 57.8809C146.655 57.8809 145.794 58.6533 145.801 59.7812ZM146.43 67.9023V63.9238H147.742V66.8496H154.811V67.9023H146.43ZM162.439 57.9355V58.9883H156.355V57.9355H158.762V56.2676H160.047V57.9355H162.439ZM156.752 62.543C156.745 60.8955 157.866 59.7266 159.404 59.7266C160.956 59.7266 162.063 60.8955 162.07 62.543C162.063 64.2178 160.956 65.3936 159.404 65.3867C157.866 65.3936 156.745 64.2178 156.752 62.543ZM157.9 62.543C157.894 63.582 158.522 64.2793 159.404 64.2793C160.286 64.2793 160.922 63.582 160.922 62.543C160.922 61.5244 160.286 60.8135 159.404 60.8066C158.522 60.8135 157.894 61.5244 157.9 62.543ZM163 67.5879V56.1855H164.23V61.0117H165.639V55.9121H166.869V68.1621H165.639V62.0781H164.23V67.5879H163ZM179.693 65.5645V66.6445H168.482V65.5645H173.418V63.0488H169.768V56.7461H171.066V58.8516H177.082V56.7461H178.367V63.0488H174.703V65.5645H179.693ZM171.066 61.9961H177.082V59.9043H171.066V61.9961ZM184.314 59.2617C184.314 61.2168 185.135 63.3018 186.775 64.3066L186.051 65.3047C184.902 64.6143 184.13 63.3906 183.706 61.9756C183.262 63.5273 182.414 64.8535 181.225 65.5781L180.418 64.6074C182.147 63.5684 183.063 61.4014 183.057 59.3164V57.0332H184.314V59.2617ZM185.449 61.2988V60.2188H187.35V56.1445H188.58V67.5605H187.35V61.2988H185.449ZM189.879 68.1621V55.9121H191.123V68.1621H189.879ZM203.893 65.5508V66.6309H192.682V65.5508H195.361V62.3516C194.356 61.7979 193.741 60.9229 193.748 59.8223C193.741 57.8945 195.635 56.6299 198.26 56.623C200.892 56.6299 202.785 57.8945 202.785 59.8223C202.785 60.9023 202.197 61.7705 201.213 62.3242V65.5508H203.893ZM195.006 59.8223C195.006 61.1348 196.339 61.9893 198.26 61.9961C200.167 61.9893 201.521 61.1348 201.527 59.8223C201.521 58.5029 200.167 57.6621 198.26 57.6621C196.339 57.6621 195.006 58.5029 195.006 59.8223ZM196.646 65.5508H199.9V62.8301C199.401 62.9463 198.848 63.0078 198.26 63.0078C197.686 63.0078 197.139 62.9463 196.646 62.8301V65.5508ZM206.176 67.0957C205.643 67.0889 205.198 66.6582 205.205 66.125C205.198 65.5918 205.643 65.1543 206.176 65.1543C206.702 65.1543 207.14 65.5918 207.146 66.125C207.14 66.6582 206.702 67.0889 206.176 67.0957ZM21.1953 83.4199V85.5391C22.3164 85.4775 23.4512 85.3818 24.5176 85.2246L24.6133 86.1816C21.8447 86.6943 18.8711 86.7148 16.6836 86.7148L16.5195 85.6484C17.5039 85.6416 18.6729 85.6348 19.8965 85.5938V83.4199H21.1953ZM16.8477 82.832C18.6729 82.3057 19.8145 81.0273 19.8828 79.5234H17.1758V78.4707H19.8965V77.0078H21.1953V78.4707H23.9434V79.5234H21.1953C21.2637 80.9658 22.4258 82.2031 24.2578 82.6953L23.6562 83.707C22.1934 83.29 21.0996 82.4014 20.5459 81.2393C20.0127 82.4629 18.9326 83.3994 17.4629 83.8164L16.8477 82.832ZM25.2832 89.1895V76.9121H26.582V89.1895H25.2832ZM39.0645 76.9121V89.1621H37.8203V82.832H36.2344V88.5332H35.0449V77.1582H36.2344V81.7656H37.8203V76.9121H39.0645ZM28.9609 86.2227V78.3887H33.5547V79.4414H30.2598V85.1152C31.7637 85.1084 32.8984 85.04 34.2109 84.7871L34.3066 85.8535C32.8369 86.1611 31.5654 86.209 29.7812 86.2227H28.9609ZM50.2754 76.9258V80.8633H52.0527V81.9434H50.2754V86.0859H48.9766V76.9258H50.2754ZM40.6641 79.4004V78.3477H43.6719V76.9121H44.9707V78.3477H47.9648V79.4004H40.6641ZM41.334 82.2988C41.3271 80.8975 42.5371 79.9814 44.3145 79.9883C46.0713 79.9814 47.2812 80.8975 47.2812 82.2988C47.2812 83.6865 46.0713 84.5889 44.3145 84.5957C42.5371 84.5889 41.3271 83.6865 41.334 82.2988ZM42.5098 88.9023V85.3613H43.8086V87.8496H50.7949V88.9023H42.5098ZM42.5918 82.2988C42.5781 83.0986 43.2754 83.5908 44.3145 83.584C45.3535 83.5908 46.0508 83.0986 46.0645 82.2988C46.0508 81.4922 45.3535 80.9932 44.3145 80.9863C43.2754 80.9932 42.5781 81.4922 42.5918 82.2988ZM66.3809 76.9121V84.1992H65.082V81.0957H62.7988V80.0293H65.082V76.9121H66.3809ZM56.168 83.0918C58.0684 82.4287 59.2373 80.7744 59.2305 79.0859V78.8125H56.5781V77.7598H63.1816V78.8125H60.5566V79.0723C60.5498 80.624 61.6572 82.1348 63.5098 82.7637L62.8398 83.7891C61.4658 83.3174 60.4541 82.333 59.9209 81.123C59.3877 82.4902 58.3145 83.5908 56.8516 84.1309L56.168 83.0918ZM58.1367 86.8516C58.1299 85.3955 59.7021 84.5479 62.2793 84.541C64.8428 84.5479 66.415 85.3955 66.4219 86.8516C66.415 88.3076 64.8428 89.1553 62.2793 89.1621C59.7021 89.1553 58.1299 88.3076 58.1367 86.8516ZM59.4219 86.8516C59.415 87.6787 60.4814 88.1504 62.2793 88.1367C64.0635 88.1504 65.1299 87.6787 65.1367 86.8516C65.1299 86.0176 64.0635 85.5459 62.2793 85.5527C60.4814 85.5459 59.415 86.0176 59.4219 86.8516ZM79.4785 86.5645V87.6445H68.2676V86.5645H73.2031V84.0488H69.5527V77.7461H70.8516V79.8516H76.8672V77.7461H78.1523V84.0488H74.4883V86.5645H79.4785ZM70.8516 82.9961H76.8672V80.9043H70.8516V82.9961ZM91.5645 82.5312V83.5293H80.3535V82.5312H91.5645ZM81.6797 85.3203V84.3906H90.1836V87.084H82.9922V88.0957H90.5664V89.0117H81.6934V86.2227H88.8984V85.3203H81.6797ZM81.7617 78.1426V77.2266H90.1562V79.8789H83.0742V80.8086H90.3613V81.7246H81.7891V79.0176H88.8574V78.1426H81.7617ZM100.15 80.5215C100.144 82.4561 101.422 84.6162 103.281 85.498L102.543 86.5098C101.169 85.8535 100.075 84.4727 99.5215 82.873C98.9609 84.6162 97.8125 86.127 96.418 86.8242L95.6523 85.7988C97.5117 84.9033 98.8584 82.5928 98.8652 80.5215V79.2227H96.1035V78.1426H102.816V79.2227H100.15V80.5215ZM104.129 89.1621V76.9121H105.428V81.7656H107.396V82.8594H105.428V89.1621H104.129ZM111.717 80.2617C111.717 82.2168 112.537 84.3018 114.178 85.3066L113.453 86.3047C112.305 85.6143 111.532 84.3906 111.108 82.9756C110.664 84.5273 109.816 85.8535 108.627 86.5781L107.82 85.6074C109.55 84.5684 110.466 82.4014 110.459 80.3164V78.0332H111.717V80.2617ZM112.852 82.2988V81.2188H114.752V77.1445H115.982V88.5605H114.752V82.2988H112.852ZM117.281 89.1621V76.9121H118.525V89.1621H117.281ZM129.627 76.9121V81.875H131.596V82.9551H129.627V89.1621H128.342V76.9121H129.627ZM120.016 79.8926V78.8262H123.037V77.0762H124.336V78.8262H127.275V79.8926H120.016ZM120.645 83.6387C120.645 81.9707 121.93 80.7949 123.693 80.7949C125.45 80.7949 126.735 81.9707 126.742 83.6387C126.735 85.3203 125.45 86.4893 123.693 86.4961C121.93 86.4893 120.645 85.3203 120.645 83.6387ZM121.889 83.6387C121.882 84.7051 122.647 85.416 123.693 85.4023C124.732 85.416 125.491 84.7051 125.498 83.6387C125.491 82.5928 124.732 81.8682 123.693 81.8613C122.647 81.8682 121.882 82.5928 121.889 83.6387ZM142.711 76.9121V89.1621H141.48V76.9121H142.711ZM132.143 85.6211C134.74 84.0762 135.984 82.0186 136.21 79.4961H132.717V78.4297H137.502C137.495 79.626 137.331 80.7676 136.955 81.834H138.896V77.2266H140.127V88.5605H138.896V82.873H136.504C135.779 84.2949 134.61 85.5391 132.881 86.5508L132.143 85.6211ZM157.859 76.9121V83.4883H156.561V76.9121H157.859ZM147.947 80.3164C147.954 78.6348 149.335 77.4658 151.215 77.4727C153.088 77.4658 154.469 78.6348 154.469 80.3164C154.469 81.9912 153.088 83.1602 151.215 83.1465C149.335 83.1602 147.954 81.9912 147.947 80.3164ZM149.219 80.3164C149.212 81.376 150.053 82.0801 151.215 82.0801C152.363 82.0801 153.197 81.376 153.197 80.3164C153.197 79.2705 152.363 78.5596 151.215 78.5664C150.053 78.5596 149.212 79.2705 149.219 80.3164ZM149.848 89.0117V84.0762H151.119V85.457H156.574V84.0762H157.859V89.0117H149.848ZM151.119 87.9453H156.574V86.4824H151.119V87.9453ZM165.639 77.6504V81.2188H161.592V82.9141C163.725 82.9141 164.887 82.8662 166.268 82.6133L166.391 83.666C164.894 83.9189 163.636 83.96 161.195 83.9668H160.307V80.2344H164.34V78.6895H160.293V77.6504H165.639ZM161.701 86.127V85.0742H170.014V89.1758H168.715V86.127H161.701ZM166.418 82.2988V81.2598H168.715V79.7422H166.418V78.7031H168.715V76.9258H170.014V84.459H168.715V82.2988H166.418ZM177.957 78.9355V79.9883H171.873V78.9355H174.279V77.2676H175.564V78.9355H177.957ZM172.27 83.543C172.263 81.8955 173.384 80.7266 174.922 80.7266C176.474 80.7266 177.581 81.8955 177.588 83.543C177.581 85.2178 176.474 86.3936 174.922 86.3867C173.384 86.3936 172.263 85.2178 172.27 83.543ZM173.418 83.543C173.411 84.582 174.04 85.2793 174.922 85.2793C175.804 85.2793 176.439 84.582 176.439 83.543C176.439 82.5244 175.804 81.8135 174.922 81.8066C174.04 81.8135 173.411 82.5244 173.418 83.543ZM178.518 88.5879V77.1855H179.748V82.0117H181.156V76.9121H182.387V89.1621H181.156V83.0781H179.748V88.5879H178.518ZM195.17 83.8164V84.8691H190.193V89.1484H188.922V84.8691H184V83.8164H195.17ZM184.629 81.8613C186.912 81.5469 188.812 80.1865 188.854 78.6758H185.039V77.6367H194.117V78.6758H190.33C190.351 80.1865 192.237 81.5469 194.555 81.8613L194.076 82.8867C192.066 82.5723 190.33 81.5811 189.585 80.1865C188.833 81.5811 187.104 82.5723 185.121 82.8867L184.629 81.8613ZM199.832 80.2617C199.832 82.2168 200.652 84.3018 202.293 85.3066L201.568 86.3047C200.42 85.6143 199.647 84.3906 199.224 82.9756C198.779 84.5273 197.932 85.8535 196.742 86.5781L195.936 85.6074C197.665 84.5684 198.581 82.4014 198.574 80.3164V78.0332H199.832V80.2617ZM200.967 82.2988V81.2188H202.867V77.1445H204.098V88.5605H202.867V82.2988H200.967ZM205.396 89.1621V76.9121H206.641V89.1621H205.396ZM219.41 86.5508V87.6309H208.199V86.5508H210.879V83.3516C209.874 82.7979 209.259 81.9229 209.266 80.8223C209.259 78.8945 211.152 77.6299 213.777 77.623C216.409 77.6299 218.303 78.8945 218.303 80.8223C218.303 81.9023 217.715 82.7705 216.73 83.3242V86.5508H219.41ZM210.523 80.8223C210.523 82.1348 211.856 82.9893 213.777 82.9961C215.685 82.9893 217.038 82.1348 217.045 80.8223C217.038 79.5029 215.685 78.6621 213.777 78.6621C211.856 78.6621 210.523 79.5029 210.523 80.8223ZM212.164 86.5508H215.418V83.8301C214.919 83.9463 214.365 84.0078 213.777 84.0078C213.203 84.0078 212.656 83.9463 212.164 83.8301V86.5508ZM221.693 88.0957C221.16 88.0889 220.716 87.6582 220.723 87.125C220.716 86.5918 221.16 86.1543 221.693 86.1543C222.22 86.1543 222.657 86.5918 222.664 87.125C222.657 87.6582 222.22 88.0889 221.693 88.0957ZM26.5957 97.9121V110.189H25.2969V97.9121H26.5957ZM16.875 103.121C16.875 100.503 18.1943 98.835 20.0469 98.8281C21.8652 98.835 23.2051 100.503 23.2051 103.121C23.2051 105.767 21.8652 107.435 20.0469 107.428C18.1943 107.435 16.875 105.767 16.875 103.121ZM18.1328 103.121C18.126 105.069 18.9053 106.266 20.0469 106.266C21.168 106.266 21.9473 105.069 21.9473 103.121C21.9473 101.2 21.168 99.9971 20.0469 99.9902C18.9053 99.9971 18.126 101.2 18.1328 103.121ZM34.9766 99.0879V107.141H29.2344V99.0879H34.9766ZM30.5195 106.088H33.7188V100.113H30.5195V106.088ZM37.3965 110.189V97.9121H38.6953V110.189H37.3965ZM45.1621 101.521C45.1553 103.572 46.502 105.691 48.3887 106.498L47.6777 107.51C46.2354 106.874 45.0869 105.521 44.5195 103.887C43.9521 105.637 42.8037 107.127 41.375 107.824L40.623 106.799C42.4688 105.931 43.8359 103.634 43.8496 101.521V100.223H41.0469V99.1426H47.9512V100.223H45.1621V101.521ZM49.4961 110.162V97.9121H50.7949V110.162H49.4961ZM63.9473 103.531V104.529H52.7363V103.531H63.9473ZM54.0625 106.32V105.391H62.5664V108.084H55.375V109.096H62.9492V110.012H54.0762V107.223H61.2812V106.32H54.0625ZM54.1445 99.1426V98.2266H62.5391V100.879H55.457V101.809H62.7441V102.725H54.1719V100.018H61.2402V99.1426H54.1445ZM78.4258 97.9121V104.488H77.127V97.9121H78.4258ZM68.5137 101.316C68.5205 99.6348 69.9014 98.4658 71.7812 98.4727C73.6543 98.4658 75.0352 99.6348 75.0352 101.316C75.0352 102.991 73.6543 104.16 71.7812 104.146C69.9014 104.16 68.5205 102.991 68.5137 101.316ZM69.7852 101.316C69.7783 102.376 70.6191 103.08 71.7812 103.08C72.9297 103.08 73.7637 102.376 73.7637 101.316C73.7637 100.271 72.9297 99.5596 71.7812 99.5664C70.6191 99.5596 69.7783 100.271 69.7852 101.316ZM70.4141 110.012V105.076H71.6855V106.457H77.1406V105.076H78.4258V110.012H70.4141ZM71.6855 108.945H77.1406V107.482H71.6855V108.945ZM86.2051 98.6504V102.219H82.1582V103.914C84.291 103.914 85.4531 103.866 86.834 103.613L86.957 104.666C85.46 104.919 84.2021 104.96 81.7617 104.967H80.873V101.234H84.9062V99.6895H80.8594V98.6504H86.2051ZM82.2676 107.127V106.074H90.5801V110.176H89.2812V107.127H82.2676ZM86.9844 103.299V102.26H89.2812V100.742H86.9844V99.7031H89.2812V97.9258H90.5801V105.459H89.2812V103.299H86.9844ZM98.5234 99.9355V100.988H92.4395V99.9355H94.8457V98.2676H96.1309V99.9355H98.5234ZM92.8359 104.543C92.8291 102.896 93.9502 101.727 95.4883 101.727C97.04 101.727 98.1475 102.896 98.1543 104.543C98.1475 106.218 97.04 107.394 95.4883 107.387C93.9502 107.394 92.8291 106.218 92.8359 104.543ZM93.9844 104.543C93.9775 105.582 94.6064 106.279 95.4883 106.279C96.3701 106.279 97.0059 105.582 97.0059 104.543C97.0059 103.524 96.3701 102.813 95.4883 102.807C94.6064 102.813 93.9775 103.524 93.9844 104.543ZM99.084 109.588V98.1855H100.314V103.012H101.723V97.9121H102.953V110.162H101.723V104.078H100.314V109.588H99.084ZM115.736 104.816V105.869H110.76V110.148H109.488V105.869H104.566V104.816H115.736ZM105.195 102.861C107.479 102.547 109.379 101.187 109.42 99.6758H105.605V98.6367H114.684V99.6758H110.896C110.917 101.187 112.804 102.547 115.121 102.861L114.643 103.887C112.633 103.572 110.896 102.581 110.151 101.187C109.399 102.581 107.67 103.572 105.688 103.887L105.195 102.861ZM121.164 101.029C121.15 103.265 122.504 105.521 124.404 106.361L123.625 107.387C122.217 106.717 121.103 105.343 120.528 103.668C119.961 105.466 118.833 106.942 117.363 107.66L116.57 106.566C118.498 105.712 119.852 103.367 119.852 101.029V98.9375H121.164V101.029ZM125.512 110.189V97.9121H126.811V110.189H125.512ZM135.014 98.9512V99.9902H137.68V97.9258H138.979V106.854H137.68V103.682H135.014V104.748H129.326V98.9512H135.014ZM130.611 103.723H133.742V100.004H130.611V103.723ZM130.98 109.902V106.033H132.293V108.85H139.252V109.902H130.98ZM135.014 102.615H137.68V101.057H135.014V102.615ZM150.504 99.0469V100.127H146.197V106.102C148.255 106.088 149.656 106.013 151.27 105.705L151.42 106.771C149.656 107.106 148.166 107.182 145.855 107.182H144.885V99.0469H150.504ZM149.807 103.367V102.287H153.211V97.9121H154.51V110.189H153.211V103.367H149.807ZM167.553 103.805V104.844H162.604V106.197H166.186V110.162H164.873V107.223H157.627V106.197H161.318V104.844H156.383V103.805H167.553ZM157.586 100.578C157.579 99.0811 159.281 98.1787 161.961 98.1855C164.634 98.1787 166.329 99.0811 166.336 100.578C166.329 102.048 164.634 102.95 161.961 102.943C159.281 102.95 157.579 102.048 157.586 100.578ZM158.926 100.578C158.919 101.433 160.074 101.925 161.961 101.918C163.834 101.925 165.003 101.433 164.996 100.578C165.003 99.7168 163.834 99.2041 161.961 99.2109C160.074 99.2041 158.919 99.7168 158.926 100.578ZM182.113 97.9121V105.199H180.814V102.096H178.531V101.029H180.814V97.9121H182.113ZM171.9 104.092C173.801 103.429 174.97 101.774 174.963 100.086V99.8125H172.311V98.7598H178.914V99.8125H176.289V100.072C176.282 101.624 177.39 103.135 179.242 103.764L178.572 104.789C177.198 104.317 176.187 103.333 175.653 102.123C175.12 103.49 174.047 104.591 172.584 105.131L171.9 104.092ZM173.869 107.852C173.862 106.396 175.435 105.548 178.012 105.541C180.575 105.548 182.147 106.396 182.154 107.852C182.147 109.308 180.575 110.155 178.012 110.162C175.435 110.155 173.862 109.308 173.869 107.852ZM175.154 107.852C175.147 108.679 176.214 109.15 178.012 109.137C179.796 109.15 180.862 108.679 180.869 107.852C180.862 107.018 179.796 106.546 178.012 106.553C176.214 106.546 175.147 107.018 175.154 107.852ZM193.639 97.9258V101.562H195.389V102.629H193.639V106.17H192.34V97.9258H193.639ZM183.918 104.803C184.868 104.803 185.969 104.803 187.117 104.775V103.948C185.723 103.791 184.834 103.135 184.848 102.15C184.834 101.029 186.003 100.332 187.76 100.346C189.517 100.332 190.665 101.029 190.672 102.15C190.665 103.128 189.797 103.784 188.416 103.948V104.728C189.51 104.673 190.617 104.584 191.643 104.434L191.752 105.363C189.12 105.821 186.215 105.842 184.055 105.842L183.918 104.803ZM184.232 99.9355V98.9648H187.117V97.8164H188.416V98.9648H191.301V99.9355H184.232ZM185.449 107.756V106.744H193.639V110.162H192.34V107.756H185.449ZM186.078 102.15C186.078 102.725 186.714 103.101 187.76 103.094C188.792 103.101 189.435 102.725 189.428 102.15C189.435 101.562 188.792 101.221 187.76 101.234C186.714 101.221 186.078 101.562 186.078 102.15ZM205.725 97.9258V101.863H207.502V102.943H205.725V107.086H204.426V97.9258H205.725ZM196.113 100.4V99.3477H199.121V97.9121H200.42V99.3477H203.414V100.4H196.113ZM196.783 103.299C196.776 101.897 197.986 100.981 199.764 100.988C201.521 100.981 202.73 101.897 202.73 103.299C202.73 104.687 201.521 105.589 199.764 105.596C197.986 105.589 196.776 104.687 196.783 103.299ZM197.959 109.902V106.361H199.258V108.85H206.244V109.902H197.959ZM198.041 103.299C198.027 104.099 198.725 104.591 199.764 104.584C200.803 104.591 201.5 104.099 201.514 103.299C201.5 102.492 200.803 101.993 199.764 101.986C198.725 101.993 198.027 102.492 198.041 103.299ZM221.83 97.9121V104.146H220.531V102.971H217.428V101.959H220.531V100.633H217.578C216.819 102.533 214.967 103.791 212.26 104.42L211.809 103.354C214.748 102.704 216.334 101.337 216.546 99.5391H212.451V98.4727H217.975C217.975 98.8691 217.94 99.2451 217.872 99.6074H220.531V97.9121H221.83ZM213.818 105.691V104.666H221.83V107.77H215.131V109H222.199V110.039H213.846V106.785H220.531V105.691H213.818ZM230.539 99.2246V99.9766C230.532 101.009 230.532 102.588 230.184 104.775L228.898 104.68C229.213 102.725 229.247 101.296 229.254 100.277H224.277V99.2246H230.539ZM223.594 106.471C224.359 106.464 225.214 106.457 226.109 106.437V102.725H227.395V106.396C228.693 106.341 230.026 106.259 231.25 106.102L231.318 107.072C228.769 107.482 225.918 107.537 223.744 107.523L223.594 106.471ZM231.947 110.162V97.9121H233.26V102.971H235.133V104.078H233.26V110.162H231.947ZM247.014 103.531V104.529H235.803V103.531H247.014ZM237.129 106.32V105.391H245.633V108.084H238.441V109.096H246.016V110.012H237.143V107.223H244.348V106.32H237.129ZM237.211 99.1426V98.2266H245.605V100.879H238.523V101.809H245.811V102.725H237.238V100.018H244.307V99.1426H237.211ZM254.082 98.1035V99.1699H259.756V98.1035H261.055V102.164H257.527V103.23H262.504V104.27H251.334V103.23H256.256V102.164H252.797V98.1035H254.082ZM252.674 106.129V105.158H261.096V108.016H253.959V109.041H261.438V110.039H252.688V107.086H259.811V106.129H252.674ZM254.082 101.18H259.756V100.127H254.082V101.18ZM273.127 98.9922C273.12 100.619 275.109 102.144 277.516 102.465L277.01 103.531C275.007 103.21 273.25 102.171 272.45 100.729C271.65 102.171 269.894 103.21 267.904 103.531L267.385 102.465C269.784 102.144 271.767 100.64 271.773 98.9922V98.3223H273.127V98.9922ZM266.852 105.801V104.734H278.021V105.801H273.045V110.162H271.773V105.801H266.852ZM286.621 106.006C286.621 107.059 287.141 108.173 288.255 108.836C289.376 108.118 289.93 106.949 289.93 106.006V105.418H291.201V106.006C291.194 107.277 292.035 108.508 293.635 109.027L292.992 109.984C291.782 109.567 290.955 108.747 290.531 107.749C290.142 108.733 289.41 109.629 288.289 110.094C287.113 109.649 286.368 108.781 285.992 107.783C285.548 108.747 284.741 109.561 283.586 109.984L282.93 109.027C284.502 108.467 285.356 107.188 285.363 106.006V105.418H286.621V106.006ZM282.615 101.494C282.622 99.7783 284.003 98.6025 285.883 98.5957C287.756 98.6025 289.137 99.7783 289.137 101.494C289.137 103.189 287.756 104.365 285.883 104.365C284.003 104.365 282.622 103.189 282.615 101.494ZM283.887 101.494C283.88 102.561 284.721 103.285 285.883 103.285C287.031 103.285 287.865 102.561 287.865 101.494C287.865 100.421 287.031 99.6963 285.883 99.7031C284.721 99.6963 283.88 100.421 283.887 101.494ZM291.229 104.898V97.9258H292.527V104.898H291.229ZM297.791 98.8281C299.459 98.835 300.669 100.243 300.867 102.506H303.396V97.9121H304.682V110.189H303.396V103.559H300.881C300.737 105.951 299.5 107.435 297.791 107.428C295.966 107.435 294.674 105.767 294.688 103.121C294.674 100.503 295.966 98.835 297.791 98.8281ZM295.918 103.121C295.925 105.069 296.684 106.266 297.791 106.266C298.898 106.266 299.657 105.069 299.664 103.121C299.657 101.2 298.898 99.9971 297.791 99.9902C296.684 99.9971 295.925 101.2 295.918 103.121ZM317.779 107.551V108.631H306.568V107.551H309.248V104.352C308.243 103.798 307.628 102.923 307.635 101.822C307.628 99.8945 309.521 98.6299 312.146 98.623C314.778 98.6299 316.672 99.8945 316.672 101.822C316.672 102.902 316.084 103.771 315.1 104.324V107.551H317.779ZM308.893 101.822C308.893 103.135 310.226 103.989 312.146 103.996C314.054 103.989 315.407 103.135 315.414 101.822C315.407 100.503 314.054 99.6621 312.146 99.6621C310.226 99.6621 308.893 100.503 308.893 101.822ZM310.533 107.551H313.787V104.83C313.288 104.946 312.734 105.008 312.146 105.008C311.572 105.008 311.025 104.946 310.533 104.83V107.551ZM320.062 109.096C319.529 109.089 319.085 108.658 319.092 108.125C319.085 107.592 319.529 107.154 320.062 107.154C320.589 107.154 321.026 107.592 321.033 108.125C321.026 108.658 320.589 109.089 320.062 109.096Z" fill="#333333"/>
</svg>
