<svg width="361" height="48" viewBox="0 0 361 48" fill="none" xmlns="http://www.w3.org/2000/svg">
<rect width="361" height="48" rx="24" fill="white"/>
<path d="M33 29L37 33M19 23C19 25.1217 19.8429 27.1566 21.3431 28.6569C22.8434 30.1571 24.8783 31 27 31C29.1217 31 31.1566 30.1571 32.6569 28.6569C34.1571 27.1566 35 25.1217 35 23C35 20.8783 34.1571 18.8434 32.6569 17.3431C31.1566 15.8429 29.1217 15 27 15C24.8783 15 22.8434 15.8429 21.3431 17.3431C19.8429 18.8434 19 20.8783 19 23Z" stroke="#888888" stroke-width="2" stroke-linecap="round" stroke-linejoin="round"/>
<path d="M60.5312 17.3281V31.3281H59.1094V17.3281H60.5312ZM48.3125 27.4688C50.2969 26.2734 51.3047 23.7266 51.3125 21.2344V20.1094H48.7344V18.9062H55.1406V20.1094H52.7344V21.2344C52.7344 23.625 53.7031 26.0234 55.6719 27.1562L54.7812 28.25C53.4453 27.4531 52.5312 26.0234 52.0391 24.3359C51.5391 26.1641 50.5859 27.7266 49.2188 28.5781L48.3125 27.4688ZM54.1094 23.5V22.2812H56.2812V17.625H57.6875V30.625H56.2812V23.5H54.1094ZM75.1094 24.0312V25.2188H69.4531V26.7188H73.5469V31.1562H63.875V26.7188H67.9844V25.2188H62.3438V24.0312H75.1094ZM63.5156 18.9688V17.7656H73.9062V18.9688H71.875V21.6406H73.8438V22.8438H63.5781V21.6406H65.5625V18.9688H63.5156ZM65.3438 29.9531H72.1094V27.8906H65.3438V29.9531ZM67.0312 21.6406H70.3906V18.9688H67.0312V21.6406ZM91.75 17.3281V25.6562H90.2656V22.1094H87.6562V20.8906H90.2656V17.3281H91.75ZM80.0781 24.3906C82.25 23.6328 83.5859 21.7422 83.5781 19.8125V19.5H80.5469V18.2969H88.0938V19.5H85.0938V19.7969C85.0859 21.5703 86.3516 23.2969 88.4688 24.0156L87.7031 25.1875C86.1328 24.6484 84.9766 23.5234 84.3672 22.1406C83.7578 23.7031 82.5312 24.9609 80.8594 25.5781L80.0781 24.3906ZM82.3281 28.6875C82.3203 27.0234 84.1172 26.0547 87.0625 26.0469C89.9922 26.0547 91.7891 27.0234 91.7969 28.6875C91.7891 30.3516 89.9922 31.3203 87.0625 31.3281C84.1172 31.3203 82.3203 30.3516 82.3281 28.6875ZM83.7969 28.6875C83.7891 29.6328 85.0078 30.1719 87.0625 30.1562C89.1016 30.1719 90.3203 29.6328 90.3281 28.6875C90.3203 27.7344 89.1016 27.1953 87.0625 27.2031C85.0078 27.1953 83.7891 27.7344 83.7969 28.6875ZM106.719 28.3594V29.5938H93.9062V28.3594H99.5469V25.4844H95.375V18.2812H96.8594V20.6875H103.734V18.2812H105.203V25.4844H101.016V28.3594H106.719ZM96.8594 24.2812H103.734V21.8906H96.8594V24.2812ZM120.531 23.75V24.8906H107.719V23.75H120.531ZM109.234 26.9375V25.875H118.953V28.9531H110.734V30.1094H119.391V31.1562H109.25V27.9688H117.484V26.9375H109.234ZM109.328 18.7344V17.6875H118.922V20.7188H110.828V21.7812H119.156V22.8281H109.359V19.7344H117.438V18.7344H109.328ZM137.078 17.3281V24.8438H135.594V17.3281H137.078ZM125.75 21.2188C125.758 19.2969 127.336 17.9609 129.484 17.9688C131.625 17.9609 133.203 19.2969 133.203 21.2188C133.203 23.1328 131.625 24.4688 129.484 24.4531C127.336 24.4688 125.758 23.1328 125.75 21.2188ZM127.203 21.2188C127.195 22.4297 128.156 23.2344 129.484 23.2344C130.797 23.2344 131.75 22.4297 131.75 21.2188C131.75 20.0234 130.797 19.2109 129.484 19.2188C128.156 19.2109 127.195 20.0234 127.203 21.2188ZM127.922 31.1562V25.5156H129.375V27.0938H135.609V25.5156H137.078V31.1562H127.922ZM129.375 29.9375H135.609V28.2656H129.375V29.9375ZM145.969 18.1719V22.25H141.344V24.1875C143.781 24.1875 145.109 24.1328 146.688 23.8438L146.828 25.0469C145.117 25.3359 143.68 25.3828 140.891 25.3906H139.875V21.125H144.484V19.3594H139.859V18.1719H145.969ZM141.469 27.8594V26.6562H150.969V31.3438H149.484V27.8594H141.469ZM146.859 23.4844V22.2969H149.484V20.5625H146.859V19.375H149.484V17.3438H150.969V25.9531H149.484V23.4844H146.859ZM160.047 19.6406V20.8438H153.094V19.6406H155.844V17.7344H157.312V19.6406H160.047ZM153.547 24.9062C153.539 23.0234 154.82 21.6875 156.578 21.6875C158.352 21.6875 159.617 23.0234 159.625 24.9062C159.617 26.8203 158.352 28.1641 156.578 28.1562C154.82 28.1641 153.539 26.8203 153.547 24.9062ZM154.859 24.9062C154.852 26.0938 155.57 26.8906 156.578 26.8906C157.586 26.8906 158.312 26.0938 158.312 24.9062C158.312 23.7422 157.586 22.9297 156.578 22.9219C155.57 22.9297 154.852 23.7422 154.859 24.9062ZM160.688 30.6719V17.6406H162.094V23.1562H163.703V17.3281H165.109V31.3281H163.703V24.375H162.094V30.6719H160.688ZM179.766 28.3594V29.5938H166.953V28.3594H172.594V25.4844H168.422V18.2812H169.906V20.6875H176.781V18.2812H178.25V25.4844H174.062V28.3594H179.766ZM169.906 24.2812H176.781V21.8906H169.906V24.2812ZM185.047 21.1562C185.047 23.3906 185.984 25.7734 187.859 26.9219L187.031 28.0625C185.719 27.2734 184.836 25.875 184.352 24.2578C183.844 26.0312 182.875 27.5469 181.516 28.375L180.594 27.2656C182.57 26.0781 183.617 23.6016 183.609 21.2188V18.6094H185.047V21.1562ZM186.344 23.4844V22.25H188.516V17.5938H189.922V30.6406H188.516V23.4844H186.344ZM191.406 31.3281V17.3281H192.828V31.3281H191.406ZM207.422 28.3438V29.5781H194.609V28.3438H197.672V24.6875C196.523 24.0547 195.82 23.0547 195.828 21.7969C195.82 19.5938 197.984 18.1484 200.984 18.1406C203.992 18.1484 206.156 19.5938 206.156 21.7969C206.156 23.0312 205.484 24.0234 204.359 24.6562V28.3438H207.422ZM197.266 21.7969C197.266 23.2969 198.789 24.2734 200.984 24.2812C203.164 24.2734 204.711 23.2969 204.719 21.7969C204.711 20.2891 203.164 19.3281 200.984 19.3281C198.789 19.3281 197.266 20.2891 197.266 21.7969ZM199.141 28.3438H202.859V25.2344C202.289 25.3672 201.656 25.4375 200.984 25.4375C200.328 25.4375 199.703 25.3672 199.141 25.2344V28.3438ZM210.031 30.1094C209.422 30.1016 208.914 29.6094 208.922 29C208.914 28.3906 209.422 27.8906 210.031 27.8906C210.633 27.8906 211.133 28.3906 211.141 29C211.133 29.6094 210.633 30.1016 210.031 30.1094Z" fill="#888888"/>
<path d="M344 31C344 31.5304 343.789 32.0391 343.414 32.4142C343.039 32.7893 342.53 33 342 33H324C323.47 33 322.961 32.7893 322.586 32.4142C322.211 32.0391 322 31.5304 322 31V20C322 19.4696 322.211 18.9609 322.586 18.5858C322.961 18.2107 323.47 18 324 18H328L330 15H336L338 18H342C342.53 18 343.039 18.2107 343.414 18.5858C343.789 18.9609 344 19.4696 344 20V31Z" stroke="#888888" stroke-width="2" stroke-linecap="round" stroke-linejoin="round"/>
<path d="M333 29C335.209 29 337 27.2091 337 25C337 22.7909 335.209 21 333 21C330.791 21 329 22.7909 329 25C329 27.2091 330.791 29 333 29Z" stroke="#888888" stroke-width="2" stroke-linecap="round" stroke-linejoin="round"/>
</svg>
