<svg width="361" height="48" viewBox="0 0 361 48" fill="none" xmlns="http://www.w3.org/2000/svg">
<rect width="361" height="48" rx="24" fill="white"/>
<path d="M33 29L37 33M19 23C19 25.1217 19.8429 27.1566 21.3431 28.6569C22.8434 30.1571 24.8783 31 27 31C29.1217 31 31.1566 30.1571 32.6569 28.6569C34.1571 27.1566 35 25.1217 35 23C35 20.8783 34.1571 18.8434 32.6569 17.3431C31.1566 15.8429 29.1217 15 27 15C24.8783 15 22.8434 15.8429 21.3431 17.3431C19.8429 18.8434 19 20.8783 19 23Z" stroke="#888888" stroke-width="2" stroke-linecap="round" stroke-linejoin="round"/>
<path d="M53.3438 19.5625C53.3359 21.3984 54.6328 23.1094 56.7188 23.7969L55.9219 24.9688C54.3906 24.4297 53.2422 23.3359 52.6328 21.9531C52.0234 23.5234 50.8359 24.7578 49.2031 25.3594L48.4062 24.1719C50.5938 23.3984 51.8594 21.5312 51.875 19.4375V18.0625H53.3438V19.5625ZM50.2969 28.7031C50.2969 27.0625 52.0859 26.1016 55 26.1094C57.875 26.1016 59.6406 27.0625 59.6406 28.7031C59.6406 30.3594 57.875 31.3047 55 31.2969C52.0859 31.3047 50.2969 30.3594 50.2969 28.7031ZM51.7812 28.7031C51.7734 29.625 52.9766 30.125 55 30.1406C57.0078 30.125 58.1953 29.625 58.1875 28.7031C58.1953 27.8125 57.0078 27.2812 55 27.2812C52.9766 27.2812 51.7734 27.8125 51.7812 28.7031ZM58.0312 25.7812V17.3281H59.5156V20.8438H61.5469V22.0938H59.5156V25.7812H58.0312ZM75.1094 24.0312V25.2188H69.4531V26.7188H73.5469V31.1562H63.875V26.7188H67.9844V25.2188H62.3438V24.0312H75.1094ZM63.5156 18.9688V17.7656H73.9062V18.9688H71.875V21.6406H73.8438V22.8438H63.5781V21.6406H65.5625V18.9688H63.5156ZM65.3438 29.9531H72.1094V27.8906H65.3438V29.9531ZM67.0312 21.6406H70.3906V18.9688H67.0312V21.6406ZM91.75 17.3281V25.6562H90.2656V22.1094H87.6562V20.8906H90.2656V17.3281H91.75ZM80.0781 24.3906C82.25 23.6328 83.5859 21.7422 83.5781 19.8125V19.5H80.5469V18.2969H88.0938V19.5H85.0938V19.7969C85.0859 21.5703 86.3516 23.2969 88.4688 24.0156L87.7031 25.1875C86.1328 24.6484 84.9766 23.5234 84.3672 22.1406C83.7578 23.7031 82.5312 24.9609 80.8594 25.5781L80.0781 24.3906ZM82.3281 28.6875C82.3203 27.0234 84.1172 26.0547 87.0625 26.0469C89.9922 26.0547 91.7891 27.0234 91.7969 28.6875C91.7891 30.3516 89.9922 31.3203 87.0625 31.3281C84.1172 31.3203 82.3203 30.3516 82.3281 28.6875ZM83.7969 28.6875C83.7891 29.6328 85.0078 30.1719 87.0625 30.1562C89.1016 30.1719 90.3203 29.6328 90.3281 28.6875C90.3203 27.7344 89.1016 27.1953 87.0625 27.2031C85.0078 27.1953 83.7891 27.7344 83.7969 28.6875ZM106.719 28.3594V29.5938H93.9062V28.3594H99.5469V25.4844H95.375V18.2812H96.8594V20.6875H103.734V18.2812H105.203V25.4844H101.016V28.3594H106.719ZM96.8594 24.2812H103.734V21.8906H96.8594V24.2812ZM120.531 23.75V24.8906H107.719V23.75H120.531ZM109.234 26.9375V25.875H118.953V28.9531H110.734V30.1094H119.391V31.1562H109.25V27.9688H117.484V26.9375H109.234ZM109.328 18.7344V17.6875H118.922V20.7188H110.828V21.7812H119.156V22.8281H109.359V19.7344H117.438V18.7344H109.328ZM137.078 17.3281V24.8438H135.594V17.3281H137.078ZM125.75 21.2188C125.758 19.2969 127.336 17.9609 129.484 17.9688C131.625 17.9609 133.203 19.2969 133.203 21.2188C133.203 23.1328 131.625 24.4688 129.484 24.4531C127.336 24.4688 125.758 23.1328 125.75 21.2188ZM127.203 21.2188C127.195 22.4297 128.156 23.2344 129.484 23.2344C130.797 23.2344 131.75 22.4297 131.75 21.2188C131.75 20.0234 130.797 19.2109 129.484 19.2188C128.156 19.2109 127.195 20.0234 127.203 21.2188ZM127.922 31.1562V25.5156H129.375V27.0938H135.609V25.5156H137.078V31.1562H127.922ZM129.375 29.9375H135.609V28.2656H129.375V29.9375ZM145.969 18.1719V22.25H141.344V24.1875C143.781 24.1875 145.109 24.1328 146.688 23.8438L146.828 25.0469C145.117 25.3359 143.68 25.3828 140.891 25.3906H139.875V21.125H144.484V19.3594H139.859V18.1719H145.969ZM141.469 27.8594V26.6562H150.969V31.3438H149.484V27.8594H141.469ZM146.859 23.4844V22.2969H149.484V20.5625H146.859V19.375H149.484V17.3438H150.969V25.9531H149.484V23.4844H146.859ZM160.047 19.6406V20.8438H153.094V19.6406H155.844V17.7344H157.312V19.6406H160.047ZM153.547 24.9062C153.539 23.0234 154.82 21.6875 156.578 21.6875C158.352 21.6875 159.617 23.0234 159.625 24.9062C159.617 26.8203 158.352 28.1641 156.578 28.1562C154.82 28.1641 153.539 26.8203 153.547 24.9062ZM154.859 24.9062C154.852 26.0938 155.57 26.8906 156.578 26.8906C157.586 26.8906 158.312 26.0938 158.312 24.9062C158.312 23.7422 157.586 22.9297 156.578 22.9219C155.57 22.9297 154.852 23.7422 154.859 24.9062ZM160.688 30.6719V17.6406H162.094V23.1562H163.703V17.3281H165.109V31.3281H163.703V24.375H162.094V30.6719H160.688ZM183.672 28.3594V29.5938H170.859V28.3594H176.5V25.4844H172.328V18.2812H173.812V20.6875H180.688V18.2812H182.156V25.4844H177.969V28.3594H183.672ZM173.812 24.2812H180.688V21.8906H173.812V24.2812ZM188.953 21.1562C188.953 23.3906 189.891 25.7734 191.766 26.9219L190.938 28.0625C189.625 27.2734 188.742 25.875 188.258 24.2578C187.75 26.0312 186.781 27.5469 185.422 28.375L184.5 27.2656C186.477 26.0781 187.523 23.6016 187.516 21.2188V18.6094H188.953V21.1562ZM190.25 23.4844V22.25H192.422V17.5938H193.828V30.6406H192.422V23.4844H190.25ZM195.312 31.3281V17.3281H196.734V31.3281H195.312ZM211.328 28.3438V29.5781H198.516V28.3438H201.578V24.6875C200.43 24.0547 199.727 23.0547 199.734 21.7969C199.727 19.5938 201.891 18.1484 204.891 18.1406C207.898 18.1484 210.062 19.5938 210.062 21.7969C210.062 23.0312 209.391 24.0234 208.266 24.6562V28.3438H211.328ZM201.172 21.7969C201.172 23.2969 202.695 24.2734 204.891 24.2812C207.07 24.2734 208.617 23.2969 208.625 21.7969C208.617 20.2891 207.07 19.3281 204.891 19.3281C202.695 19.3281 201.172 20.2891 201.172 21.7969ZM203.047 28.3438H206.766V25.2344C206.195 25.3672 205.562 25.4375 204.891 25.4375C204.234 25.4375 203.609 25.3672 203.047 25.2344V28.3438ZM213.938 30.1094C213.328 30.1016 212.82 29.6094 212.828 29C212.82 28.3906 213.328 27.8906 213.938 27.8906C214.539 27.8906 215.039 28.3906 215.047 29C215.039 29.6094 214.539 30.1016 213.938 30.1094Z" fill="#888888"/>
<path d="M344 31C344 31.5304 343.789 32.0391 343.414 32.4142C343.039 32.7893 342.53 33 342 33H324C323.47 33 322.961 32.7893 322.586 32.4142C322.211 32.0391 322 31.5304 322 31V20C322 19.4696 322.211 18.9609 322.586 18.5858C322.961 18.2107 323.47 18 324 18H328L330 15H336L338 18H342C342.53 18 343.039 18.2107 343.414 18.5858C343.789 18.9609 344 19.4696 344 20V31Z" stroke="#888888" stroke-width="2" stroke-linecap="round" stroke-linejoin="round"/>
<path d="M333 29C335.209 29 337 27.2091 337 25C337 22.7909 335.209 21 333 21C330.791 21 329 22.7909 329 25C329 27.2091 330.791 29 333 29Z" stroke="#888888" stroke-width="2" stroke-linecap="round" stroke-linejoin="round"/>
</svg>
