<svg width="361" height="131" viewBox="0 0 361 131" fill="none" xmlns="http://www.w3.org/2000/svg">
<rect width="361" height="131" rx="8" fill="white"/>
<path d="M23.7812 22.125C23.7656 25.7656 21.375 28.3125 17.2656 29.4688L16.5625 28.1094C19.7266 27.2422 21.6016 25.5938 21.9219 23.5312H17.3281V22.125H23.7812ZM28.2969 21.2812V29.2344H26.5625V26.1562H23.8438V24.7344H26.5625V21.2812H28.2969ZM28.2969 29.7969V35.2031H19V29.7969H28.2969ZM20.7031 31.1719V33.8281H26.5781V31.1719H20.7031ZM34.7031 23.8281C34.7031 25.4062 35.5781 26.9688 37.4375 27.7031L36.5 29.0312C35.2578 28.5312 34.3906 27.6094 33.8906 26.4688C33.3594 27.75 32.4375 28.8281 31.0938 29.4062L30.1719 28.0625C32.1094 27.2031 33.0156 25.4219 33.0312 23.8281V22.1094H34.7031V23.8281ZM42.375 21.2812V29.8281H40.7188V26.2344H39.3125V29.75H37.6875V21.5156H39.3125V24.7969H40.7188V21.2812H42.375ZM42.375 30.5V35.3906H40.6406V31.8906H32.7031V30.5H42.375ZM59.75 21.2656V28.4219H58.0156V27.1875H54.6094V25.8594H58.0156V24.4688H54.7969C53.9062 26.625 51.8438 28.0312 48.7188 28.7344L48.1094 27.3125C51.4297 26.625 53.0859 25.1641 53.3281 23.2812H48.8906V21.875H55.2656C55.2656 22.3203 55.2266 22.7422 55.1719 23.1406H58.0156V21.2656H59.75ZM59.75 28.9688V32.6875H52.2031V33.8594H60.125V35.25H50.4688V31.3906H58.0156V30.3438H50.4531V28.9688H59.75ZM69.6406 22.7344V23.7344C69.6406 25 69.6406 26.7656 69.25 29.2031L67.5312 29.0625C67.8672 26.9219 67.9062 25.3438 67.9219 24.125H62.375V22.7344H69.6406ZM66.0781 26.7656V30.9375C67.5156 30.8828 68.9922 30.7812 70.3438 30.6094L70.4375 31.9062C67.5156 32.375 64.2812 32.4375 61.7969 32.4219L61.625 31.0312C62.4609 31.0234 63.3906 31.0156 64.3594 30.9844V26.7656H66.0781ZM72.8281 21.2656V27.0156H74.875V28.4844H72.8281V35.3906H71.0781V21.2656H72.8281ZM86.6406 21.2656V26.7812H88.7344V28.2344H86.6406V35.3594H84.9062V21.2656H86.6406ZM82.9062 22.7344C82.9062 26.8906 81.1875 30.5312 76.4844 32.8438L75.5 31.5C78.9375 29.7891 80.7969 27.3828 81.1562 24.1719H76.2656V22.7344H82.9062ZM96.4062 29.5312V31.0469H98.2656V29.5312H99.875V34.0156C101.531 33.3203 102.297 31.8906 102.297 30.5469V29.4219H104.031V30.5469C104.031 32.0156 104.781 33.4375 106.531 34.0312L105.641 35.3281C104.398 34.8828 103.594 34.0234 103.156 32.9531C102.68 33.9922 101.875 34.8516 100.703 35.3281L99.875 34.0938V35.2188H94.7812V29.5312H96.4062ZM96.4062 33.8906H98.2656V32.3438H96.4062V33.8906ZM97.125 21.8438C98.9453 21.8438 100.383 22.8594 100.75 24.3906H103.297V21.2656H105.031V28.75H103.297V25.8281H100.75C100.406 27.3984 98.9531 28.4375 97.125 28.4375C94.9531 28.4375 93.3906 27.0781 93.3906 25.125C93.3906 23.1875 94.9531 21.8438 97.125 21.8438ZM97.125 23.2812C95.9062 23.2812 95.0469 24 95.0469 25.125C95.0469 26.2656 95.9062 27.0156 97.125 27.0156C98.3125 27.0156 99.1562 26.2656 99.1719 25.125C99.1562 24 98.3125 23.2812 97.125 23.2812ZM118.094 21.2656V26.625H120.266V28.0469H118.094V35.4062H116.359V21.2656H118.094ZM114.219 22.6094V24.0156H109.344V30.5C111.539 30.5 113.273 30.3906 115.219 30.0469L115.422 31.5156C113.234 31.8906 111.328 31.9531 108.781 31.9531H107.609V22.6094H114.219ZM128.109 22.4531V23.5781H130.953V21.2812H132.688V31.5625H130.953V28H128.109V29.2188H121.469V22.4531H128.109ZM123.203 23.8281V27.8594H126.391V23.8281H123.203ZM133 33.7031V35.1094H123.375V30.6094H125.141V33.7031H133ZM128.109 26.6094H130.953V25H128.109V26.6094ZM137.078 30.5312C137.094 28.5469 137.656 27.9375 138.641 27.3281C139.312 26.9062 139.812 26.375 139.812 25.5938C139.812 24.7188 139.141 24.1562 138.281 24.1562C137.5 24.1562 136.75 24.6562 136.703 25.7031H134.75C134.797 23.6094 136.375 22.5312 138.297 22.5312C140.406 22.5312 141.859 23.7031 141.859 25.5625C141.859 26.8281 141.219 27.6562 140.203 28.2656C139.297 28.8125 138.922 29.3594 138.906 30.5312V30.6719H137.078V30.5312ZM138.047 34.125C137.375 34.125 136.828 33.5781 136.828 32.9062C136.828 32.25 137.375 31.7031 138.047 31.7031C138.688 31.7031 139.25 32.25 139.25 32.9062C139.25 33.5781 138.688 34.125 138.047 34.125Z" fill="#222222"/>
<path d="M26.6641 55.9121V63.1992H25.3652V60.0957H23.082V59.0293H25.3652V55.9121H26.6641ZM16.4512 62.0918C18.3516 61.4287 19.5205 59.7744 19.5137 58.0859V57.8125H16.8613V56.7598H23.4648V57.8125H20.8398V58.0723C20.833 59.624 21.9404 61.1348 23.793 61.7637L23.123 62.7891C21.749 62.3174 20.7373 61.333 20.2041 60.123C19.6709 61.4902 18.5977 62.5908 17.1348 63.1309L16.4512 62.0918ZM18.4199 65.8516C18.4131 64.3955 19.9854 63.5479 22.5625 63.541C25.126 63.5479 26.6982 64.3955 26.7051 65.8516C26.6982 67.3076 25.126 68.1553 22.5625 68.1621C19.9854 68.1553 18.4131 67.3076 18.4199 65.8516ZM19.7051 65.8516C19.6982 66.6787 20.7646 67.1504 22.5625 67.1367C24.3467 67.1504 25.4131 66.6787 25.4199 65.8516C25.4131 65.0176 24.3467 64.5459 22.5625 64.5527C20.7646 64.5459 19.6982 65.0176 19.7051 65.8516ZM38.1895 55.9258V59.5625H39.9395V60.6289H38.1895V64.1699H36.8906V55.9258H38.1895ZM28.4688 62.8027C29.4189 62.8027 30.5195 62.8027 31.668 62.7754V61.9482C30.2734 61.791 29.3848 61.1348 29.3984 60.1504C29.3848 59.0293 30.5537 58.332 32.3105 58.3457C34.0674 58.332 35.2158 59.0293 35.2227 60.1504C35.2158 61.1279 34.3477 61.7842 32.9668 61.9482V62.7275C34.0605 62.6729 35.168 62.584 36.1934 62.4336L36.3027 63.3633C33.6709 63.8213 30.7656 63.8418 28.6055 63.8418L28.4688 62.8027ZM28.7832 57.9355V56.9648H31.668V55.8164H32.9668V56.9648H35.8516V57.9355H28.7832ZM30 65.7559V64.7441H38.1895V68.1621H36.8906V65.7559H30ZM30.6289 60.1504C30.6289 60.7246 31.2646 61.1006 32.3105 61.0938C33.3428 61.1006 33.9854 60.7246 33.9785 60.1504C33.9854 59.5625 33.3428 59.2207 32.3105 59.2344C31.2646 59.2207 30.6289 59.5625 30.6289 60.1504ZM50.1934 55.9121V60.875H52.1621V61.9551H50.1934V68.1621H48.9082V55.9121H50.1934ZM40.582 58.8926V57.8262H43.6035V56.0762H44.9023V57.8262H47.8418V58.8926H40.582ZM41.2109 62.6387C41.2109 60.9707 42.4961 59.7949 44.2598 59.7949C46.0166 59.7949 47.3018 60.9707 47.3086 62.6387C47.3018 64.3203 46.0166 65.4893 44.2598 65.4961C42.4961 65.4893 41.2109 64.3203 41.2109 62.6387ZM42.4551 62.6387C42.4482 63.7051 43.2139 64.416 44.2598 64.4023C45.2988 64.416 46.0576 63.7051 46.0645 62.6387C46.0576 61.5928 45.2988 60.8682 44.2598 60.8613C43.2139 60.8682 42.4482 61.5928 42.4551 62.6387ZM63.2773 55.9121V68.1621H62.0469V55.9121H63.2773ZM52.709 64.6211C55.3066 63.0762 56.5508 61.0186 56.7764 58.4961H53.2832V57.4297H58.0684C58.0615 58.626 57.8975 59.7676 57.5215 60.834H59.4629V56.2266H60.6934V67.5605H59.4629V61.873H57.0703C56.3457 63.2949 55.1768 64.5391 53.4473 65.5508L52.709 64.6211ZM78.4258 55.9121V62.4883H77.127V55.9121H78.4258ZM68.5137 59.3164C68.5205 57.6348 69.9014 56.4658 71.7812 56.4727C73.6543 56.4658 75.0352 57.6348 75.0352 59.3164C75.0352 60.9912 73.6543 62.1602 71.7812 62.1465C69.9014 62.1602 68.5205 60.9912 68.5137 59.3164ZM69.7852 59.3164C69.7783 60.376 70.6191 61.0801 71.7812 61.0801C72.9297 61.0801 73.7637 60.376 73.7637 59.3164C73.7637 58.2705 72.9297 57.5596 71.7812 57.5664C70.6191 57.5596 69.7783 58.2705 69.7852 59.3164ZM70.4141 68.0117V63.0762H71.6855V64.457H77.1406V63.0762H78.4258V68.0117H70.4141ZM71.6855 66.9453H77.1406V65.4824H71.6855V66.9453ZM86.2051 56.6504V60.2188H82.1582V61.9141C84.291 61.9141 85.4531 61.8662 86.834 61.6133L86.957 62.666C85.46 62.9189 84.2021 62.96 81.7617 62.9668H80.873V59.2344H84.9062V57.6895H80.8594V56.6504H86.2051ZM82.2676 65.127V64.0742H90.5801V68.1758H89.2812V65.127H82.2676ZM86.9844 61.2988V60.2598H89.2812V58.7422H86.9844V57.7031H89.2812V55.9258H90.5801V63.459H89.2812V61.2988H86.9844ZM102.912 55.9258V63.5H101.682V60.2734H100.287V63.3223H99.0703V56.1035H100.287V59.2207H101.682V55.9258H102.912ZM92.3984 58.2773V57.2383H94.873V55.9668H96.1582V57.2383H98.5918V58.2773H92.3984ZM92.877 60.9434C92.877 59.6514 93.9707 58.8242 95.502 58.8242C97.0674 58.8242 98.1543 59.6514 98.1543 60.9434C98.1543 62.1943 97.0674 63.0488 95.502 63.0488C93.9707 63.0488 92.877 62.1943 92.877 60.9434ZM93.2188 67.0273C94.7705 66.5352 95.6455 65.332 95.6523 64.2246V63.8555H96.9238V64.2246C96.917 65.2227 97.4229 66.2617 98.5166 66.877C99.624 66.207 100.164 65.0996 100.164 64.2246V63.8555H101.449V64.2246C101.442 65.4004 102.297 66.5762 103.883 67.0273L103.268 68.0117C102.051 67.6152 101.224 66.8223 100.793 65.8516C100.417 66.8018 99.6855 67.6836 98.5508 68.1211C97.375 67.6973 96.6367 66.8701 96.2607 65.9062C95.8164 66.8291 94.9893 67.6084 93.834 68.0117L93.2188 67.0273ZM94.0391 60.9434C94.0391 61.6406 94.6338 62.085 95.502 62.0918C96.3838 62.085 96.9854 61.6406 96.9785 60.9434C96.9854 60.2119 96.3838 59.7744 95.502 59.7812C94.6338 59.7744 94.0391 60.2119 94.0391 60.9434ZM114.479 59.4941V60.5332H106.043V56.3496H107.328V59.4941H114.479ZM104.553 63.1172V62.0781H115.764V63.1172H104.553ZM105.947 67.875V64.2793H107.246V66.8086H114.561V67.875H105.947ZM121.178 59.5215C121.171 61.5723 122.518 63.6914 124.404 64.498L123.693 65.5098C122.251 64.874 121.103 63.5205 120.535 61.8867C119.968 63.6367 118.819 65.127 117.391 65.8242L116.639 64.7988C118.484 63.9307 119.852 61.6338 119.865 59.5215V58.2227H117.062V57.1426H123.967V58.2227H121.178V59.5215ZM125.512 68.1621V55.9121H126.811V68.1621H125.512ZM141.822 55.9258V59.5625H143.572V60.6289H141.822V64.1699H140.523V55.9258H141.822ZM132.102 62.8027C133.052 62.8027 134.152 62.8027 135.301 62.7754V61.9482C133.906 61.791 133.018 61.1348 133.031 60.1504C133.018 59.0293 134.187 58.332 135.943 58.3457C137.7 58.332 138.849 59.0293 138.855 60.1504C138.849 61.1279 137.98 61.7842 136.6 61.9482V62.7275C137.693 62.6729 138.801 62.584 139.826 62.4336L139.936 63.3633C137.304 63.8213 134.398 63.8418 132.238 63.8418L132.102 62.8027ZM132.416 57.9355V56.9648H135.301V55.8164H136.6V56.9648H139.484V57.9355H132.416ZM133.633 65.7559V64.7441H141.822V68.1621H140.523V65.7559H133.633ZM134.262 60.1504C134.262 60.7246 134.897 61.1006 135.943 61.0938C136.976 61.1006 137.618 60.7246 137.611 60.1504C137.618 59.5625 136.976 59.2207 135.943 59.2344C134.897 59.2207 134.262 59.5625 134.262 60.1504ZM154.441 55.9258V64.8262H153.143V55.9258H154.441ZM144.529 59.7812C144.536 58.0107 145.944 56.7529 147.797 56.7461C149.643 56.7529 151.051 58.0107 151.051 59.7812C151.051 61.5791 149.643 62.8301 147.797 62.8301C145.944 62.8301 144.536 61.5791 144.529 59.7812ZM145.801 59.7812C145.794 60.9365 146.655 61.6953 147.797 61.6953C148.918 61.6953 149.779 60.9365 149.779 59.7812C149.779 58.6533 148.918 57.8809 147.797 57.8809C146.655 57.8809 145.794 58.6533 145.801 59.7812ZM146.43 67.9023V63.9238H147.742V66.8496H154.811V67.9023H146.43ZM162.439 57.9355V58.9883H156.355V57.9355H158.762V56.2676H160.047V57.9355H162.439ZM156.752 62.543C156.745 60.8955 157.866 59.7266 159.404 59.7266C160.956 59.7266 162.063 60.8955 162.07 62.543C162.063 64.2178 160.956 65.3936 159.404 65.3867C157.866 65.3936 156.745 64.2178 156.752 62.543ZM157.9 62.543C157.894 63.582 158.522 64.2793 159.404 64.2793C160.286 64.2793 160.922 63.582 160.922 62.543C160.922 61.5244 160.286 60.8135 159.404 60.8066C158.522 60.8135 157.894 61.5244 157.9 62.543ZM163 67.5879V56.1855H164.23V61.0117H165.639V55.9121H166.869V68.1621H165.639V62.0781H164.23V67.5879H163ZM183.111 65.5645V66.6445H171.9V65.5645H176.836V63.0488H173.186V56.7461H174.484V58.8516H180.5V56.7461H181.785V63.0488H178.121V65.5645H183.111ZM174.484 61.9961H180.5V59.9043H174.484V61.9961ZM187.732 59.2617C187.732 61.2168 188.553 63.3018 190.193 64.3066L189.469 65.3047C188.32 64.6143 187.548 63.3906 187.124 61.9756C186.68 63.5273 185.832 64.8535 184.643 65.5781L183.836 64.6074C185.565 63.5684 186.481 61.4014 186.475 59.3164V57.0332H187.732V59.2617ZM188.867 61.2988V60.2188H190.768V56.1445H191.998V67.5605H190.768V61.2988H188.867ZM193.297 68.1621V55.9121H194.541V68.1621H193.297ZM207.311 65.5508V66.6309H196.1V65.5508H198.779V62.3516C197.774 61.7979 197.159 60.9229 197.166 59.8223C197.159 57.8945 199.053 56.6299 201.678 56.623C204.31 56.6299 206.203 57.8945 206.203 59.8223C206.203 60.9023 205.615 61.7705 204.631 62.3242V65.5508H207.311ZM198.424 59.8223C198.424 61.1348 199.757 61.9893 201.678 61.9961C203.585 61.9893 204.938 61.1348 204.945 59.8223C204.938 58.5029 203.585 57.6621 201.678 57.6621C199.757 57.6621 198.424 58.5029 198.424 59.8223ZM200.064 65.5508H203.318V62.8301C202.819 62.9463 202.266 63.0078 201.678 63.0078C201.104 63.0078 200.557 62.9463 200.064 62.8301V65.5508ZM209.594 67.0957C209.061 67.0889 208.616 66.6582 208.623 66.125C208.616 65.5918 209.061 65.1543 209.594 65.1543C210.12 65.1543 210.558 65.5918 210.564 66.125C210.558 66.6582 210.12 67.0889 209.594 67.0957ZM21.1953 83.4199V85.5391C22.3164 85.4775 23.4512 85.3818 24.5176 85.2246L24.6133 86.1816C21.8447 86.6943 18.8711 86.7148 16.6836 86.7148L16.5195 85.6484C17.5039 85.6416 18.6729 85.6348 19.8965 85.5938V83.4199H21.1953ZM16.8477 82.832C18.6729 82.3057 19.8145 81.0273 19.8828 79.5234H17.1758V78.4707H19.8965V77.0078H21.1953V78.4707H23.9434V79.5234H21.1953C21.2637 80.9658 22.4258 82.2031 24.2578 82.6953L23.6562 83.707C22.1934 83.29 21.0996 82.4014 20.5459 81.2393C20.0127 82.4629 18.9326 83.3994 17.4629 83.8164L16.8477 82.832ZM25.2832 89.1895V76.9121H26.582V89.1895H25.2832ZM39.0645 76.9121V89.1621H37.8203V82.832H36.2344V88.5332H35.0449V77.1582H36.2344V81.7656H37.8203V76.9121H39.0645ZM28.9609 86.2227V78.3887H33.5547V79.4414H30.2598V85.1152C31.7637 85.1084 32.8984 85.04 34.2109 84.7871L34.3066 85.8535C32.8369 86.1611 31.5654 86.209 29.7812 86.2227H28.9609ZM50.2754 76.9258V80.8633H52.0527V81.9434H50.2754V86.0859H48.9766V76.9258H50.2754ZM40.6641 79.4004V78.3477H43.6719V76.9121H44.9707V78.3477H47.9648V79.4004H40.6641ZM41.334 82.2988C41.3271 80.8975 42.5371 79.9814 44.3145 79.9883C46.0713 79.9814 47.2812 80.8975 47.2812 82.2988C47.2812 83.6865 46.0713 84.5889 44.3145 84.5957C42.5371 84.5889 41.3271 83.6865 41.334 82.2988ZM42.5098 88.9023V85.3613H43.8086V87.8496H50.7949V88.9023H42.5098ZM42.5918 82.2988C42.5781 83.0986 43.2754 83.5908 44.3145 83.584C45.3535 83.5908 46.0508 83.0986 46.0645 82.2988C46.0508 81.4922 45.3535 80.9932 44.3145 80.9863C43.2754 80.9932 42.5781 81.4922 42.5918 82.2988ZM66.3809 76.9121V84.1992H65.082V81.0957H62.7988V80.0293H65.082V76.9121H66.3809ZM56.168 83.0918C58.0684 82.4287 59.2373 80.7744 59.2305 79.0859V78.8125H56.5781V77.7598H63.1816V78.8125H60.5566V79.0723C60.5498 80.624 61.6572 82.1348 63.5098 82.7637L62.8398 83.7891C61.4658 83.3174 60.4541 82.333 59.9209 81.123C59.3877 82.4902 58.3145 83.5908 56.8516 84.1309L56.168 83.0918ZM58.1367 86.8516C58.1299 85.3955 59.7021 84.5479 62.2793 84.541C64.8428 84.5479 66.415 85.3955 66.4219 86.8516C66.415 88.3076 64.8428 89.1553 62.2793 89.1621C59.7021 89.1553 58.1299 88.3076 58.1367 86.8516ZM59.4219 86.8516C59.415 87.6787 60.4814 88.1504 62.2793 88.1367C64.0635 88.1504 65.1299 87.6787 65.1367 86.8516C65.1299 86.0176 64.0635 85.5459 62.2793 85.5527C60.4814 85.5459 59.415 86.0176 59.4219 86.8516ZM79.4785 86.5645V87.6445H68.2676V86.5645H73.2031V84.0488H69.5527V77.7461H70.8516V79.8516H76.8672V77.7461H78.1523V84.0488H74.4883V86.5645H79.4785ZM70.8516 82.9961H76.8672V80.9043H70.8516V82.9961ZM91.5645 82.5312V83.5293H80.3535V82.5312H91.5645ZM81.6797 85.3203V84.3906H90.1836V87.084H82.9922V88.0957H90.5664V89.0117H81.6934V86.2227H88.8984V85.3203H81.6797ZM81.7617 78.1426V77.2266H90.1562V79.8789H83.0742V80.8086H90.3613V81.7246H81.7891V79.0176H88.8574V78.1426H81.7617ZM100.15 80.5215C100.144 82.4561 101.422 84.6162 103.281 85.498L102.543 86.5098C101.169 85.8535 100.075 84.4727 99.5215 82.873C98.9609 84.6162 97.8125 86.127 96.418 86.8242L95.6523 85.7988C97.5117 84.9033 98.8584 82.5928 98.8652 80.5215V79.2227H96.1035V78.1426H102.816V79.2227H100.15V80.5215ZM104.129 89.1621V76.9121H105.428V81.7656H107.396V82.8594H105.428V89.1621H104.129ZM111.717 80.2617C111.717 82.2168 112.537 84.3018 114.178 85.3066L113.453 86.3047C112.305 85.6143 111.532 84.3906 111.108 82.9756C110.664 84.5273 109.816 85.8535 108.627 86.5781L107.82 85.6074C109.55 84.5684 110.466 82.4014 110.459 80.3164V78.0332H111.717V80.2617ZM112.852 82.2988V81.2188H114.752V77.1445H115.982V88.5605H114.752V82.2988H112.852ZM117.281 89.1621V76.9121H118.525V89.1621H117.281ZM129.627 76.9121V81.875H131.596V82.9551H129.627V89.1621H128.342V76.9121H129.627ZM120.016 79.8926V78.8262H123.037V77.0762H124.336V78.8262H127.275V79.8926H120.016ZM120.645 83.6387C120.645 81.9707 121.93 80.7949 123.693 80.7949C125.45 80.7949 126.735 81.9707 126.742 83.6387C126.735 85.3203 125.45 86.4893 123.693 86.4961C121.93 86.4893 120.645 85.3203 120.645 83.6387ZM121.889 83.6387C121.882 84.7051 122.647 85.416 123.693 85.4023C124.732 85.416 125.491 84.7051 125.498 83.6387C125.491 82.5928 124.732 81.8682 123.693 81.8613C122.647 81.8682 121.882 82.5928 121.889 83.6387ZM142.711 76.9121V89.1621H141.48V76.9121H142.711ZM132.143 85.6211C134.74 84.0762 135.984 82.0186 136.21 79.4961H132.717V78.4297H137.502C137.495 79.626 137.331 80.7676 136.955 81.834H138.896V77.2266H140.127V88.5605H138.896V82.873H136.504C135.779 84.2949 134.61 85.5391 132.881 86.5508L132.143 85.6211ZM157.859 76.9121V83.4883H156.561V76.9121H157.859ZM147.947 80.3164C147.954 78.6348 149.335 77.4658 151.215 77.4727C153.088 77.4658 154.469 78.6348 154.469 80.3164C154.469 81.9912 153.088 83.1602 151.215 83.1465C149.335 83.1602 147.954 81.9912 147.947 80.3164ZM149.219 80.3164C149.212 81.376 150.053 82.0801 151.215 82.0801C152.363 82.0801 153.197 81.376 153.197 80.3164C153.197 79.2705 152.363 78.5596 151.215 78.5664C150.053 78.5596 149.212 79.2705 149.219 80.3164ZM149.848 89.0117V84.0762H151.119V85.457H156.574V84.0762H157.859V89.0117H149.848ZM151.119 87.9453H156.574V86.4824H151.119V87.9453ZM165.639 77.6504V81.2188H161.592V82.9141C163.725 82.9141 164.887 82.8662 166.268 82.6133L166.391 83.666C164.894 83.9189 163.636 83.96 161.195 83.9668H160.307V80.2344H164.34V78.6895H160.293V77.6504H165.639ZM161.701 86.127V85.0742H170.014V89.1758H168.715V86.127H161.701ZM166.418 82.2988V81.2598H168.715V79.7422H166.418V78.7031H168.715V76.9258H170.014V84.459H168.715V82.2988H166.418ZM177.957 78.9355V79.9883H171.873V78.9355H174.279V77.2676H175.564V78.9355H177.957ZM172.27 83.543C172.263 81.8955 173.384 80.7266 174.922 80.7266C176.474 80.7266 177.581 81.8955 177.588 83.543C177.581 85.2178 176.474 86.3936 174.922 86.3867C173.384 86.3936 172.263 85.2178 172.27 83.543ZM173.418 83.543C173.411 84.582 174.04 85.2793 174.922 85.2793C175.804 85.2793 176.439 84.582 176.439 83.543C176.439 82.5244 175.804 81.8135 174.922 81.8066C174.04 81.8135 173.411 82.5244 173.418 83.543ZM178.518 88.5879V77.1855H179.748V82.0117H181.156V76.9121H182.387V89.1621H181.156V83.0781H179.748V88.5879H178.518ZM198.588 83.8164V84.8691H193.611V89.1484H192.34V84.8691H187.418V83.8164H198.588ZM188.047 81.8613C190.33 81.5469 192.23 80.1865 192.271 78.6758H188.457V77.6367H197.535V78.6758H193.748C193.769 80.1865 195.655 81.5469 197.973 81.8613L197.494 82.8867C195.484 82.5723 193.748 81.5811 193.003 80.1865C192.251 81.5811 190.521 82.5723 188.539 82.8867L188.047 81.8613ZM203.25 80.2617C203.25 82.2168 204.07 84.3018 205.711 85.3066L204.986 86.3047C203.838 85.6143 203.065 84.3906 202.642 82.9756C202.197 84.5273 201.35 85.8535 200.16 86.5781L199.354 85.6074C201.083 84.5684 201.999 82.4014 201.992 80.3164V78.0332H203.25V80.2617ZM204.385 82.2988V81.2188H206.285V77.1445H207.516V88.5605H206.285V82.2988H204.385ZM208.814 89.1621V76.9121H210.059V89.1621H208.814ZM222.828 86.5508V87.6309H211.617V86.5508H214.297V83.3516C213.292 82.7979 212.677 81.9229 212.684 80.8223C212.677 78.8945 214.57 77.6299 217.195 77.623C219.827 77.6299 221.721 78.8945 221.721 80.8223C221.721 81.9023 221.133 82.7705 220.148 83.3242V86.5508H222.828ZM213.941 80.8223C213.941 82.1348 215.274 82.9893 217.195 82.9961C219.103 82.9893 220.456 82.1348 220.463 80.8223C220.456 79.5029 219.103 78.6621 217.195 78.6621C215.274 78.6621 213.941 79.5029 213.941 80.8223ZM215.582 86.5508H218.836V83.8301C218.337 83.9463 217.783 84.0078 217.195 84.0078C216.621 84.0078 216.074 83.9463 215.582 83.8301V86.5508ZM225.111 88.0957C224.578 88.0889 224.134 87.6582 224.141 87.125C224.134 86.5918 224.578 86.1543 225.111 86.1543C225.638 86.1543 226.075 86.5918 226.082 87.125C226.075 87.6582 225.638 88.0889 225.111 88.0957ZM26.5957 97.9121V110.189H25.2969V97.9121H26.5957ZM16.875 103.121C16.875 100.503 18.1943 98.835 20.0469 98.8281C21.8652 98.835 23.2051 100.503 23.2051 103.121C23.2051 105.767 21.8652 107.435 20.0469 107.428C18.1943 107.435 16.875 105.767 16.875 103.121ZM18.1328 103.121C18.126 105.069 18.9053 106.266 20.0469 106.266C21.168 106.266 21.9473 105.069 21.9473 103.121C21.9473 101.2 21.168 99.9971 20.0469 99.9902C18.9053 99.9971 18.126 101.2 18.1328 103.121ZM34.9766 99.0879V107.141H29.2344V99.0879H34.9766ZM30.5195 106.088H33.7188V100.113H30.5195V106.088ZM37.3965 110.189V97.9121H38.6953V110.189H37.3965ZM45.1621 101.521C45.1553 103.572 46.502 105.691 48.3887 106.498L47.6777 107.51C46.2354 106.874 45.0869 105.521 44.5195 103.887C43.9521 105.637 42.8037 107.127 41.375 107.824L40.623 106.799C42.4688 105.931 43.8359 103.634 43.8496 101.521V100.223H41.0469V99.1426H47.9512V100.223H45.1621V101.521ZM49.4961 110.162V97.9121H50.7949V110.162H49.4961ZM63.9473 103.531V104.529H52.7363V103.531H63.9473ZM54.0625 106.32V105.391H62.5664V108.084H55.375V109.096H62.9492V110.012H54.0762V107.223H61.2812V106.32H54.0625ZM54.1445 99.1426V98.2266H62.5391V100.879H55.457V101.809H62.7441V102.725H54.1719V100.018H61.2402V99.1426H54.1445ZM78.4258 97.9121V104.488H77.127V97.9121H78.4258ZM68.5137 101.316C68.5205 99.6348 69.9014 98.4658 71.7812 98.4727C73.6543 98.4658 75.0352 99.6348 75.0352 101.316C75.0352 102.991 73.6543 104.16 71.7812 104.146C69.9014 104.16 68.5205 102.991 68.5137 101.316ZM69.7852 101.316C69.7783 102.376 70.6191 103.08 71.7812 103.08C72.9297 103.08 73.7637 102.376 73.7637 101.316C73.7637 100.271 72.9297 99.5596 71.7812 99.5664C70.6191 99.5596 69.7783 100.271 69.7852 101.316ZM70.4141 110.012V105.076H71.6855V106.457H77.1406V105.076H78.4258V110.012H70.4141ZM71.6855 108.945H77.1406V107.482H71.6855V108.945ZM86.2051 98.6504V102.219H82.1582V103.914C84.291 103.914 85.4531 103.866 86.834 103.613L86.957 104.666C85.46 104.919 84.2021 104.96 81.7617 104.967H80.873V101.234H84.9062V99.6895H80.8594V98.6504H86.2051ZM82.2676 107.127V106.074H90.5801V110.176H89.2812V107.127H82.2676ZM86.9844 103.299V102.26H89.2812V100.742H86.9844V99.7031H89.2812V97.9258H90.5801V105.459H89.2812V103.299H86.9844ZM98.5234 99.9355V100.988H92.4395V99.9355H94.8457V98.2676H96.1309V99.9355H98.5234ZM92.8359 104.543C92.8291 102.896 93.9502 101.727 95.4883 101.727C97.04 101.727 98.1475 102.896 98.1543 104.543C98.1475 106.218 97.04 107.394 95.4883 107.387C93.9502 107.394 92.8291 106.218 92.8359 104.543ZM93.9844 104.543C93.9775 105.582 94.6064 106.279 95.4883 106.279C96.3701 106.279 97.0059 105.582 97.0059 104.543C97.0059 103.524 96.3701 102.813 95.4883 102.807C94.6064 102.813 93.9775 103.524 93.9844 104.543ZM99.084 109.588V98.1855H100.314V103.012H101.723V97.9121H102.953V110.162H101.723V104.078H100.314V109.588H99.084ZM119.154 104.816V105.869H114.178V110.148H112.906V105.869H107.984V104.816H119.154ZM108.613 102.861C110.896 102.547 112.797 101.187 112.838 99.6758H109.023V98.6367H118.102V99.6758H114.314C114.335 101.187 116.222 102.547 118.539 102.861L118.061 103.887C116.051 103.572 114.314 102.581 113.569 101.187C112.817 102.581 111.088 103.572 109.105 103.887L108.613 102.861ZM124.582 101.029C124.568 103.265 125.922 105.521 127.822 106.361L127.043 107.387C125.635 106.717 124.521 105.343 123.946 103.668C123.379 105.466 122.251 106.942 120.781 107.66L119.988 106.566C121.916 105.712 123.27 103.367 123.27 101.029V98.9375H124.582V101.029ZM128.93 110.189V97.9121H130.229V110.189H128.93ZM138.432 98.9512V99.9902H141.098V97.9258H142.396V106.854H141.098V103.682H138.432V104.748H132.744V98.9512H138.432ZM134.029 103.723H137.16V100.004H134.029V103.723ZM134.398 109.902V106.033H135.711V108.85H142.67V109.902H134.398ZM138.432 102.615H141.098V101.057H138.432V102.615ZM153.922 99.0469V100.127H149.615V106.102C151.673 106.088 153.074 106.013 154.688 105.705L154.838 106.771C153.074 107.106 151.584 107.182 149.273 107.182H148.303V99.0469H153.922ZM153.225 103.367V102.287H156.629V97.9121H157.928V110.189H156.629V103.367H153.225ZM170.971 103.805V104.844H166.021V106.197H169.604V110.162H168.291V107.223H161.045V106.197H164.736V104.844H159.801V103.805H170.971ZM161.004 100.578C160.997 99.0811 162.699 98.1787 165.379 98.1855C168.052 98.1787 169.747 99.0811 169.754 100.578C169.747 102.048 168.052 102.95 165.379 102.943C162.699 102.95 160.997 102.048 161.004 100.578ZM162.344 100.578C162.337 101.433 163.492 101.925 165.379 101.918C167.252 101.925 168.421 101.433 168.414 100.578C168.421 99.7168 167.252 99.2041 165.379 99.2109C163.492 99.2041 162.337 99.7168 162.344 100.578ZM185.531 97.9121V105.199H184.232V102.096H181.949V101.029H184.232V97.9121H185.531ZM175.318 104.092C177.219 103.429 178.388 101.774 178.381 100.086V99.8125H175.729V98.7598H182.332V99.8125H179.707V100.072C179.7 101.624 180.808 103.135 182.66 103.764L181.99 104.789C180.616 104.317 179.604 103.333 179.071 102.123C178.538 103.49 177.465 104.591 176.002 105.131L175.318 104.092ZM177.287 107.852C177.28 106.396 178.853 105.548 181.43 105.541C183.993 105.548 185.565 106.396 185.572 107.852C185.565 109.308 183.993 110.155 181.43 110.162C178.853 110.155 177.28 109.308 177.287 107.852ZM178.572 107.852C178.565 108.679 179.632 109.15 181.43 109.137C183.214 109.15 184.28 108.679 184.287 107.852C184.28 107.018 183.214 106.546 181.43 106.553C179.632 106.546 178.565 107.018 178.572 107.852ZM197.057 97.9258V101.562H198.807V102.629H197.057V106.17H195.758V97.9258H197.057ZM187.336 104.803C188.286 104.803 189.387 104.803 190.535 104.775V103.948C189.141 103.791 188.252 103.135 188.266 102.15C188.252 101.029 189.421 100.332 191.178 100.346C192.935 100.332 194.083 101.029 194.09 102.15C194.083 103.128 193.215 103.784 191.834 103.948V104.728C192.928 104.673 194.035 104.584 195.061 104.434L195.17 105.363C192.538 105.821 189.633 105.842 187.473 105.842L187.336 104.803ZM187.65 99.9355V98.9648H190.535V97.8164H191.834V98.9648H194.719V99.9355H187.65ZM188.867 107.756V106.744H197.057V110.162H195.758V107.756H188.867ZM189.496 102.15C189.496 102.725 190.132 103.101 191.178 103.094C192.21 103.101 192.853 102.725 192.846 102.15C192.853 101.562 192.21 101.221 191.178 101.234C190.132 101.221 189.496 101.562 189.496 102.15ZM209.143 97.9258V101.863H210.92V102.943H209.143V107.086H207.844V97.9258H209.143ZM199.531 100.4V99.3477H202.539V97.9121H203.838V99.3477H206.832V100.4H199.531ZM200.201 103.299C200.194 101.897 201.404 100.981 203.182 100.988C204.938 100.981 206.148 101.897 206.148 103.299C206.148 104.687 204.938 105.589 203.182 105.596C201.404 105.589 200.194 104.687 200.201 103.299ZM201.377 109.902V106.361H202.676V108.85H209.662V109.902H201.377ZM201.459 103.299C201.445 104.099 202.143 104.591 203.182 104.584C204.221 104.591 204.918 104.099 204.932 103.299C204.918 102.492 204.221 101.993 203.182 101.986C202.143 101.993 201.445 102.492 201.459 103.299ZM225.248 97.9121V104.146H223.949V102.971H220.846V101.959H223.949V100.633H220.996C220.237 102.533 218.385 103.791 215.678 104.42L215.227 103.354C218.166 102.704 219.752 101.337 219.964 99.5391H215.869V98.4727H221.393C221.393 98.8691 221.358 99.2451 221.29 99.6074H223.949V97.9121H225.248ZM217.236 105.691V104.666H225.248V107.77H218.549V109H225.617V110.039H217.264V106.785H223.949V105.691H217.236ZM233.957 99.2246V99.9766C233.95 101.009 233.95 102.588 233.602 104.775L232.316 104.68C232.631 102.725 232.665 101.296 232.672 100.277H227.695V99.2246H233.957ZM227.012 106.471C227.777 106.464 228.632 106.457 229.527 106.437V102.725H230.812V106.396C232.111 106.341 233.444 106.259 234.668 106.102L234.736 107.072C232.187 107.482 229.336 107.537 227.162 107.523L227.012 106.471ZM235.365 110.162V97.9121H236.678V102.971H238.551V104.078H236.678V110.162H235.365ZM250.432 103.531V104.529H239.221V103.531H250.432ZM240.547 106.32V105.391H249.051V108.084H241.859V109.096H249.434V110.012H240.561V107.223H247.766V106.32H240.547ZM240.629 99.1426V98.2266H249.023V100.879H241.941V101.809H249.229V102.725H240.656V100.018H247.725V99.1426H240.629ZM257.5 98.1035V99.1699H263.174V98.1035H264.473V102.164H260.945V103.23H265.922V104.27H254.752V103.23H259.674V102.164H256.215V98.1035H257.5ZM256.092 106.129V105.158H264.514V108.016H257.377V109.041H264.855V110.039H256.105V107.086H263.229V106.129H256.092ZM257.5 101.18H263.174V100.127H257.5V101.18ZM276.545 98.9922C276.538 100.619 278.527 102.144 280.934 102.465L280.428 103.531C278.425 103.21 276.668 102.171 275.868 100.729C275.068 102.171 273.312 103.21 271.322 103.531L270.803 102.465C273.202 102.144 275.185 100.64 275.191 98.9922V98.3223H276.545V98.9922ZM270.27 105.801V104.734H281.439V105.801H276.463V110.162H275.191V105.801H270.27ZM290.039 106.006C290.039 107.059 290.559 108.173 291.673 108.836C292.794 108.118 293.348 106.949 293.348 106.006V105.418H294.619V106.006C294.612 107.277 295.453 108.508 297.053 109.027L296.41 109.984C295.2 109.567 294.373 108.747 293.949 107.749C293.56 108.733 292.828 109.629 291.707 110.094C290.531 109.649 289.786 108.781 289.41 107.783C288.966 108.747 288.159 109.561 287.004 109.984L286.348 109.027C287.92 108.467 288.774 107.188 288.781 106.006V105.418H290.039V106.006ZM286.033 101.494C286.04 99.7783 287.421 98.6025 289.301 98.5957C291.174 98.6025 292.555 99.7783 292.555 101.494C292.555 103.189 291.174 104.365 289.301 104.365C287.421 104.365 286.04 103.189 286.033 101.494ZM287.305 101.494C287.298 102.561 288.139 103.285 289.301 103.285C290.449 103.285 291.283 102.561 291.283 101.494C291.283 100.421 290.449 99.6963 289.301 99.7031C288.139 99.6963 287.298 100.421 287.305 101.494ZM294.646 104.898V97.9258H295.945V104.898H294.646ZM301.209 98.8281C302.877 98.835 304.087 100.243 304.285 102.506H306.814V97.9121H308.1V110.189H306.814V103.559H304.299C304.155 105.951 302.918 107.435 301.209 107.428C299.384 107.435 298.092 105.767 298.105 103.121C298.092 100.503 299.384 98.835 301.209 98.8281ZM299.336 103.121C299.343 105.069 300.102 106.266 301.209 106.266C302.316 106.266 303.075 105.069 303.082 103.121C303.075 101.2 302.316 99.9971 301.209 99.9902C300.102 99.9971 299.343 101.2 299.336 103.121ZM321.197 107.551V108.631H309.986V107.551H312.666V104.352C311.661 103.798 311.046 102.923 311.053 101.822C311.046 99.8945 312.939 98.6299 315.564 98.623C318.196 98.6299 320.09 99.8945 320.09 101.822C320.09 102.902 319.502 103.771 318.518 104.324V107.551H321.197ZM312.311 101.822C312.311 103.135 313.644 103.989 315.564 103.996C317.472 103.989 318.825 103.135 318.832 101.822C318.825 100.503 317.472 99.6621 315.564 99.6621C313.644 99.6621 312.311 100.503 312.311 101.822ZM313.951 107.551H317.205V104.83C316.706 104.946 316.152 105.008 315.564 105.008C314.99 105.008 314.443 104.946 313.951 104.83V107.551ZM323.48 109.096C322.947 109.089 322.503 108.658 322.51 108.125C322.503 107.592 322.947 107.154 323.48 107.154C324.007 107.154 324.444 107.592 324.451 108.125C324.444 108.658 324.007 109.089 323.48 109.096Z" fill="#333333"/>
</svg>
