<svg width="24" height="24" viewBox="0 0 24 24" fill="none" xmlns="http://www.w3.org/2000/svg">
<path d="M10.886 2.061C11.1496 2.03183 11.414 2.10858 11.6211 2.27436C11.8281 2.44014 11.9608 2.68138 11.99 2.945C12.0192 3.20863 11.9424 3.47305 11.7766 3.68009C11.6109 3.88713 11.3696 4.01983 11.106 4.049C9.07764 4.28135 7.21483 5.28031 5.899 6.84134C4.58316 8.40236 3.91385 10.4074 4.0281 12.4458C4.14236 14.4842 5.03153 16.4018 6.51357 17.806C7.99561 19.2102 9.95838 19.9948 12 19.999V21.999C6.477 21.999 2 17.523 2 11.999C2 6.893 5.848 2.621 10.886 2.062V2.061Z" fill="url(#paint0_linear_228_2611)"/>
<path d="M16.322 4.0399C16.4737 3.82247 16.7056 3.6742 16.9667 3.62769C17.2277 3.58118 17.4965 3.64025 17.714 3.7919C19.0378 4.71257 20.119 5.94 20.8654 7.36933C21.6118 8.79867 22.001 10.3874 22 11.9999C22 17.5229 17.523 21.9999 12 21.9999V19.9999C13.7035 20.0001 15.3626 19.4566 16.7358 18.4484C18.1089 17.4402 19.1244 16.02 19.6343 14.3946C20.1442 12.7692 20.122 11.0234 19.5708 9.41155C19.0197 7.79966 17.9684 6.40579 16.57 5.4329C16.4622 5.35776 16.3703 5.26211 16.2994 5.15142C16.2286 5.04073 16.1803 4.91717 16.1573 4.7878C16.1343 4.65843 16.137 4.52578 16.1652 4.39746C16.1935 4.26913 16.2468 4.14762 16.322 4.0399Z" fill="url(#paint1_linear_228_2611)"/>
<defs>
<linearGradient id="paint0_linear_228_2611" x1="502" y1="107.18" x2="502" y2="1832.78" gradientUnits="userSpaceOnUse">
<stop/>
<stop offset="1" stop-opacity="0.55"/>
</linearGradient>
<linearGradient id="paint1_linear_228_2611" x1="512" y1="166.84" x2="512" y2="1666.14" gradientUnits="userSpaceOnUse">
<stop stop-opacity="0"/>
<stop offset="1" stop-opacity="0.55"/>
</linearGradient>
</defs>
</svg>
